<?xml version="1.0"?>

<!DOCTYPE svg PUBLIC '-//W3C//DTD SVG 1.0//EN' 'http://www.w3.org/TR/2001/REC-SVG-20010904/DTD/svg10.dtd'>
<svg fill-opacity="1" xmlns:xlink="http://www.w3.org/1999/xlink" color-rendering="auto" color-interpolation="auto" text-rendering="auto" stroke="black" stroke-linecap="square" stroke-miterlimit="10" shape-rendering="auto" stroke-opacity="1" fill="black" stroke-dasharray="none" font-weight="normal" stroke-width="1" xmlns="http://www.w3.org/2000/svg" font-family="&apos;Dialog&apos;" font-style="normal" stroke-linejoin="miter" font-size="12" stroke-dashoffset="0" image-rendering="auto">
  <!--Unicode Character 'DOUBLE-STRUCK CAPITAL Q' (U+211A)-->
  <defs id="genericDefs" />
  <g>
    <g>
      <path d="M196.1719 442.9688 Q179.1562 442.125 162.2812 437.4844 Q146.1094 433.125 130.3594 425.25 Q115.1719 417.6562 101.25 407.25 L74.5312 386.1562 Q58.9219 380.1094 46.9688 370.6875 Q35.1562 361.4062 27 349.1719 Q18.8438 337.0781 14.7656 322.3125 Q10.6875 307.5469 10.6875 290.5312 Q10.6875 248.7656 37.0547 219.8672 Q63.4219 190.9688 103.9219 190.9688 Q144.5625 190.9688 170.9297 219.8672 Q197.2969 248.7656 197.2969 290.5312 Q197.2969 324.4219 178.7344 351.2109 Q160.1719 378 127.2656 387.8438 Q153.2812 435.0938 196.1719 437.7656 L196.1719 442.9688 ZM129.9375 380.6719 Q155.25 374.625 173.3906 349.8047 Q191.5312 324.9844 191.5312 290.5312 Q191.5312 254.1094 170.0859 226.9688 Q148.6406 199.8281 115.4531 196.5938 Q141.8906 202.0781 156.3047 226.2656 Q170.7188 250.4531 170.7188 290.5312 Q170.7188 361.125 129.9375 380.6719 ZM92.3906 196.5938 Q59.3438 199.8281 37.8984 226.9688 Q16.4531 254.1094 16.4531 290.5312 Q16.4531 324.9844 34.5938 349.8047 Q52.7344 374.625 78.0469 380.6719 Q37.125 361.125 37.125 290.5312 Q37.125 250.4531 51.6094 226.2656 Q66.0938 202.0781 92.3906 196.5938 ZM103.9219 380.6719 Q133.5938 380.6719 149.3438 356.2031 Q165.0938 331.7344 165.0938 290.5312 Q165.0938 249.1875 149.4141 225.2109 Q133.7344 201.2344 103.9219 201.2344 Q74.25 201.2344 58.5703 225.2109 Q42.8906 249.1875 42.8906 290.5312 Q42.8906 331.7344 58.6406 356.2031 Q74.3906 380.6719 103.9219 380.6719 ZM159.6094 431.4375 Q137.5312 419.625 121.5 389.6719 Q110.1094 390.7969 103.6406 390.7969 Q98.8594 390.7969 90.4219 389.9531 Q116.8594 415.5469 159.6094 431.4375 Z" stroke="none" />
    </g>
  </g>
</svg>
