<?xml version="1.0"?>

<!DOCTYPE svg PUBLIC '-//W3C//DTD SVG 1.0//EN' 'http://www.w3.org/TR/2001/REC-SVG-20010904/DTD/svg10.dtd'>
<svg fill-opacity="1" xmlns:xlink="http://www.w3.org/1999/xlink" color-rendering="auto" color-interpolation="auto" text-rendering="auto" stroke="black" stroke-linecap="square" stroke-miterlimit="10" shape-rendering="auto" stroke-opacity="1" fill="black" stroke-dasharray="none" font-weight="normal" stroke-width="1" xmlns="http://www.w3.org/2000/svg" font-family="&apos;Dialog&apos;" font-style="normal" stroke-linejoin="miter" font-size="12" stroke-dashoffset="0" image-rendering="auto">
  <!--Unicode Character 'INTEGRAL' (U+222B)-->
  <defs id="genericDefs" />
  <g>
    <g>
      <path d="M125.0156 113.3438 Q125.0156 121.2188 120.7969 126.3516 Q116.5781 131.4844 109.6875 131.4844 Q102.9375 131.4844 98.1562 127.125 Q93.375 122.7656 93.375 115.875 Q93.375 113.4844 94.2188 110.0391 Q95.0625 106.5938 95.0625 105.3281 Q95.0625 101.25 91.5469 101.25 Q85.5 101.25 80.2969 108.1406 Q71.4375 119.9531 71.4375 140.7656 Q71.4375 145.9688 82.9688 229.0781 Q90.4219 282.7969 90.4219 318.9375 Q90.4219 393.3281 82.125 426.6562 Q78.0469 443.3906 67.2188 453.5859 Q56.3906 463.7812 42.8906 463.7812 Q32.0625 463.7812 25.1016 457.7344 Q18.1406 451.6875 18.1406 441.9844 Q18.1406 434.3906 22.6406 429.2578 Q27.1406 424.125 33.75 424.125 Q40.2188 424.125 44.5781 428.9766 Q48.9375 433.8281 48.9375 440.5781 Q48.9375 442.9688 48.2344 445.9219 Q47.5312 448.875 47.5312 450 Q47.5312 454.0781 50.625 454.0781 Q58.6406 454.0781 64.6172 443.9531 Q70.5938 433.8281 70.5938 418.6406 Q70.5938 404.4375 58.7812 311.7656 Q51.8906 257.7656 51.8906 209.25 Q51.8906 166.2188 56.25 142.4531 Q60.75 117.5625 71.5781 104.4844 Q82.4062 91.4062 99.1406 91.4062 Q109.6875 91.4062 117.3516 97.875 Q125.0156 104.3438 125.0156 113.3438 Z" stroke="none" />
    </g>
  </g>
</svg>
