<svg version="1.1" xmlns="http://www.w3.org/2000/svg" xmlns:xlink="http://www.w3.org/1999/xlink">
	<path transform="scale(0.01, -0.01) translate(0, -750)" d="M861 376c0 0 -56 -136 -117 -191l178 -185h-237l-82 85c-72 -51 -138 -100 -265 -100c-122 0 -287 49 -287 232c0 103 104 174 201 225c-48 60 -83 118 -83 183c0 128 92 215 263 215c165 0 245 -112 245 -215c0 -124 -163 -203 -163 -203l110 -114zM432 707 c-51 0 -72 -38 -72 -82c0 -48 60 -101 60 -101c42 23 92 57 92 101s-19 82 -80 82zM481 210l-131 129s-86 -31 -86 -107c0 -48 49 -69 93 -69c68 0 124 47 124 47z" />
</svg>