<svg version="1.1" xmlns="http://www.w3.org/2000/svg" xmlns:xlink="http://www.w3.org/1999/xlink">
	<path transform="scale(0.01, -0.01) translate(0, -750)" d="M718 344c43 0 62 24 62 98c0 157 -133 267 -307 267c-170 0 -304 -133 -304 -296s137 -286 304 -286c132 0 187 68 187 68l116 -77s-87 -133 -303 -133c-244 0 -450 174 -450 428s206 427 450 427c234 0 426 -162 426 -398c0 -156 -105 -219 -203 -219 c-54 0 -106 18 -139 46l-9 -13c-28 -31 -73 -54 -126 -54c-110 0 -189 89 -189 201c0 113 79 203 189 203c52 0 95 -18 126 -48v37h119v-209s3 -42 51 -42zM388 405c0 -46 33 -80 81 -80c45 0 79 34 79 80c0 47 -36 82 -79 82c-45 0 -81 -35 -81 -82z" />
</svg>