<svg version="1.1" xmlns="http://www.w3.org/2000/svg" xmlns:xlink="http://www.w3.org/1999/xlink">
	<path transform="scale(0.01, -0.01) translate(0, -750)" d="M333 932l120 -42v-54.4033c116.385 -16.4834 194 -73.5967 194 -73.5967l-76 -150s-82 57 -167 57c-64 0 -98 -29 -98 -74c0 -46 78 -79 172 -119c92 -39 193 -117 193 -225c0 -158.107 -96.6191 -233.767 -218 -257.478v-102.522l-120 31v63.7148 c-176.857 9.40039 -283 108.285 -283 108.285l94 158s110 -93 202 -93c41 0 119 4 119 81c0 60 -88 87 -186 136c-99 49 -157 126 -157 212c0 131.521 99.1943 222.197 211 245.866v98.1338z" />
</svg>