<svg version="1.1" xmlns="http://www.w3.org/2000/svg" xmlns:xlink="http://www.w3.org/1999/xlink">
	<path transform="scale(0.01, -0.01) translate(0, -750)" d="M613 632c0 -91 -44 -151 -106 -187c83 -38 145 -110 145 -223c0 -139 -153 -237 -308 -237c-160 0 -309 98 -309 237c0 113 61 185 144 223c-63 36 -109 96 -109 187c0 122 137 208 273 208c141 0 270 -86 270 -208zM435 605c0 53 -37 93 -91 93c-53 0 -93 -40 -93 -93 c0 -55 42 -92 93 -92c53 0 91 37 91 92zM239 252c0 -61 42 -105 104 -105c60 0 105 44 105 105c0 62 -47 105 -105 105c-59 0 -104 -43 -104 -105z" />
</svg>