<svg version="1.1" xmlns="http://www.w3.org/2000/svg" xmlns:xlink="http://www.w3.org/1999/xlink">
	<path transform="scale(0.01, -0.01) translate(0, -750)" d="M23 643c0 116 97 197 223 197c122 0 219 -81 219 -197c0 -114 -91 -197 -219 -197c-135 0 -223 83 -223 197zM791 825l-480 -825h-118l480 825h118zM152 643c0 -54 38 -91 92 -91c51 0 90 37 90 91s-40 93 -90 93c-51 0 -92 -39 -92 -93zM516 182c0 114 88 197 223 197 c128 0 219 -83 219 -197c0 -116 -97 -197 -219 -197c-126 0 -223 81 -223 197zM645 182c0 -54 41 -93 92 -93c50 0 90 39 90 93s-39 91 -90 91c-54 0 -92 -37 -92 -91z" />
</svg>