<?xml version="1.0"?>

<!DOCTYPE svg PUBLIC '-//W3C//DTD SVG 1.0//EN' 'http://www.w3.org/TR/2001/REC-SVG-20010904/DTD/svg10.dtd'>
<svg fill-opacity="1" xmlns:xlink="http://www.w3.org/1999/xlink" color-rendering="auto" color-interpolation="auto" text-rendering="auto" stroke="black" stroke-linecap="square" stroke-miterlimit="10" shape-rendering="auto" stroke-opacity="1" fill="black" stroke-dasharray="none" font-weight="normal" stroke-width="1" xmlns="http://www.w3.org/2000/svg" font-family="&apos;Dialog&apos;" font-style="normal" stroke-linejoin="miter" font-size="12" stroke-dashoffset="0" image-rendering="auto">
  <!--Unicode Character 'LATIN CAPITAL LETTER Q' (U+0051)-->
  <defs id="genericDefs" />
  <g>
    <g>
      <path d="M214.5938 383.0625 L206.4375 402.0469 Q182.5312 392.9062 162.4219 376.5938 Q139.0781 389.3906 111.7969 389.3906 Q68.625 389.3906 41.0625 359.5078 Q13.5 329.625 13.5 282.7969 Q13.5 236.3906 40.2188 206.2969 Q66.9375 176.2031 112.3594 176.2031 Q155.5312 176.2031 183.1641 205.5938 Q210.7969 234.9844 210.7969 282.5156 Q210.7969 333.4219 179.7188 363.6562 Q197.1562 376.1719 214.5938 383.0625 ZM158.3438 348.75 Q182.5312 326.3906 182.5312 282.7969 Q182.5312 243.8438 163.0547 221.6953 Q143.5781 199.5469 112.3594 199.5469 Q81.1406 199.5469 61.4531 220.7812 Q41.7656 242.0156 41.7656 282.7969 Q41.7656 322.7344 61.4531 344.3906 Q81.1406 366.0469 112.3594 366.0469 Q127.6875 366.0469 139.9219 360.5625 Q126.2812 351.8438 112.9219 348.75 L119.5312 328.7812 Q144.7031 335.9531 158.3438 348.75 Z" stroke="none" />
    </g>
  </g>
</svg>
