<?xml version="1.0" encoding="UTF-8" standalone="no"?>
<!-- Created with Inkscape (http://www.inkscape.org/) -->
<svg
   xmlns:svg="http://www.w3.org/2000/svg"
   xmlns="http://www.w3.org/2000/svg"
   version="1.0"
   width="400"
   height="360"
   viewBox="0 0 170 151.0127"
   id="svg2456"
   xml:space="preserve"><defs
   id="defs2466" />
	
		<g
   transform="matrix(0.9306949,0,0,0.9306949,5.8909336,4.2078097)"
   id="Ebene_1">
			<g
   id="g2461">
				<path
   d="M 13.300293,9.199707 C 21.800293,1.5 33.899902,0.2998047 44.899902,0 C 86.600098,0 128.2998,0 170,0 C 168.40039,7.2998047 166.7998,14.699707 165.10059,22 C 156.7002,22 148.2002,22 139.7998,22 C 134.7998,45.199707 129.7002,68.5 124.7998,91.700195 C 123.2998,99.799805 121.40039,107.7998 121,115.99902 C 121,121.10059 122,127.60059 127.40039,129.60059 C 134.40039,132.2998 142,130.2998 149.10059,129.60059 C 147.7002,136.10059 146.2998,142.49902 144.90039,148.99902 C 133.60059,151.7002 121.2998,152.10059 110.40039,147.60059 C 102.7998,144.49902 97.5,137.10059 96.5,129.10059 C 95.100586,118.7002 97.200195,108.2998 98.900391,98.100586 C 103.7998,72.600098 109.59961,47.399902 115,22 C 99.799805,22 84.700195,22 69.5,22 C 60.600098,64.299805 51.600098,106.7002 42.700195,148.99902 C 34.300293,148.99902 25.899902,148.99902 17.600098,148.99902 C 26.600098,106.7002 35.600098,64.299805 44.600098,22 C 39.300293,22 33.5,21.5 29,25 C 24.200195,28.600098 22.800293,34.899902 21.899902,40.5 C 14.600098,40.5 7.300293,40.5 0,40.5 C 2.1000977,29.399902 4.8999023,17.399902 13.300293,9.199707 L 13.300293,9.199707 z "
   id="path2463" />
			</g>
		</g>
	</svg>