<?xml version="1.0"?>

<!DOCTYPE svg PUBLIC '-//W3C//DTD SVG 1.0//EN' 'http://www.w3.org/TR/2001/REC-SVG-20010904/DTD/svg10.dtd'>
<svg fill-opacity="1" xmlns:xlink="http://www.w3.org/1999/xlink" color-rendering="auto" color-interpolation="auto" text-rendering="auto" stroke="black" stroke-linecap="square" stroke-miterlimit="10" shape-rendering="auto" stroke-opacity="1" fill="black" stroke-dasharray="none" font-weight="normal" stroke-width="1" xmlns="http://www.w3.org/2000/svg" font-family="&apos;Dialog&apos;" font-style="normal" stroke-linejoin="miter" font-size="12" stroke-dashoffset="0" image-rendering="auto">
  <!--Unicode Character 'GREEK CAPITAL LETTER THETA' (U+0398)-->
  <defs id="genericDefs" />
  <g>
    <g>
      <path d="M112.3594 176.2031 Q155.6719 176.2031 183.2344 205.5938 Q210.7969 234.9844 210.7969 283.0781 Q210.7969 331.0312 183.0938 360.2109 Q155.3906 389.3906 112.3594 389.3906 Q67.7812 389.3906 40.6406 359.1562 Q13.5 328.9219 13.5 285.3281 Q13.5 234.5625 40.9922 205.3828 Q68.4844 176.2031 112.3594 176.2031 ZM112.0781 366.0469 Q143.4375 366.0469 162.9844 344.0391 Q182.5312 322.0312 182.5312 283.0781 Q182.5312 244.125 162.8438 221.8359 Q143.1562 199.5469 112.6406 199.5469 Q80.1562 199.5469 60.9609 222.0469 Q41.7656 244.5469 41.7656 285.8906 Q41.7656 322.0312 61.3828 344.0391 Q81 366.0469 112.0781 366.0469 ZM152.5781 295.1719 L71.4375 295.1719 L71.4375 270.7031 L152.5781 270.7031 L152.5781 295.1719 Z" stroke="none" />
    </g>
  </g>
</svg>
