<?xml version="1.0" encoding="utf-8"?>
<!-- Generator: Adobe Illustrator 19.0.0, SVG Export Plug-In . SVG Version: 6.00 Build 0)  -->
<svg version="1.1" xmlns="http://www.w3.org/2000/svg" xmlns:xlink="http://www.w3.org/1999/xlink" x="0px" y="0px"
	 viewBox="0 0 620 425" style="enable-background:new 0 0 620 425;" xml:space="preserve">
<style type="text/css">
	.st0{fill:#EC8355;}
	.st1{fill:#FECC81;}
	.st2{fill:#E0DFE6;}
	.st3{fill:#242526;}
	.st4{fill:none;}
</style>
<g id="Layer_2">
	<rect x="519.9" y="59.5" class="st0" width="13.5" height="16.4"/>
	<rect x="546.5" y="59.5" class="st0" width="14.5" height="14"/>
	<rect x="573.6" y="58.1" class="st0" width="10.5" height="10"/>
	<rect x="522.9" y="85.2" class="st0" width="11.4" height="10.9"/>
	<rect x="548.8" y="83.7" class="st0" width="7.2" height="12.7"/>
	<rect x="546.6" y="107.8" class="st0" width="15.8" height="8.6"/>
	<rect x="521.9" y="106.3" class="st0" width="9.3" height="14.1"/>
</g>
<g id="Layer_1">
	<path id="XMLID_19_" class="st1" d="M47.1,220c4.4,2.2,5.9,6.8,10.3,9.2c9.6,5,18.7-1.2,25.7-7.6c4.1-3.8,8.7-8.9,9.4-14.6
		c1.4-0.6,2.7-1.7,3.7-3.3c4.4-7,5.7-15.8-0.7-22.1c-4.9-4.8-12.8-6.2-19.4-5.7c-11.2,0.9-23,9-29.8,17.7c-0.2,0.2-0.3,0.5-0.5,0.7
		c0.2-4.1,3-6.2,6.3-8.7c0.8-0.6,0.5-1.8-0.5-1.9c-5.8-0.4-11.5,4.5-14.4,9.1c-3.8,5.9-3.2,13.8,0.6,19.6
		C40.1,216,43.5,218.1,47.1,220z M74.2,193.5c0.2-0.1,1.4-0.5,1.7-0.6c1.7-0.4,4.7-0.3,7,0.4c-0.1,0.1-0.1,0.2-0.2,0.4
		c-3.2-0.7-6.6-0.4-9.7,0.4C73.3,193.9,73.7,193.7,74.2,193.5z"/>
	<path id="XMLID_460_" class="st1" d="M498.2,340.4c-7.3,0.9-14.7,1-22,1.3c-25.5,1-37.4-0.6-48.5,2.7c-0.4,0.1-0.4,0.8,0,0.9
		c7,2.1,14.3,2.1,21.5,2.2c8.1,0.1,16.1,0.3,24.2,0.4c7.2,0,14.4,0,21.6-0.4c5.8-0.3,10.9-1,16.6,0.2c2,0.4,3.6-0.8,4.3-2.3
		c-0.1-0.7,0-1.2,0.3-1.6c-0.1-1-0.6-2-1.8-2.7C509.7,338.3,503.2,339.8,498.2,340.4z"/>
	<path id="XMLID_457_" class="st1" d="M575.5,102c0,1.2,0.5,2.1,1.2,2.6c0.7,3.5,1.9,6.6,3.5,8.9c0.9,1.3,3.1,2,4.3,0.6
		c6.6-7.8,7.4-20.2,2.4-29c-0.9-1.7-3.6-2.2-5-0.6c-0.7,0.8-1.3,1.6-1.8,2.5c-1,0.1-2.7,3.5-3.3,6c-1.1,0.9-1.3,1.9-1.2,3.1
		C575.4,95.9,575.5,101.8,575.5,102z M583.7,94.3c0.8,4.2,0.2,8.6-1.4,12.6c-0.4-0.9-0.8-1.8-1-2.7
		C583.1,102.4,582,100.2,583.7,94.3z"/>
	<path id="XMLID_17_" class="st2" d="M105.6,222.5c9.5-13.4,4.6-32-4.3-44.9c-0.9-1.2-3.2-0.5-2.6,1.1c4.3,12.7,8.1,29.2-3,39.5
		c-1.2,1.1-1.6,2.4-1.6,3.7c-6.1,6.1-8.5,16.6-12,23.9c-0.2,0.5-0.5,1-0.7,1.5c0.9-3,1.3-6.1,0.1-8.3c-1.5-2.7-5.6-3.3-7.7-1
		c-2.6,2.8-1.6,7.2-2.2,10.7c-0.2,1.4-0.6,3-1.3,4.3c-0.2,0.4-0.3,0.7-0.7,1c-0.3,0.2-0.6,0.2-0.9,0.3s-0.4,0.1-0.5,0.1
		c0.1,0,0.3-0.1,0.2-0.4c-0.1-0.6-1.1-0.6-1.2,0c0,0.2-0.1,0.5-0.1,0.7c-0.8,0.6-1,1.6-0.3,2.4c2.9,3.5,7.5,1.5,10.2-1.3
		c-0.7,1.1-1.4,2.2-2.2,3.2c-2.9,3.8-6,3.8-10,1.5c-1.5-0.9-3.7,1-2.6,2.6c3,4.3,7.7,7.8,13.2,6.5c6-1.4,10.3-6.2,13.8-11
		c3.9-5.4,6.5-11.5,9.3-17.5c2.1-4.4,3.8-9.5,6.7-13.5C106.3,226,106.3,224.1,105.6,222.5z"/>
	<path id="XMLID_13_" class="st2" d="M559.2,137.8c8.1,0.7,20.3,2.3,30.4,0.3c-0.1,2.1-0.6,4.9-0.7,6.1c-1,17.7-0.1,18.5,0.1,34.7
		c0.2,19.6-0.9,39.2-0.8,58.9c0.4,84.3,6.5,85.5,8,117.6c-0.9,8.6,12.9,8.8,13.6,0c0.7-10.1-1.4-20.5-3-30.4
		c-6.9-42-4.9-114.4-8.7-153.5c-0.5-5.2-3.9-30.7-4.7-32.9c0.5,0.2,1.1,0.3,1.7,0.3c9,0.2,15.8-9.4,19.3-16.6
		c4.8-10,4-20.7,3.3-31.5c-0.8-12.1-1.2-24.1-2.6-36.2c-1.3-11.8-2.5-24.2-6.4-35.5c-0.3-0.9-1.5-0.7-1.6,0.2
		c-1.1,14.4,0.9,25.4,0,63.1c-0.1,6,0.4,12.4,0.2,18.7c-0.5-14.6-0.3-41.3-2.9-70.9c-0.7-7.6-1.5-21.1-10.8-23.5
		c-1-0.3-1.6,0.9-1,1.6c6.7,7.6,4.7,19.4,4.3,28.7s-0.7,18.6-0.8,27.8c-0.6-1.7-3.2-2.9-4.8-1.2c-0.6,0.6-1.2,1.3-1.7,2
		c-1.3-1.2-3.4-1.2-4.8,0c-1.6,1.5-3.3,2.8-5.6,2.3c-2-0.4-3.7,2.6-1.5,3.6c1.2,0.6,2.5,0.9,3.8,0.9c-0.8,1.2,0.2,3.1,2,2.7
		c5.3-1.1,9.2-4,12.4-8.2c0.1-0.2,0.2-0.4,0.3-0.6c-0.1,10.4-0.2,21,0,34.7c-2.2,0-4.4,1.5-4.5,4.1c-0.1,2.9,0.3,5.1-2.5,6.5
		c-2.8,1.5-6,2.2-8.7,3.9c-1.3,0.7-0.6,2.5,0.7,2.6c4.5,0.3,9.2,1,13.4-0.9c0.2-0.1,0.4-0.2,0.6-0.3c-1.9,1.4-6,1.9-8.2,2.4
		c-4,1-4.8,4.6-3.4,7.4c-1.6,0.3-3.2,0.5-4.9,0.5c-6.4,0.2-12.9-0.3-19.3-0.4c-12.9-0.1-27,3.8-39.6-0.2c-1.6-0.5-2.9,1.7-1.6,2.8
		C529,139.6,545.7,136.6,559.2,137.8z"/>
	<path id="XMLID_513_" class="st2" d="M231.2,390.8c-2.6,0.7-5.2,1.6-7.8,2.6c2.3-0.5,4.5-1.2,6.7-1.9
		C230.4,391.3,230.8,391,231.2,390.8z"/>
	<path id="XMLID_640_" class="st2" d="M604.7,380.1c-0.9-3.6-1.3-7-1.6-11c-0.1-1.9,0.1-9.3-3.5-8.3c-3.3,0.9-3.8,8.8-4.2,11.4
		c-0.5,2.7-1.1,5.9-1.1,9.1c-7.9,2-16.2,1.9-24.2,2.5c-18.4,1.3-29.6,0.8-37.5,0.4c10.9-0.8,21.7-2,32.6-2.6c14.5-0.8,17,2.7,22.8,0
		c6.4-2.9,1.8-14.1-4.8-11.4c1.2-0.5-0.1-0.1-1.1-0.2c-6.4-1.1-8.8-1.5-16.8-1l-95.8,7.1c-47.5,3.8-58.3,7.3-128.4,4.6
		c-11.4-0.4-23-0.1-34.4,0.1c-9.3,0.2-18.8,1.8-28.1,1.6c-1.7,1-3.4,1.9-5.1,2.7c8.6,2,17.2,2.4,26.1,3c4.5,0.3,9,0.6,13.5,1
		c-10.9-0.1-21.7,0.3-32.6,0.9c-6.4,0.3-12.8,0.8-19.2,1.5c-1.3,0.1-2.6,0.3-3.9,0.5c0.4-0.2,0.9-0.4,1.3-0.6c-3,1-5.9,2.2-8.9,3.3
		c0.6,2.6-0.1,5.1,3.3,6.8c4,2,11.5,0.5,15.8,0.6c12.2,0.2,24.4-0.1,36.6,0c25.1,0.2,50.1,2.3,75.2,2.5c24.9,0.1,49.7,0,74.4-2.8
		c75.4-8.7,72.9-1.8,115-4.5c11.6-0.8,24.1,0.1,34.3-6.5C608.2,388.3,607.7,382.4,604.7,380.1z"/>
	<path id="XMLID_642_" class="st2" d="M149.1,422.8c-0.2,1.5-0.4,2.9-0.6,4.4c0.8-2.2,1.5-4.4,2-6.6
		C150,421.4,149.6,422.1,149.1,422.8z"/>
	<path id="XMLID_3_" class="st2" d="M172.6,68.9c-0.8-2.2-1.6-3.3,0.7-4c2.5-0.8,13.8,1.3,22.9,1.9c20.6,1.3,41.3,0.4,62,1.2
		c20.2,0.8,40.1,1.4,60.4-0.6c20.2-2,40.2-7.2,60.6-7.5c5.4-0.1,5.4-8.4,0-8.4c-17.4,0.1-34.5,4.4-51.8,5.2
		c-17.8,0.7-35.8,0.3-53.6-0.2c-18-0.6-35.9-0.9-53.9-0.7c-9.2,0.1-18.4,0.3-27.6,0.1c-4.1-0.1-8.1-0.5-12.2-0.2
		c-4.1,0.3-8.9,0.9-11.6,4.3c-2.7,3.4-0.4,7.2,2,10.1C171.2,71.2,173,70.1,172.6,68.9z"/>
	<path id="XMLID_1_" class="st2" d="M388.7,56.7c9.4-0.2,18.7,0.4,28.2,0.8c8.6,0.3,17.3-0.1,25.9,0.4c9,0.5,17.8,2.1,26.8,2.9
		c9.8,0.8,19.8,1.3,29.8,1.2c8.3-0.1,8.3-12.8,0-12.9c-19.2-0.3-38.4,1.3-57.5,2.3c-8.9,0.5-17.9,1.2-26.9,1.4
		c-8.8,0.3-17.9,0.3-26.4,2.8C387.9,55.7,388,56.8,388.7,56.7z"/>
	<path id="XMLID_496_" class="st2" d="M224.4,261.5c0.4,0.2,0.9,0.5,1.4,0.7c0.1,0.1,0.2,0.2,0.3,0.3c6.4,4.6,13.5,6.4,20.5,6
		c9,0.8,18.2-0.7,26.8-4.9c6.5-3.2,12.7-7.3,18-12.2c3.9-3.7,8.7-8.9,9.5-14.6c9-8.6-3.1-24.8-8.7-32.4
		c-12.9-17.6-23.9-36.3-38.1-53c-1.2-1.4-3.4,0.4-2.5,2c7,12.5,13.8,25.2,20.7,37.8c-0.7-1.2-1.4-2.4-2.1-3.6
		c-4-7.1-8.2-14.1-12.9-20.8c-4.5-6.3-10.1-11.5-12.8-18.8c-0.5-1.4-2.6-1.2-2.6,0.4c-0.2,6.4,3.5,12.8,6.1,18.4
		c3.8,8,7.3,16.1,11,24.1c5.8,12.5,12.6,24.5,18.7,36.8c-0.3,0.2-0.6,0.4-0.9,0.7c-9.1,9.4-15.8,21-29.6,24.1
		c-14.9,3.3-29.5-5.3-40.7-14.3c-0.9-0.7-2.1,0.4-1.3,1.3c9.1,10.7,21.1,20.3,35.2,21.6c-5.2-0.3-10.4-1.1-15.6-1.2
		C224,259.8,223.6,261,224.4,261.5z M274,247.5c0.1-0.1,0.2-0.1,0.4-0.2c3.4-2,6.7-5.1,8.7-8.8c0.5,0.8,1.1,1.4,1.7,1.8
		c-4.6,5.8-11,10.3-17.4,14.1c-1,0.6-2,1.1-2.9,1.6c-0.6-0.2-1.2-0.3-1.9-0.1C266.7,253.7,270.5,250.8,274,247.5z M259.8,257.4
		c-1.1,0.6-2.2,1.3-3.4,1.9c-2.6,0.8-5.3,1.3-8.1,1.6c-0.1,0-0.3,0-0.4,0C252,260.5,256,259.2,259.8,257.4z"/>
	<path id="XMLID_500_" class="st2" d="M516.8,347.2c0.2,1.2,1,2.5,2.1,3.8c-4.8,0.7-4.5,2.7-16.7,3.4c-6.3,0.4-12.7,0.5-19,0.9
		c-15.5,1-30.9,3.3-46.4,4.4c-1.7,0.1-1.7,2.5,0,2.6c16.8,1.1,33.6,1.3,50.4,2.1c9.5,0.5,28.5,2.9,36.2-4c0.4,0.3,0.8,0.5,1.3,0.7
		c3.4,1.2,6.9,2.5,10.3,3.6c6.6,3.2,12.4-7.1,5.7-11.1c-2-1.2-4.2-2-6.5-2.4c-2.4-1.2-4.8-2.3-7.2-3.5c-1.8-0.9-8.2-5.1-9.8-2.1
		c-0.1,0.1-0.1,0.3-0.2,0.4C516.7,346.4,516.7,346.8,516.8,347.2z"/>
	<path id="XMLID_481_" class="st3" d="M45,226.9c3.7,3.6,6.9,6.8,7.7,9.8c0.7,3,1.1,6,1.6,9.1c0.2,1.1,0.3,2.2,0.5,3.4
		c-0.1-0.8,0.5-1.6,1.3-1.7c0.5-0.1,1-0.1,1.5-0.2c-0.1-0.6-0.2-1.3-0.3-1.9c-0.3-2.2-0.6-4.4-1.1-6.6c-0.6,0-1.1,0.1-1.7,0.1h-0.1
		c-0.8,0-1.4-0.6-1.5-1.4c-0.1-0.8,0.6-1.5,1.4-1.6c0.4,0,0.9-0.1,1.3-0.1c-1-3.9-4.5-7.2-8.5-11.1c-6.5-6.3-14.6-14.2-14.6-27.3
		c0-10.4,10.5-29.8,35.6-29.8c21,0,34,16.2,34,31.2c0,12.6-5.6,19.5-11.1,26.3c-2.8,3.5-5.5,6.8-7.2,10.7c0.4,0,0.7,0,1.1,0.1
		c0.8,0,1.5,0.8,1.4,1.6c0,0.8-0.8,1.5-1.6,1.4c-0.7,0-1.3-0.1-2-0.1c-0.5,1.8-0.8,3.7-0.8,5.8c0,0.7,0,1.4,0,2.1c0,0.1,0,0.2,0,0.4
		c0.5,0,1,0,1.6,0c0.8,0,1.5,0.7,1.5,1.5c0-0.7,0-1.3,0-2s0-1.4,0-2.1c0-7.2,3.9-12,8.4-17.6c5.5-6.8,11.7-14.5,11.7-28.1
		c0-8-3.6-16.6-9.5-22.9c-4.9-5.1-13.6-11.3-27.4-11.3c-25.2,0-38.6,19.1-38.6,32.8C29.5,211.8,38.1,220.1,45,226.9z"/>
	<path id="XMLID_480_" class="st3" d="M83.5,250c-0.5,0-1,0-1.5,0c0,0.9-0.1,1.7-0.1,2.5c0.4-0.1,0.7-0.1,1.1-0.2
		c0.8-0.1,1.6,0.4,1.7,1.2s-0.4,1.6-1.2,1.7c-0.7,0.1-1.5,0.3-2.2,0.4c-1.2,4.4-4.2,6.6-11.3,6.6c-3.9,0-6.6-0.5-8.2-1.7
		c-0.7,0.3-1.4,0.5-2.2,0.8c-0.2,0.1-0.4,0.1-0.5,0.1c-0.6,0-1.2-0.4-1.4-1c-0.3-0.8,0.1-1.6,0.9-1.9c0.4-0.2,0.9-0.3,1.3-0.5
		c-0.8-2.6-1.4-5.2-1.9-7.8c-0.5,0.1-1,0.1-1.5,0.2c-0.1,0-0.1,0-0.2,0c-0.7,0-1.4-0.6-1.5-1.3c0.5,3.3,1.2,6.7,2.3,10
		c1.8,5.5,8.3,6.1,13,6.1c13.8,0,15-8.5,15-16.5c0-0.1,0-0.1,0-0.2C85,249.4,84.3,250.1,83.5,250z"/>
	<path id="XMLID_479_" class="st3" d="M73.1,203.5c1.2-3,2-4.5,3.6-4.5c1.4,0,1.8,0.9,2.3,3.8c0.4,2.2,0.9,5.5,4.3,5.5
		c1.7,0,3.2-1.2,4.6-2.3c0.7-0.5,1.3-1.1,2-1.4c0.7-0.4,1-1.3,0.6-2s-1.3-1-2-0.6c-0.8,0.5-1.6,1.1-2.3,1.7
		c-0.9,0.7-2.1,1.7-2.7,1.7c-0.7,0-0.9-0.4-1.4-3c-0.4-2.5-1.1-6.3-5.3-6.3c-3.8,0-5.2,3.5-6.3,6.3c-1.2,3-2.1,4.8-4.1,4.8
		c-1.7,0-2.3-1.4-3.1-4.7c-0.6-2.5-1.4-5.6-4.4-5.6c-10.9,0-15.2,14-11,14c0.8,0,1.5-0.7,1.5-1.5c0-5,4.5-9.5,9.5-9.5
		c0.6,0,1.1,1.9,1.5,3.4c0.7,3,1.7,7,6,7C70.3,210.2,71.9,206.4,73.1,203.5z"/>
	<path id="XMLID_478_" class="st3" d="M21.4,219.8c-1.1,1-2.3,1.9-3.4,2.7c-4.3,3.3-8.3,6.7-6.2,8.2c0.7,0.5,1.6,0.3,2.1-0.3
		c2.5-3.4,6.1-5.4,9.5-8.4c0.6-0.6,0.7-1.5,0.1-2.1C23,219.3,22,219.3,21.4,219.8z"/>
	<path id="XMLID_472_" class="st3" d="M3.4,203.1c2,0,3.9,0.1,5.8,0.2c1.9,0.1,3.9,0.2,5.9,0.2c0.8,0,1.5-0.7,1.5-1.5
		s-0.7-1.5-1.5-1.5c-2,0-3.9-0.1-5.8-0.2c-1.9-0.1-3.9-0.2-5.9-0.2c-0.8,0-1.5,0.7-1.5,1.5S2.6,203.1,3.4,203.1z"/>
	<path id="XMLID_471_" class="st3" d="M23.1,175.5c1.6,0,2.1-2.1,0.7-2.8c-3.3-1.6-5.9-4.1-7.3-7c-0.4-0.7-1.3-1-2-0.7
		c-0.7,0.4-1,1.3-0.7,2C16.3,172.1,21.9,175.5,23.1,175.5z"/>
	<path id="XMLID_470_" class="st3" d="M46.9,157.8c0.1,0.8,0.8,1.4,1.7,1.3c0.8-0.1,1.4-0.9,1.3-1.7c-0.2-1.4-0.5-2.8-0.9-4.2
		c-0.3-1.3-0.6-2.6-0.8-3.8c-0.1-0.8-0.9-1.4-1.7-1.3c-0.8,0.1-1.4,0.9-1.3,1.7C45.6,152.6,46.6,155.3,46.9,157.8z"/>
	<path id="XMLID_469_" class="st3" d="M84.4,157.8c0.1,0,0.1,0,0.2,0c0.8-0.1,1.4-0.9,1.3-1.7c0-0.3-0.1-0.6-0.1-0.9
		c0-1,0.2-1.9,0.3-3c0.2-1.1,0.4-2.3,0.4-3.6c0-0.8-0.7-1.5-1.5-1.5s-1.5,0.7-1.5,1.5c0,1-0.2,2-0.4,3.1c-0.2,1.1-0.4,2.2-0.4,3.5
		c0,0.5,0,0.9,0.1,1.3C83,157.2,83.7,157.8,84.4,157.8z"/>
	<path id="XMLID_24_" class="st3" d="M105.8,173.5c0.3,0,0.5-0.1,0.8-0.2c1.1-0.7,2.1-1.5,3-2.3c1.4-1.2,2.7-2.3,4.3-2.8
		c0.8-0.3,1.2-1.1,0.9-1.9c-0.3-0.8-1.1-1.2-1.9-0.9c-2.1,0.7-3.7,2.1-5.3,3.4c-0.9,0.8-1.8,1.5-2.7,2.1c-0.7,0.4-0.9,1.4-0.5,2.1
		C104.8,173.2,105.3,173.5,105.8,173.5z"/>
	<path id="XMLID_23_" class="st3" d="M117,196.9c2.2,1.2,4.3,1.2,6.3,1.2c1.1,0,2.1,0,3.1,0.2c0.1,0,0.2,0,0.3,0
		c0.7,0,1.3-0.5,1.5-1.2c0.2-0.8-0.3-1.6-1.1-1.8c-1.3-0.3-2.6-0.3-3.8-0.3c-1.8,0-3.3,0-4.8-0.9c-0.7-0.4-1.6-0.1-2,0.6
		C116,195.6,116.3,196.5,117,196.9z"/>
	<path id="XMLID_22_" class="st3" d="M121.7,234c1,0.6,1.9,1.3,2.9,1.9c0.3,0.2,0.6,0.3,0.9,0.3c0.5,0,0.9-0.2,1.2-0.6
		c0.5-0.7,0.3-1.6-0.4-2.1c-1-0.7-2-1.3-3-2c-3.3-2.2-6.5-4.2-8.7-7.3c-0.5-0.7-1.4-0.9-2.1-0.4s-0.9,1.4-0.4,2.1
		C114.7,229.4,118.2,231.7,121.7,234z"/>
	<path id="XMLID_21_" class="st3" d="M58.6,258.6c-0.8,0.3-1.2,1.2-0.9,1.9c0.2,0.6,0.8,1,1.4,1c0.2,0,0.4,0,0.5-0.1
		c0.7-0.3,1.4-0.5,2.2-0.8c6.5-2.3,13.1-3.8,19.5-5c0.7-0.1,1.5-0.3,2.2-0.4c0.8-0.1,1.4-0.9,1.2-1.7c-0.1-0.8-0.9-1.4-1.7-1.2
		c-0.4,0.1-0.7,0.1-1.1,0.2c-7.1,1.3-14.6,2.9-22,5.6C59.4,258.3,59,258.4,58.6,258.6z"/>
	<path id="XMLID_20_" class="st3" d="M83.5,247c-0.5,0-1,0-1.6,0s-1.3,0-1.9-0.1c-3.4-0.1-6.8-0.2-10.3-0.2c-4.7,0-8.6,0.2-12.3,0.6
		c-0.5,0.1-1,0.1-1.5,0.2c-0.8,0.1-1.4,0.9-1.3,1.7c0.1,0.8,0.7,1.3,1.5,1.3c0.1,0,0.1,0,0.2,0c0.5-0.1,1-0.1,1.5-0.2
		c3.5-0.4,7.3-0.5,11.8-0.5c3.4,0,6.8,0.1,10.2,0.2c0.7,0,1.3,0,2,0.1c0.5,0,1,0,1.5,0c0.9,0,1.5-0.6,1.5-1.5
		C85,247.7,84.4,247.1,83.5,247z"/>
	<path id="XMLID_15_" class="st3" d="M82.7,238.7c0.7,0,1.3,0.1,2,0.1c0.8,0.1,1.5-0.6,1.6-1.4c0-0.8-0.6-1.5-1.4-1.6
		c-0.4,0-0.7,0-1.1-0.1c-4.9-0.2-9.4-0.4-13.9-0.4c-4.9,0-9.7,0.2-14.4,0.5c-0.4,0-0.9,0-1.3,0.1c-0.8,0.1-1.4,0.8-1.4,1.6
		c0.1,0.8,0.7,1.4,1.5,1.4h0.1c0.6,0,1.1-0.1,1.7-0.1c4.4-0.3,9-0.4,13.7-0.4C74.1,238.4,78.3,238.5,82.7,238.7z"/>
	<path id="XMLID_43_" class="st3" d="M183,256.5v-0.1C183,256.4,183,256.4,183,256.5z"/>
	<path id="XMLID_42_" class="st3" d="M182.9,256.8v-0.1C182.9,256.7,182.9,256.7,182.9,256.8z"/>
	<path id="XMLID_30_" class="st3" d="M183.9,255.5c0.1,0,0.1,0,0.2,0C184,255.5,184,255.5,183.9,255.5z"/>
	<path id="XMLID_28_" class="st3" d="M183.1,256.2c0,0,0-0.1,0.1-0.1C183.1,256.1,183.1,256.2,183.1,256.2z"/>
	<path id="XMLID_27_" class="st3" d="M183.7,255.6l0.1-0.1C183.8,255.6,183.7,255.6,183.7,255.6z"/>
	<path id="XMLID_26_" class="st3" d="M183.2,256l0.1-0.1C183.3,255.9,183.3,255.9,183.2,256z"/>
	<path id="XMLID_9_" class="st3" d="M183.4,255.8l0.1-0.1C183.5,255.7,183.5,255.7,183.4,255.8z"/>
	<path id="XMLID_639_" class="st3" d="M165.8,117.4c-0.1,1.1-0.2,2.1-0.3,3"/>
	<path id="XMLID_10_" class="st3" d="M133,133.6"/>
	<path id="XMLID_631_" class="st3" d="M75.5,403.8"/>
	<path id="XMLID_628_" class="st3" d="M165.4,310.3c0,2,3,2,3,0c0-6.6,0.1-10.2,0.1-15.4c0-2-3-2-3,0c0,4.3-0.1,9.5-0.1,13.7V310.3z
		"/>
	<path id="XMLID_89_" class="st3" d="M233.3,34.8c-9.3,0.1-18.8,0.4-28.1,0.6c-12.6,0.3-25.7,0.6-38.5,0.7c0.2,1,0,2.1-0.4,3
		c13-0.1,26.1-0.4,38.9-0.7c9.2-0.2,18.7-0.5,28-0.6c0.8,0,1.5-0.7,1.5-1.5C234.8,35.4,234.1,34.8,233.3,34.8z"/>
	<path id="XMLID_626_" class="st3" d="M173,52.1c-0.8,0-1.5,0.7-1.4,1.6c0,0.8,0.7,1.5,1.6,1.4c0.8,0,1.6-0.1,2.3-0.1
		c0.5,0,45.3,2.3,64.7,2.3c15.2,0,21.5-0.8,27.5-1.6c5.3-0.7,10.3-1.4,21.1-1.4c3.7,0,7.5,0.1,11.1,0.1c3.6,0.1,7.4,0.1,11.1,0.1
		c7.9,0,14.1-0.2,19.9-0.8c9.8-0.9,19.7-1.1,29.3-1.2c5.7-0.1,11.5-0.2,17.3-0.4c0.8,0,1.5-0.7,1.4-1.6c0-0.8-0.8-1.5-1.6-1.4
		c-5.8,0.2-11.6,0.3-17.2,0.4c-9.6,0.2-19.6,0.3-29.5,1.2c-5.7,0.5-11.7,0.8-19.6,0.8c-3.7,0-7.5-0.1-11.1-0.1
		c-3.6-0.1-7.4-0.1-11.1-0.1c-11,0-16.1,0.7-21.5,1.4c-6,0.8-12.2,1.6-27.2,1.6c-19.3,0-64.1-2.3-64.6-2.3
		C174.6,52.1,173.8,52.1,173,52.1z"/>
	<path id="XMLID_465_" class="st3" d="M484.3,49.8c-3.2,0-6.5,0.1-9.7,0.1c-8.4,0-16.9-0.1-25.1-0.2c-8.2-0.1-16.7-0.2-25.1-0.2
		c-7.2,0-13.6,0.1-19.6,0.3c0.8,0.7,1.3,1.7,1.3,3c5.6-0.1,11.6-0.2,18.3-0.2c8.4,0,16.8,0.1,25.1,0.2c8.2,0.1,16.8,0.2,25.2,0.2
		c3.3,0,6.5,0,9.8-0.1c0.8,0,1.5-0.7,1.5-1.5C485.9,50.4,485.2,49.8,484.3,49.8z"/>
	<path id="XMLID_16_" class="st3" d="M489.9,30.1c-1.8-0.3-3.8-0.4-6.1-0.4c-1.4,0.1-143.4,5.3-180.4,5.3c-14,0-27-0.3-39.5-0.8
		c0.1,0.9,0,1.9-0.3,2.8c0,0.1,0.1,0.1,0.1,0.2c12.6,0.5,25.7,0.8,39.7,0.8c37,0,179.1-5.2,180.5-5.3c2.1,0,3.9,0.1,5.6,0.4
		c0.8,0.1,1.6-0.5,1.7-1.3C491.3,31,490.7,30.2,489.9,30.1z"/>
	<path id="XMLID_621_" class="st3" d="M199.6,284.1c2.8,0,5.1-1.9,5.6-3.8c0.6-2.3-1.2-4.5-3.2-5.2c-1.8-0.6-3.7-0.3-5.1,0
		c-0.7,0.1-1.2,0.7-1.2,1.4C193.3,279.2,194.9,284.1,199.6,284.1z M199.3,277.7c0.7,0,0.8,0.4,1.7,0.1h0.1c0.8,0.3,1.4,1,1.2,1.6
		c-0.1,0.2-0.2,0.5-0.5,0.8c-1.1,1-3.2,1.2-3.9,0.1C197.2,279.3,197.8,277.7,199.3,277.7z"/>
	<path id="XMLID_620_" class="st3" d="M216.2,283.3c-0.2-0.8-1-1.3-1.8-1.1c-7.7,1.9-15.3,4.5-22.6,7.7c-1.8,0.8-0.6,3.5,1.2,2.7
		c7.1-3.2,14.5-5.7,22.1-7.5C215.9,284.9,216.3,284.1,216.2,283.3z"/>
	<path id="XMLID_617_" class="st3" d="M202.2,302c1.6,0.3,3.2,0,4.4-0.9c3.6-2.4,2.5-6.9-0.4-8.7c-2.5-1.5-8-1.4-7.3,1.2
		c0.1,0.3,0.2,0.5,0.4,0.7C197.1,297.1,198.3,301.2,202.2,302z M202.4,295.8c0.7,0,1.3-0.5,1.4-1.2c1.7,0.5,2.4,2.1,2,3
		c-0.7,1.7-3.5,2-4.4,0.6C200.9,297.4,201.5,295.9,202.4,295.8z"/>
	<path id="XMLID_616_" class="st3" d="M228.4,99.9c1.1-1.8,3.2-3,5.3-3c2.1,0.1,4.2,1.3,5.2,3.2c0.4,0.7,1.3,1,2,0.6s1-1.3,0.6-2
		c-1.5-2.9-4.6-4.7-7.8-4.8c-3.2-0.1-6.4,1.7-8,4.4c-0.8,1.4-1.3,3-1.4,4.8c-0.2,3.2,0.9,5.9,3,7.2c1.3,0.8,2.8,1,4,1.2h0.2
		c4.1,0.6,6.6,1.7,8,3.7c0.9,1.2,1.2,2.8,0.9,4.5c-0.3,1.8-1.4,3.4-2.7,4.4c-2.3,1.5-5.5,1.5-8,0.1c0-0.7-0.6-1.4-1.3-1.4l-1.1-0.1
		c-0.6-0.1-1.3,0.3-1.5,0.9c-0.3,0.6-0.1,1.3,0.3,1.7c2.1,2,4.9,3,7.7,3c2,0,4-0.5,5.7-1.7c2.1-1.4,3.5-3.7,4-6.3
		c0.5-2.5,0-4.9-1.4-6.8c-2.5-3.5-6.9-4.5-10-4.9h-0.3c-1.1-0.1-2.1-0.3-2.8-0.8c-1.4-0.9-1.7-2.9-1.6-4.5
		C227.5,102,227.8,100.9,228.4,99.9z"/>
	<path id="XMLID_615_" class="st3" d="M251.9,110.1c-0.8-0.1-1.5,0.6-1.6,1.4c-0.3,4.2-0.4,8.5-0.4,12.7c0,0.8,0.7,1.5,1.5,1.5
		s1.5-0.7,1.5-1.5v-0.9c0-0.1,0-0.2,0-0.2c0-3.8,0.1-7.6,0.4-11.3C253.3,110.9,252.7,110.2,251.9,110.1z"/>
	<path id="XMLID_612_" class="st3" d="M253.2,95.1c-0.8-0.9-2-1.3-3.3-0.9c-0.8,0.2-1.4,0.7-1.8,1.3c-0.7,0.4-1.1,1.2-1.3,2
		c-0.2,1,0.2,2,0.9,2.7c0.6,0.6,1.5,1,2.5,1c0.7,0,1.5-0.2,2.2-0.7c0.9-0.6,1.5-1.6,1.6-2.7C254.1,96.7,253.8,95.8,253.2,95.1z
		 M250.6,98c-0.3,0.2-0.7,0.2-0.8,0.1c0.4-0.2,0.7-0.6,0.8-1c0.1,0,0.2,0,0.3,0c0.1,0.1,0.1,0.2,0.1,0.4
		C250.9,97.6,250.8,97.9,250.6,98z"/>
	<path id="XMLID_611_" class="st3" d="M299.3,156.7c-0.3,4.4-2.9,9.4-7.5,10.5c-0.1,0-0.2,0-0.3,0c0-0.4-0.2-0.9-0.5-1.2
		c-0.6-0.5-1.6-0.5-2.1,0.1c-0.6,0.7-0.7,1.7-0.2,2.5c0.6,0.9,1.8,1.5,3,1.5c0.3,0,0.5,0,0.8-0.1c6-1.4,9.5-7.7,9.8-13.2
		c0.2-4-0.8-7.9-2-11.5c-1,0.1-2.1,0.2-3.1,0.3C298.5,149.1,299.6,153,299.3,156.7z"/>
	<path id="XMLID_610_" class="st3" d="M298.6,141c-1.9-4.7-3.9-9.6-3.7-14.5c0.1-5.9,3.6-11.7,8.7-14.7c0.4,0.5,1.1,0.7,1.7,0.4
		c0.7-0.3,1.1-1,1.1-1.8c0-0.9-0.6-1.6-1.4-1.9c-1-0.4-2,0.1-2.4,0.3c-6.4,3.4-10.7,10.3-10.9,17.6c-0.1,5.5,1.9,10.7,4,15.7
		c0.1,0.2,0.2,0.4,0.2,0.6c1-0.1,2.1-0.2,3.1-0.3C299,142,298.8,141.5,298.6,141z"/>
	<path id="XMLID_609_" class="st3" d="M309.2,142.8c-0.1-0.8-0.9-1.4-1.7-1.3c-2.7,0.4-5.5,0.7-8.3,0.9c-1,0.1-2.1,0.2-3.1,0.3
		c-3.2,0.2-6.5,0.4-9.7,0.4c-0.8,0-1.5,0.7-1.5,1.5s0.7,1.5,1.5,1.5c3.6,0,7.2-0.2,10.9-0.4c1-0.1,2.1-0.2,3.1-0.3
		c2.5-0.2,5.1-0.5,7.6-0.9C308.7,144.4,309.3,143.7,309.2,142.8z"/>
	<path id="XMLID_608_" class="st3" d="M323.3,116c0.5-0.7,0.4-1.6-0.3-2.1c-0.7-0.5-1.6-0.4-2.1,0.3c-5.8,7.6-9.1,17.9-9.9,31.5
		c-0.9,14,1.6,24.2,7.7,31.2c0.3,0.3,0.7,0.5,1.1,0.5s0.7-0.1,1-0.4c0.6-0.5,0.7-1.5,0.1-2.1c-5.5-6.3-7.8-15.8-7-29
		C314.8,132.9,317.9,123.1,323.3,116z"/>
	<path id="XMLID_607_" class="st3" d="M328.4,158.3c0.2,0.1,0.4,0.1,0.6,0.1c0.6,0,1.1-0.3,1.4-0.9l3.3-7c-0.7-0.9-1.4-1.7-2.1-2.7
		l-4,8.3C327.4,157.1,327.7,158,328.4,158.3z"/>
	<path id="XMLID_606_" class="st3" d="M342.6,132.2c0.4-0.7,0-1.6-0.7-2s-1.6,0-2,0.7l-6.7,13.9c0.6,1,1.3,1.9,2,2.8L342.6,132.2z"
		/>
	<path id="XMLID_605_" class="st3" d="M341.4,157.7c0.3,0.2,0.6,0.3,0.9,0.3c0.5,0,0.9-0.2,1.2-0.6c0.5-0.7,0.3-1.6-0.4-2.1
		c-3-2.1-5.7-4.7-7.9-7.6c-0.7-0.9-1.4-1.8-2-2.8c-1.7-2.6-3-5.4-4-8.3c-0.3-0.8-1.1-1.2-1.9-1c-0.8,0.3-1.2,1.1-1,1.9
		c1.2,3.7,3,7.3,5.3,10.5c0.6,0.9,1.3,1.8,2.1,2.7C336,153.3,338.6,155.7,341.4,157.7z"/>
	<path id="XMLID_604_" class="st3" d="M349.3,178.6c0.2,0.1,0.5,0.2,0.7,0.2c0.5,0,1-0.3,1.3-0.8c4.8-8.7,7-19.3,6.5-31.6
		c-0.4-10.8-2.8-21.4-5.1-31.7c-0.2-0.8-1-1.3-1.8-1.1c-0.8,0.2-1.3,1-1.1,1.8c2.3,10.1,4.6,20.6,5.1,31.1c0.5,11.7-1.6,21.8-6.2,30
		C348.3,177.3,348.5,178.2,349.3,178.6z"/>
	<path id="XMLID_603_" class="st3" d="M374.7,132.2c1.8,0,3.6,0,5.4-0.1c0.8,0,1.5-0.7,1.4-1.6c0-0.8-0.7-1.5-1.6-1.4
		c-4.5,0.2-9.1,0.1-13.5-0.1c-0.8,0-1.5,0.6-1.6,1.4c0,0.8,0.6,1.5,1.4,1.6C369.1,132.1,371.9,132.2,374.7,132.2z"/>
	<path id="XMLID_602_" class="st3" d="M366.7,143.2L366.7,143.2l13.9-0.7c1.7-0.1,3.6-0.2,5.5-0.9c0.8-0.3,1.1-1.2,0.8-2
		c-0.3-0.8-1.2-1.1-2-0.8c-1.3,0.6-2.9,0.6-4.5,0.7l-13.8,0.7c-0.8,0-1.5,0.8-1.4,1.6C365.2,142.5,365.9,143.2,366.7,143.2z"/>
	<path id="XMLID_601_" class="st3" d="M387.2,163.9c0.3,0.4,0.7,0.7,1.2,0.7c2.8,0.1,5.5,0,8.2-0.1c2-0.1,4-0.1,6-0.1
		c3.4,0,7.9,0.2,12.3,1.4c0.1,0,0.3,0.1,0.4,0.1c0.7,0,1.3-0.4,1.4-1.1c0.2-0.8-0.2-1.6-1-1.8c-4.8-1.3-9.5-1.5-13.1-1.5
		c-2,0-4.1,0.1-6.1,0.1c-1.9,0.1-3.8,0.1-5.8,0.1c4.9-10.2,11.9-19.2,20-29.1c0.3-0.3,0.4-0.8,0.3-1.2s-0.3-0.8-0.7-1
		c-6.6-4.3-14-9.6-19.6-16.5c6.1-0.1,12.4-0.3,18.8-1.1c0.8-0.1,1.4-0.9,1.3-1.7c-0.1-0.8-0.9-1.4-1.7-1.3
		c-7.3,0.9-14.6,1.1-21.5,1.1c-0.6,0-1.1,0.3-1.3,0.8c-0.3,0.5-0.2,1.1,0.1,1.6c5.6,8,13.5,14,20.8,18.8
		c-8.3,10.2-15.5,19.6-20.3,30.6C386.9,162.9,386.9,163.4,387.2,163.9z"/>
	<path id="XMLID_600_" class="st3" d="M438.5,126.9c0,0.7-0.7,5.9-3.2,5.9c-1.1,0-1.4-0.5-2-1.5c-0.1-0.2-0.2-0.4-0.3-0.5
		c-0.5-0.7-1.4-0.9-2.1-0.4s-0.9,1.4-0.4,2.1c0.1,0.1,0.2,0.3,0.3,0.4c0.6,1,1.8,3,4.6,3c5.1,0,6.2-7.1,6.2-8.9
		c0-4.3-0.9-8.8-1.7-13.2c-1,0.1-2,0.2-3,0.3C437.7,118.6,438.5,122.8,438.5,126.9z"/>
	<path id="XMLID_599_" class="st3" d="M445.1,84.7c0.8-0.2,1.3-1,1.1-1.8c-0.2-0.8-1-1.3-1.8-1.1c-6.5,1.6-9.5,10.3-9.5,17.7
		c0,3.8,0.6,7.7,1.4,11.6c1-0.1,2-0.2,3-0.3c-0.7-3.8-1.4-7.6-1.4-11.3C437.8,94.3,439.8,86.1,445.1,84.7z"/>
	<path id="XMLID_598_" class="st3" d="M428.4,111.4c-0.8,0-1.5,0.7-1.5,1.5s0.7,1.5,1.5,1.5c3,0,5.8-0.1,8.4-0.3c1-0.1,2-0.2,3-0.3
		c1.5-0.2,3-0.4,4.5-0.7c0.8-0.2,1.4-0.9,1.2-1.8c-0.2-0.8-0.9-1.4-1.8-1.2c-1.5,0.3-3,0.5-4.5,0.7c-1,0.1-2,0.2-3,0.3
		C433.8,111.3,431.2,111.4,428.4,111.4z"/>
	<path id="XMLID_597_" class="st3" d="M465.1,84.3c0.2-0.8-0.3-1.6-1.1-1.8c-0.8-0.2-1.6,0.3-1.8,1.1c-0.3,1.2-0.6,2.3-0.9,3.5
		c-2.5,9.6-5.1,19.6-5.1,29.5c0,7.9,1.7,14.7,5.1,20.8c0.3,0.5,0.8,0.8,1.3,0.8c0.3,0,0.5-0.1,0.7-0.2c0.7-0.4,1-1.3,0.6-2
		c-3.2-5.6-4.7-11.9-4.7-19.3c0-9.5,2.5-19.3,5-28.8C464.5,86.6,464.9,85.5,465.1,84.3z"/>
	<path id="XMLID_596_" class="st3" d="M477,128.4L477,128.4c0.9,0,1.5-0.6,1.6-1.4c0-1.3,0.1-2.6,0.1-4.1c0-2.1,0-4.3-0.1-6.4
		c0-2.1-0.1-4.2-0.1-6.3c0-1,0-2,0-3.1c0-0.6-0.3-1.1-0.8-1.4s-1.2-0.2-1.6,0.2c-2,1.7-4.7,3.3-7.9,4.6c-0.8,0.3-1.1,1.2-0.8,2
		c0.3,0.8,1.2,1.1,2,0.8c2.3-1,4.4-2.1,6.1-3.2v0.1c0,2.1,0,4.3,0.1,6.4c0,2.1,0.1,4.2,0.1,6.3c0,1.4,0,2.7-0.1,4
		C475.5,127.7,476.1,128.4,477,128.4z"/>
	<path id="XMLID_595_" class="st3" d="M484.9,130.7c0.2,0.1,0.3,0.1,0.5,0.1c0.6,0,1.2-0.4,1.4-1c5.4-15.2,2.8-30.9-0.3-46.5
		c-0.2-0.8-1-1.3-1.8-1.2c-0.8,0.2-1.3,1-1.2,1.8c1.7,8.5,3.4,17.5,3.4,26.4c0,6.8-1,12.9-3,18.5
		C483.7,129.6,484.1,130.4,484.9,130.7z"/>
	<path id="XMLID_594_" class="st3" d="M446.7,139.8c-8-0.2-16.2-0.3-24.4-0.3c-0.8,0-1.5,0.7-1.5,1.5s0.7,1.5,1.5,1.5
		c8.1,0,16.3,0.2,24.3,0.3c7.9,0.2,16.1,0.3,24.2,0.3c11.2,0,20.5-0.3,29.3-1c0.8-0.1,1.4-0.8,1.4-1.6c-0.1-0.8-0.8-1.4-1.6-1.4
		c-8.7,0.7-17.9,1-29,1C462.8,140.1,454.6,139.9,446.7,139.8z"/>
	<path id="XMLID_593_" class="st3" d="M448.9,147.4c-0.7-0.5-1.6-0.4-2.1,0.3c-5.5,7.3-8.5,24.3-8.5,31c0,2.2,0.8,4.8,2.9,4.8
		c0.2,0,0.3,0,0.5-0.1c3.3-0.8,6.6-2.1,10.6-4.1c0.7-0.4,1-1.3,0.7-2c-0.4-0.7-1.3-1-2-0.7c-3.6,1.8-6.5,3-9.4,3.7
		c-0.1-0.4-0.2-1-0.2-1.7c0-6.4,3.1-22.7,7.9-29.2C449.7,148.8,449.6,147.9,448.9,147.4z"/>
	<path id="XMLID_592_" class="st3" d="M461.1,152.4c-0.9,0-1.5,0.6-1.6,1.4c-0.1,2.9-0.2,5.4-0.2,7.8c0,4.9,0.3,9.4,0.9,13.5
		c0.1,0.7,0.7,1.3,1.5,1.3c0.1,0,0.1,0,0.2,0c0.8-0.1,1.4-0.9,1.3-1.7c-0.6-4-0.9-8.3-0.9-13.1c0-2.3,0.1-4.8,0.2-7.6
		C462.6,153.2,461.9,152.5,461.1,152.4z"/>
	<path id="XMLID_589_" class="st3" d="M493.9,154.2c0-3.4-3.5-5-5.9-5c-0.5,0-1,0.1-1.4,0.2c-2.5,0.6-3.6,3.2-3.6,5.5
		c0,3.4,2.4,5.2,4.8,5.2C490.9,160.1,493.9,157.2,493.9,154.2z M486,154.9c0-1.1,0.5-2.4,1.3-2.6c0.2-0.1,0.5-0.1,0.7-0.1
		c0.6,0,2.9,0.5,2.9,2c0,1.2-1.6,2.9-3.1,2.9C487.4,157.1,486,156.9,486,154.9z"/>
	<path id="XMLID_586_" class="st3" d="M507.9,117.7c0.2,6,5,10.7,11,10.8c23.8,0.4,29.1,1.2,75-3.4c6.7-0.7,11.8-6.5,11.6-13.2
		c-1-32.3-0.9-64.8-2-97.1c-0.2-6.3-5.6-11.3-12-10.9c-32,2.1-57.8,0.4-74.1,0c-6.3-0.2-11.6,4.8-11.8,11.1
		c-0.9,29.9,0.1,38,0.7,43.3C507.3,66.4,507,84.9,507.9,117.7z M508.6,15.2c0.1-4.7,4.1-8.3,8.7-8.2c16.3,0.4,42.2,2.1,74.3,0
		c4.7-0.3,8.7,3.3,8.8,8c1,32.3,1,64.9,2,97.1c0.2,5.1-3.7,9.6-8.9,10.1c-45.7,4.6-51,3.8-74.7,3.4c-4.4-0.1-7.9-3.5-8-7.9
		c-1-33.4-0.6-51.4-1.6-59.6C508.7,52.8,507.7,44.9,508.6,15.2z"/>
	<path id="XMLID_583_" class="st3" d="M518.2,43.7c0,0.8,0.6,1.4,1.4,1.5c22.7,0.9,45.2,1.2,67.9,0.3c0.8,0,1.5-0.7,1.4-1.6
		c-0.4-8.4-1.3-15.7-1.3-24.4c0-0.8-0.7-1.5-1.5-1.5c-22.3-0.2-44.6,0.3-66.8,0.4c-0.8,0-1.5,0.6-1.5,1.4
		c-0.2,5.8-0.1,11.7,0.1,17.6C518.1,39.6,518.2,41.6,518.2,43.7z M520.9,21.4c21.2-0.1,42.6-0.5,63.8-0.4c0,7.2,0.8,14.4,1.2,21.5
		c-21.6,0.8-42.9,0.5-64.7-0.3C521,35.3,520.7,28.2,520.9,21.4z"/>
	<path id="XMLID_580_" class="st3" d="M521.1,76.6c4.2-0.2,8.3-0.5,12.3-0.7c0.8,0,1.4-0.7,1.4-1.5c0-3.7,0-8.5-0.2-13.3
		c0-0.8-0.7-1.5-1.5-1.5c-4.4,0.1-8.8,0.1-13.2-0.1c-1,0-1.6,0.8-1.5,1.6c0.4,4.5,0.8,9.3,1,14C519.6,76,520.2,76.6,521.1,76.6z
		 M531.7,62.7c0.1,3.6,0.1,7.3,0.1,10.3c-3.2,0.1-6.6,0.4-9.5,0.5c-0.2-3.7-0.5-7.4-0.8-10.9C525,62.7,528.4,62.7,531.7,62.7z"/>
	<path id="XMLID_577_" class="st3" d="M561.8,70.9c-0.2-3.3-0.4-6.6-0.5-9.9c0-0.8-0.7-1.4-1.5-1.5c-13.1-0.2-16.3-1.7-16.2,0.9
		c0.2,4.3,0.6,8.8,0.9,13.1c0.1,0.8,0.7,1.4,1.5,1.4C563,74.7,562.2,77,561.8,70.9z M558.3,62.5c0.1,3.3,0.3,6.5,0.5,9.7
		c-3.7,0-7.6-0.2-11.5-0.2c-0.2-3-0.5-6.6-0.7-10C550.5,62.1,554.4,62.4,558.3,62.5z"/>
	<path id="XMLID_574_" class="st3" d="M586.8,58.1h-13.2c-0.8,0-1.4,0.6-1.5,1.4c-0.4,4.5-0.4,9.1,0.1,13.6c0.1,0.7,0.7,1.3,1.5,1.3
		c13,0.2,16,0.3,15.7-1.9c-0.5-4.3-1-8.6-1.2-12.9C588.2,58.7,587.6,58.1,586.8,58.1z M575,71.4c-0.3-3.4-0.3-6.9-0.1-10.3h10.4
		c0.2,3.4,0.6,6.8,0.9,10.2C582.6,71.6,578.8,71.5,575,71.4z"/>
	<path id="XMLID_571_" class="st3" d="M537.3,97.5c-0.1-3.8-0.5-10-1-13.8c-0.1-0.8-0.8-1.4-1.5-1.3c-11.5,0.3-15.5-1.4-15.1,1.5
		c1.4,9.8-0.6,14.6,2.1,14.7C533.4,99.2,537.3,100,537.3,97.5z M533.5,85.4c0.3,3.2,0.6,7.5,0.8,10.7c-3.6,0.1-7.3-0.2-10.9-0.5
		c-0.1-3.5-0.1-6.9-0.5-10.4C526.4,85.3,529.9,85.5,533.5,85.4z"/>
	<path id="XMLID_568_" class="st3" d="M548.2,98.4c21.5-1.5,15.1,4.5,14.3-16.3c0-0.4-0.2-0.8-0.5-1.1c-0.7-0.6-0.8-0.3-5.7-0.3
		c-8.6,0-10.5-0.6-10.5,1.4c-0.2,5,0.2,10,0.8,14.9C546.7,97.9,547.5,98.4,548.2,98.4z M548.8,83.7c3.2,0,7.5,0.1,10.9,0
		c0.2,3.9,0.8,7.7,1.3,11.4c-3.8,0.1-7.6,0-11.4,0.2C549,91.4,548.7,87.6,548.8,83.7z"/>
	<path id="XMLID_565_" class="st3" d="M587.5,81c-9.8,1.2-15.7-0.1-15.3,2.8c3.2,24.9,2.7,30,5.3,29.7c12.9-1.7,14.3-0.9,14.2-3
		c-0.5-9.4-2.3-18.7-2.5-28.1C589.2,81.5,588.4,80.9,587.5,81z M578.6,110.3c-1.4-8.5-2.1-17.1-3.2-25.4c3.6-0.4,7.2-0.4,10.9-0.8
		c0.3,8.5,1.8,16.8,2.4,25.1C585.4,109.6,581.9,109.9,578.6,110.3z"/>
	<path id="XMLID_562_" class="st3" d="M532.9,105c-9.9-0.6-11-0.2-11,1.3c-0.2,3.9,0.1,7.9,0.5,11.8c0.1,0.8,0.7,1.4,1.5,1.4
		c3.8,0,8.1,0,12.3-0.4c0.8-0.1,1.4-0.8,1.3-1.5c-0.1-3.5-0.5-8.4-0.7-11.1C536.6,104.8,535,105.1,532.9,105z M525.2,116.5
		c-0.3-3.1-0.5-5.8-0.4-8.7c3-0.1,6,0.1,9.1,0.2c0.2,2.3,0.4,5.5,0.5,8.2C531.3,116.5,528.3,116.5,525.2,116.5z"/>
	<path id="XMLID_559_" class="st3" d="M564.3,104.9c-0.1-0.8-0.8-1.4-1.6-1.4c-14.3,0.8-16.3-0.2-16.2,2.1
		c0.7,12.7,0.8,14.6,2.7,14.5c12.5-1,16.5,0.4,16.2-2.3C565.1,114.1,564.6,109.4,564.3,104.9z M550.4,116.9c-0.5-3.3-0.6-6.7-0.8-10
		c3.8-0.1,7.8-0.2,11.8-0.4c0.3,3.5,0.6,7,1,9.9C558.4,116.6,554.4,116.7,550.4,116.9z"/>
	<path id="XMLID_558_" class="st3" d="M572.9,204c-1.1-21.1-2.2-42.9-2.2-64.3c0-2-3-2-3,0c0,21.5,1.1,43.3,2.2,64.4
		c1.7,33.2,1.9,37.5,3,86.7c0.5,22.4,1,45.5,1.8,68.2c1,0,2-0.1,3-0.1C575.3,293,576.3,269.3,572.9,204z"/>
	<path id="XMLID_557_" class="st3" d="M592.6,343.7L592.6,343.7c0.9-0.1,1.5-0.8,1.4-1.6c-5.8-60-2.3-121.9-8.3-211.4
		c-0.1-2-3.1-1.8-3,0.2c6,89.3,2.5,151.3,8.3,211.4C591.2,343.1,591.8,343.7,592.6,343.7z"/>
	<path id="XMLID_556_" class="st3" d="M308.3,363.7c-7.3-0.1-14.9-0.2-22.4-0.4c-0.8,0-1.5,0.6-1.5,1.5c0,0.8,0.6,1.5,1.5,1.5
		c7.5,0.2,15.1,0.3,22.4,0.4c16,0.2,32.6,0.4,49.2,1.3c3.3,0.2,6.7,0.3,10.6,0.3c5.3,0,10.7-0.2,16-0.3c5.2-0.2,10.6-0.3,15.9-0.3
		c0.8,0,1.5-0.7,1.5-1.5s-0.7-1.5-1.5-1.5c-5.3,0-10.8,0.2-16,0.3c-5.2,0.2-10.6,0.3-15.9,0.3c-3.8,0-7.2-0.1-10.4-0.3
		C341,364.2,324.4,364,308.3,363.7z"/>
	<path id="XMLID_555_" class="st3" d="M540.7,383.8c-0.8,0.1-1.4,0.8-1.4,1.6c0.1,0.8,0.7,1.4,1.5,1.4h0.1
		c11.2-0.9,22.5-1.4,33.5-1.8c8.2-0.3,16.7-0.6,25.1-1.1c0.4,0,0.8-0.2,1-0.5c0.3-0.3,0.4-0.7,0.4-1.1c-0.4-3.9-0.4-7.7-0.4-11
		c0-1.4,0-2.9,0-4.4s0-2.9,0-4.4c0-1,0-2,0-3c0-0.4-0.2-0.8-0.5-1.1c-0.3-0.3-0.7-0.4-1.1-0.4c-20.3,0.9-50.9,2-78.1,2.6
		c0.1,0.4,0.2,0.8,0.2,1.2c0.2,0.8-0.3,1.6-1.2,1.8c-0.8,0.2-1.6-0.3-1.8-1.2c-0.1-0.6-0.2-1.2-0.3-1.8c-44.7,1.1-58.3,0.1-90.1,0.9
		c0,0.5,0,1,0,1.5c0,0.8-0.6,1.5-1.5,1.5s-1.5-0.6-1.5-1.5c0-0.5,0-1,0-1.5c-4.8,0.1-9.6,0.3-14.4,0.6c-0.8,0-1.5,0.7-1.4,1.6
		c0,0.8,0.7,1.5,1.6,1.4c18.8-1,38-1,56.1-1H480c31.2,0,86.7-1.9,117.5-3.2c0.1,6.2-0.2,13.2,0.3,19.9
		C578.9,382.1,559.7,382.2,540.7,383.8z"/>
	<path id="XMLID_554_" class="st3" d="M379.6,393.3c17.5,0,33.1-0.6,47.7-1.8c31.3-2.6,62.9-2.6,94.2-4.2c2-0.1,1.8-3.1-0.2-3
		c-11.7,0.6-23.7,1-35.2,1.3c-71.1,2.2-62.9,4.7-106.5,4.7c-21,0-42.3-0.9-62.9-1.7c-18.2-0.7-36.9-1.5-55.5-1.7
		c-0.8,0-1.5,0.7-1.5,1.5s0.7,1.5,1.5,1.5c18.5,0.2,37.3,0.9,55.4,1.7C337.3,392.5,358.6,393.3,379.6,393.3z"/>
	<path id="XMLID_553_" class="st3" d="M426.3,364.7c0.9,0,1.5-0.7,1.5-1.5c0-0.5,0-1,0-1.5c-0.1-3.8-0.3-7.6-0.5-11.3
		c-0.5,0-1,0-1.5,0.1h-0.1c-0.8,0-1.5-0.6-1.5-1.4s0.6-1.5,1.4-1.6c0.5,0,1,0,1.5-0.1c0-0.6-0.1-1.3-0.1-1.9
		c11.8-0.1,23.8-0.6,35.4-1.1c13.2-0.5,26.9-1.1,40.3-1.1c4.7,0,9.1,0.1,13.4,0.2c0,0.4,0,0.8,0.1,1.2c0.5,0,1,0,1.5-0.1
		c0.9,0,1.5,0.6,1.6,1.4c0,0.8-0.6,1.5-1.4,1.6c-0.5,0-1,0-1.5,0.1c0.3,4.8,0.9,9.1,1.6,13.1c0.1,0.6,0.2,1.2,0.3,1.8
		c0.2,0.8,1,1.3,1.8,1.2c0.8-0.2,1.3-1,1.2-1.8c-0.1-0.4-0.2-0.8-0.2-1.2c-1.1-5.4-1.7-11.6-1.9-18.8c0-0.8-0.7-1.4-1.4-1.4
		c-4.7-0.2-9.6-0.3-14.9-0.3c-13.5,0-27.2,0.6-40.4,1.1c-12.1,0.5-24.6,1-36.9,1.1c-0.4,0-0.8,0.2-1.1,0.5c-0.3,0.3-0.4,0.7-0.4,1.1
		c0.5,6,0.7,11.8,0.9,17.7c0,0.5,0,1,0,1.5C424.8,364.1,425.5,364.7,426.3,364.7z"/>
	<path id="XMLID_552_" class="st3" d="M516.2,347.6c0.5,0,1,0,1.5-0.1c0.8,0,1.5-0.7,1.4-1.6c0-0.8-0.7-1.5-1.6-1.4
		c-0.5,0-1,0-1.5,0.1c-13.8,0.6-27.7,0.9-41.2,1.2c-15.6,0.3-31.7,0.7-47.7,1.5c-0.5,0-1,0-1.5,0.1c-0.8,0-1.5,0.7-1.4,1.6
		c0,0.8,0.7,1.4,1.5,1.4h0.1c0.5,0,1,0,1.5-0.1c15.9-0.8,32-1.2,47.6-1.5C488.4,348.5,502.4,348.2,516.2,347.6z"/>
	<path id="XMLID_551_" class="st3" d="M403.6,287.5c-4.2,0.2-8.4,0.3-12.5,0.3c-5.2,0.1-10.5,0.1-15.8,0.5c-0.8,0.1-1.4,0.7-1.4,1.5
		c-0.1,6.6-0.9,13.5-1.6,20.2c-0.2,1.5-0.3,3-0.5,4.6c-0.7-0.9-1.3-1.9-2-2.8c-2.6-3.8-5.4-7.8-9.2-10.8c-0.7-0.5-1.6-0.4-2.1,0.3
		c-0.5,0.7-0.4,1.6,0.3,2.1c3.5,2.7,6,6.3,8.6,10.1c1.4,2,2.8,4.1,4.4,6c0.3,0.4,0.7,0.5,1.2,0.5c0.1,0,0.3,0,0.4-0.1
		c0.6-0.2,1-0.7,1.1-1.3c0.3-2.8,0.6-5.5,0.9-8.3c0.7-6.3,1.4-12.8,1.6-19.1c4.8-0.3,9.6-0.3,14.3-0.4c4.1,0,8.4-0.1,12.6-0.3
		c0.8,0,1.5-0.7,1.4-1.6C405.1,288.1,404.4,287.4,403.6,287.5z"/>
	<path id="XMLID_550_" class="st3" d="M388.7,302.6c-0.5-0.2-1.1-0.2-1.5,0.2l-1.3,1c-1.3,1-2.7,2-4.1,3.2c-0.6,0.5-0.7,1.5-0.2,2.1
		s1.5,0.7,2.1,0.2c1-0.8,2-1.6,3-2.4c0.2,2.1,0.4,4.2,0.6,6.3c0.2,2.5,0.5,5,0.7,7.6c0,0.8,0.7,1.4,1.5,1.4h0.1
		c0.8,0,1.5-0.8,1.4-1.6c-0.2-2.6-0.4-5.2-0.7-7.7c-0.3-3.1-0.6-6-0.7-8.9C389.5,303.3,389.2,302.8,388.7,302.6z"/>
	<path id="XMLID_547_" class="st3" d="M395.4,303.7c-1.2,2.8-1.8,5.8-1.8,8.4c0,6.2,3.8,10.1,6.5,10.1c3.1,0,7.8-5,7.8-11.9
		s-6.1-9.1-8.3-9.1C397.7,301.2,396.1,302.2,395.4,303.7z M404.9,310.3c0,5.4-3.5,8.9-4.8,8.9c-0.6,0-3.5-2-3.5-7.1
		c0-2.3,0.6-4.8,1.6-7.3c0.2-0.4,0.9-0.6,1.4-0.6C399.7,304.2,404.9,304.7,404.9,310.3z"/>
	<path id="XMLID_546_" class="st3" d="M431.6,234.2c0,1.6-0.1,3.3-0.1,5c0,15.6,1.4,31.4,2.7,46.7c0.1,1.3,0.2,2.6,0.3,3.9
		c1,0,2-0.1,3-0.1c-0.1-1.4-0.2-2.7-0.3-4.1c-1.3-15.2-2.7-31-2.7-46.5c0-1.1,0-2.3,0-3.4c-0.7-1-1.3-2.1-1.9-3.1
		C432.3,233.2,432,233.7,431.6,234.2z"/>
	<path id="XMLID_545_" class="st3" d="M435.8,304.2c0.1,0.8,0.7,1.4,1.5,1.4h0.1c0.8-0.1,1.4-0.8,1.4-1.6c-0.3-3.8-0.6-7.5-0.9-11.3
		c-1,0-2,0.1-3,0.1C435.2,296.6,435.5,300.4,435.8,304.2z"/>
	<path id="XMLID_544_" class="st3" d="M433.8,228.8c0.1,0.1,0.2,0.2,0.2,0.3l0.5,0.8c0.1,0.1,0.2,0.3,0.2,0.4
		C434.8,229.6,434.4,229.1,433.8,228.8z"/>
	<path id="XMLID_543_" class="st3" d="M434,229.1c-0.1-0.1-0.1-0.2-0.2-0.3c-0.3-0.3-0.6-0.4-1-0.4c-0.5,0-1,0.3-1.3,0.7
		c-3.7,5.7-7.7,10.6-12.2,14.8c-0.6,0.6-0.6,1.5-0.1,2.1c0.3,0.3,0.7,0.5,1.1,0.5s0.7-0.1,1-0.4c3.8-3.5,7.2-7.4,10.3-11.9
		c0.3-0.5,0.7-1,1-1.5c0.6,1,1.3,2.1,1.9,3.1c2.5,3.8,5.5,7.4,10,9.6c0.7,0.4,1.6,0.1,2-0.7c0.4-0.7,0.1-1.6-0.7-2
		c-5.3-2.6-8.2-7.4-11.3-12.4c-0.1-0.1-0.2-0.3-0.2-0.4L434,229.1z"/>
	<path id="XMLID_542_" class="st3" d="M425.2,290c-0.8,0-1.5,0.7-1.5,1.5s0.7,1.5,1.5,1.5c3.2,0,6.4-0.1,9.7-0.2c1,0,2-0.1,3-0.1
		c10.4-0.4,20.7-0.9,30.8-1.5c16.2-0.9,33-1.8,49.5-1.8c3.1,0,6.2,0,9.2,0.1c0.3-0.3,0.6-0.6,0.9-0.9c-0.7-0.7-1.5-1.4-2.1-2.1
		c-2.6,0-5.2-0.1-7.9-0.1c-16.6,0-33.4,0.9-49.6,1.9c-10.2,0.6-20.5,1.1-30.9,1.5c-1,0-2,0.1-3,0.1C431.4,289.9,428.3,290,425.2,290
		z"/>
	<path id="XMLID_541_" class="st3" d="M528.2,288.5c-0.3,0.3-0.6,0.6-0.9,0.9c-2.1,2.2-4,4.7-5.1,7.8c-0.3,0.8,0.1,1.6,0.9,1.9
		c0.2,0.1,0.4,0.1,0.5,0.1c0.6,0,1.2-0.4,1.4-1c1.3-3.4,3.5-5.9,6.5-8.8c0.3-0.3,0.5-0.7,0.5-1.2c0-0.4-0.2-0.8-0.6-1.1
		c-3.1-2.4-5.7-5.7-7.8-9.9c-0.4-0.7-1.3-1-2-0.7c-0.7,0.4-1,1.3-0.7,2c1.5,2.9,3.2,5.5,5.2,7.7
		C526.8,287.2,527.5,287.9,528.2,288.5z"/>
	<path id="XMLID_540_" class="st3" d="M543.8,315.4c0.3-0.5,0.4-1.1,0.1-1.6c-0.3-0.5-0.8-0.8-1.4-0.8c-6.2,0.5-12.5,0.5-18.6,0.5
		c-0.8,0-1.5,0.7-1.5,1.5s0.7,1.5,1.5,1.5c5.1,0,10.4,0,15.6-0.3c-0.7,1-1.4,1.9-2.2,2.9c-2.3,3-4.6,6.1-6.8,9.3
		c-0.3,0.5-0.4,1.1-0.1,1.6c0.3,0.5,0.8,0.8,1.3,0.8c6.4-0.2,12-0.8,17.5-1.7c0.8-0.1,1.4-0.9,1.2-1.7c-0.1-0.8-0.9-1.4-1.7-1.2
		c-4.4,0.8-9,1.3-13.9,1.5c1.6-2.3,3.3-4.5,5-6.7C541.1,319.1,542.5,317.3,543.8,315.4z"/>
	<path id="XMLID_539_" class="st3" d="M439.2,281.6c0.2,0.6,0.8,1,1.4,1c0.2,0,0.3,0,0.5-0.1c14.4-4.8,27.2-14.2,36.1-26.4
		c7.9-10.9,12.7-24,13.8-37.4c-0.6-1-1.1-1.9-1.6-3l-1.3,1.6c-0.9,13.3-5.5,26.3-13.3,37c-8.5,11.7-20.8,20.7-34.6,25.3
		C439.4,279.9,439,280.8,439.2,281.6z"/>
	<path id="XMLID_538_" class="st3" d="M491,218.7c0.7,1.1,1.4,2.1,2.2,3.1c0.5,0.6,1.5,0.7,2.1,0.2s0.7-1.5,0.2-2.1
		c-1.9-2.3-3.3-4.8-4.3-7.6c-0.2-0.5-0.6-0.9-1.2-1c-0.5-0.1-1.1,0.1-1.4,0.5l-8.5,10.4c-0.5,0.6-0.4,1.6,0.2,2.1
		c0.3,0.2,0.6,0.3,0.9,0.3c0.4,0,0.9-0.2,1.2-0.6l5.6-6.9l1.3-1.6C489.9,216.8,490.4,217.8,491,218.7z"/>
	<path id="XMLID_537_" class="st3" d="M523.4,242l-1.3,0.2c0.6,1.8,1.3,3.5,2,5.2c0.4,0.8,0.9,1.3,1.6,1.4c0.9,0.2,1.8-0.4,2-1.3
		c0.2-0.8-0.2-1.7-1-2c-0.1,0-0.2-0.1-0.2-0.1c-0.7-1.7-1.3-3.4-1.9-5.2C524.8,241.1,524.2,241.9,523.4,242z"/>
	<path id="XMLID_536_" class="st3" d="M509.9,250.5c0.2,0.1,0.4,0.1,0.6,0.1c0.6,0,1.1-0.3,1.4-0.9c0.9-2,1.7-4,2.5-6l-0.4,0.1
		c-0.1,0-0.2,0-0.3,0c-0.7,0-1.3-0.5-1.5-1.2c-0.2-0.8,0.4-1.6,1.2-1.8l2.2-0.4c1.2-3.1,2.3-6.3,3.2-9.5c0.7,2.8,1.4,5.7,2.2,8.5
		l1.7-0.3c0.7-0.1,1.3,0.2,1.6,0.8c-1.6-5-2.8-10.2-3.9-15.3c-0.1-0.7-0.7-1.2-1.4-1.2s-1.3,0.4-1.5,1.1c-2.2,8.2-5.1,16.3-8.5,24
		C508.8,249.3,509.2,250.2,509.9,250.5z"/>
	<path id="XMLID_535_" class="st3" d="M522.9,239.1l-1.7,0.3l-5.5,1l-2.2,0.4c-0.8,0.2-1.4,0.9-1.2,1.8c0.1,0.7,0.8,1.2,1.5,1.2
		c0.1,0,0.2,0,0.3,0l0.4-0.1l7.7-1.4l1.3-0.2c0.8-0.2,1.3-0.9,1.2-1.7c0-0.2-0.1-0.3-0.1-0.4C524.2,239.3,523.6,239,522.9,239.1z"/>
	<path id="XMLID_534_" class="st3" d="M529.2,240.7c0.6,3.1,2,5,3.9,5.6c0.5,0.2,0.9,0.2,1.4,0.2c1.6,0,2.9-0.8,4.2-1.5
		c0.9-0.5,1.8-1,2.6-1.2c0.8-0.1,1.4-0.9,1.2-1.7c-0.1-0.8-0.9-1.4-1.7-1.2c-1.4,0.2-2.6,0.9-3.6,1.6c-1.4,0.8-2.3,1.3-3.2,1.1
		c-1.1-0.3-1.6-2-1.9-3.3c-0.6-3.1-0.5-5.3,0.4-6.9c0.5-1,1.6-1.8,2.7-2c0.5-0.1,1.3-0.2,2,0.3s1.6,0.3,2.1-0.4s0.3-1.6-0.4-2.1
		c-1.2-0.9-2.8-1.1-4.4-0.8c-1.9,0.4-3.7,1.8-4.6,3.5C528.2,234.8,528.7,238.3,529.2,240.7z"/>
	<path id="XMLID_533_" class="st3" d="M510,259.3c0,0.8,0.7,1.4,1.5,1.4h0.1c9.4-0.5,19-1.5,28.3-2.8c0.8-0.1,1.4-0.9,1.3-1.7
		c-0.1-0.8-0.9-1.4-1.7-1.3c-9.3,1.3-18.7,2.3-28.1,2.8C510.6,257.8,510,258.5,510,259.3z"/>
	<path id="XMLID_530_" class="st3" d="M525,180.3c0.5,0,1-0.1,1.5-0.2c2.7-0.7,4.7-3.3,4.7-6.1c0-1.3-0.3-2.4-1.1-3.2
		c-1.2-1.3-3.1-1.3-3.9-1.3c-0.8,0-1.6,0-2.4,0.1c-0.4-0.4-1-0.5-1.6-0.3c-2.7,1.2-4,4.6-2.8,7.3C520.4,178.9,522.7,180.3,525,180.3
		z M522.7,172.8c1.2-0.2,2.4-0.3,3.7-0.3c0.3,0,1.4,0,1.7,0.3c0.2,0.2,0.3,0.6,0.2,1c0,1.5-1.1,2.9-2.5,3.3c-1.4,0.4-3-0.4-3.5-1.6
		C521.9,174.7,522.1,173.6,522.7,172.8z"/>
	<path id="XMLID_529_" class="st3" d="M517.4,194.8c0.3,0.3,0.7,0.5,1.1,0.5c0.4,0,0.7-0.1,1-0.4c7.1-6.2,14.7-12.2,22.4-17.6
		c0.7-0.5,0.8-1.4,0.4-2.1c-0.5-0.7-1.4-0.8-2.1-0.4c-7.9,5.5-15.5,11.5-22.7,17.8C516.9,193.2,516.8,194.1,517.4,194.8z"/>
	<path id="XMLID_526_" class="st3" d="M531.5,197.2c1,0.9,2.3,1.4,3.6,1.4s2.6-0.4,3.7-1.3c1.8-1.4,2.5-3.6,1.9-5.5
		c-0.6-1.7-2.4-3-4.5-3.1c-1.7-0.1-3.2,0.3-4.5,0.8c-0.8,0.2-1.2,1.1-1,1.9c0,0.1,0.1,0.2,0.1,0.3c-0.2,0.4-0.4,0.8-0.5,1.3
		C529.9,194.5,530.4,196.1,531.5,197.2z M533.2,193.6c0-0.2,0.2-0.7,0.6-0.8c0.5-0.2,0.8-0.5,1-1c0.4-0.1,0.8-0.1,1.2-0.1
		c0.8,0.1,1.7,0.5,1.9,1.1s-0.2,1.5-0.9,2.1c-1,0.8-2.6,0.9-3.4,0.1C533.2,194.7,533.1,194.1,533.2,193.6z"/>
	<path id="XMLID_523_" class="st3" d="M298.2,234.8c0.3-0.5,0.3-1.1,0-1.6c-1-1.5-1.9-3-2.8-4.5c-0.8-1.4-1.7-2.8-2.6-4.2
		c-17.6-27.3-32.1-53.1-48-81.7c-0.3-0.5-0.8-0.8-1.4-0.8c-0.6,0-1.1,0.3-1.3,0.8c-6.5,13.5-10.6,19.4-14.4,25.2
		c-6.8,10.1-13.2,19.6-31.5,66.6c-0.1,0.4-0.1,0.8,0,1.1c7.2,17.7,25.2,29.1,46,29.1C278,264.8,294.1,241.9,298.2,234.8z
		 M199.1,235.2c18-46.2,24.3-55.5,31-65.4c3.7-5.5,7.5-11.1,13.4-23c15.3,27.6,29.5,52.8,46.7,79.3c0.9,1.4,1.7,2.8,2.6,4.2
		c0.8,1.3,1.6,2.6,2.4,3.9c-4.6,7.5-20,27.7-53,27.7C222.8,261.8,206,251.4,199.1,235.2z"/>
	<path id="XMLID_522_" class="st3" d="M208.5,225.1c-2.8,2.8-6,5.5-7.9,9.3c-0.5,1,0.2,2.2,1.3,2.2c0.5,0,1.1-0.3,1.3-0.8
		c1.4-2.8,3.7-5,6-7.2c0.5-0.5,0.9-0.9,1.4-1.3c0.6-0.6,0.6-1.5,0-2.1C210,224.5,209.1,224.5,208.5,225.1z"/>
	<path id="XMLID_521_" class="st3" d="M225.3,216.9c-1.3,0.9-2.6,1.7-3.9,2.4c-1.3,0.8-2.7,1.6-4.1,2.5c-0.7,0.5-0.9,1.4-0.4,2.1
		c0.3,0.4,0.8,0.7,1.2,0.7c0.3,0,0.6-0.1,0.8-0.3c1.3-0.9,2.6-1.7,3.9-2.4c1.3-0.8,2.7-1.6,4.1-2.5c0.7-0.5,0.9-1.4,0.4-2.1
		C226.9,216.6,226,216.4,225.3,216.9z"/>
	<path id="XMLID_520_" class="st3" d="M247.8,216.9c0.8,0.1,1.6-0.4,1.7-1.2c0.1-0.8-0.4-1.6-1.2-1.7c-1.6-0.3-3.4-0.1-5,0.1
		c-1,0.1-1.9,0.3-2.9,0.3c-0.8,0-1.5,0.7-1.5,1.5s0.7,1.5,1.5,1.5c1.2,0,2.3-0.2,3.3-0.3C245.2,216.9,246.6,216.7,247.8,216.9z"/>
	<path id="XMLID_519_" class="st3" d="M260.9,217.3c1.6,0.7,3.5,1.3,5.3,1.8c1.7,0.5,3.5,1.1,5,1.7c0.2,0.1,0.4,0.1,0.6,0.1
		c0.6,0,1.1-0.3,1.4-0.9c0.3-0.8,0-1.6-0.8-2c-1.6-0.7-3.5-1.3-5.3-1.8c-1.7-0.5-3.5-1.1-5-1.7c-0.8-0.3-1.6,0-2,0.8
		C259.7,216.1,260.1,216.9,260.9,217.3z"/>
	<path id="XMLID_518_" class="st3" d="M289.8,235.7c0.3,0.3,0.7,0.5,1.1,0.5c0.3,0,0.7-0.1,1-0.4c0.6-0.5,0.7-1.5,0.2-2.1
		c-2.8-3.2-6-6-9.1-8.7c-0.6-0.5-1.6-0.5-2.1,0.2c-0.5,0.6-0.5,1.6,0.2,2.1C284.1,229.9,287.2,232.6,289.8,235.7z"/>
	<g id="XMLID_466_">
		<g id="XMLID_100_">
			<path id="XMLID_104_" class="st3" d="M230.7,37.6c1.4,0.1,2.7,0.1,4.1,0.2c1.9,0.1,1.9-2.9,0-3c-1.4,0-2.7-0.1-4.1-0.2
				C228.8,34.6,228.8,37.6,230.7,37.6L230.7,37.6z"/>
		</g>
	</g>
	<g id="XMLID_8_">
		<g id="XMLID_94_">
			<path id="XMLID_98_" class="st3" d="M147.1,131.2c-0.8-20.9-0.8-41.8-1-62.6c0-1.9-3-1.9-3,0c0.1,20.9,0.2,41.8,1,62.6
				C144.1,133.2,147.1,133.2,147.1,131.2L147.1,131.2z"/>
		</g>
	</g>
	<g id="XMLID_4_">
		<g id="XMLID_86_">
			<path id="XMLID_92_" class="st3" d="M173.4,52.2c-4.9-0.4-9.9-0.7-14.8-1.1c-0.8-0.1-1.5,0.7-1.5,1.5
				c2.4,43.9,4.8,87.8,7.4,131.7c0.1,1.9,3.1,1.9,3,0c-2.6-43.9-5.1-87.8-7.4-131.7c-0.5,0.5-1,1-1.5,1.5c4.9,0.4,9.9,0.7,14.8,1.1
				C175.3,55.3,175.3,52.4,173.4,52.2L173.4,52.2z"/>
		</g>
	</g>
	<g id="XMLID_12_">
		<g id="XMLID_79_">
			<path id="XMLID_84_" class="st3" d="M146.1,293.8c0.2,30.6,0.2,61.2,0,91.7c0,1.9,3,1.9,3,0c0.1-30.6,0.1-61.2,0-91.7
				C149.1,291.9,146.1,291.9,146.1,293.8L146.1,293.8z"/>
		</g>
	</g>
	<g id="XMLID_25_">
		<g id="XMLID_72_">
			<path id="XMLID_77_" class="st3" d="M148.4,387.4c39.8-2.6,79.6,0.4,119.3,2.8c1.9,0.1,1.9-2.9,0-3c-39.7-2.4-79.5-5.3-119.3-2.8
				C146.5,384.6,146.5,387.6,148.4,387.4L148.4,387.4z"/>
		</g>
	</g>
	<g id="XMLID_6_">
		<g id="XMLID_66_">
			<path id="XMLID_70_" class="st3" d="M167.4,365.5c40.6-1.7,81.3-0.7,121.9,0.7c1.9,0.1,1.9-2.9,0-3c-40.6-1.4-81.3-2.4-121.9-0.7
				C165.5,362.6,165.5,365.6,167.4,365.5L167.4,365.5z"/>
		</g>
	</g>
	<g id="XMLID_2_">
		<g id="XMLID_60_">
			<path id="XMLID_64_" class="st3" d="M168.3,36.2c-5.6-0.4-11.2-0.5-16.8-0.3c-3,0.1-7.1-0.7-8.4,2.5c-3.8,9.1,0.6,20.4-0.3,29.8
				c-0.2,1.9,2.8,1.9,3,0c0.7-7.9-1.4-15.6-0.7-23.5c0.4-3.9,1.1-5,4.6-5.8c1.7-0.4,3.8-0.2,5.6-0.2c4.4-0.1,8.7,0.1,13.1,0.4
				C170.2,39.3,170.2,36.3,168.3,36.2L168.3,36.2z"/>
		</g>
	</g>
	<g id="XMLID_7_">
		<g id="XMLID_54_">
			<path id="XMLID_58_" class="st3" d="M165.6,310.8c-0.3,17.7-0.4,35.3-0.2,53c0,1.9,3,1.9,3,0c-0.2-17.7-0.1-35.3,0.2-53
				C168.6,308.9,165.6,308.9,165.6,310.8L165.6,310.8z"/>
		</g>
	</g>
	<g id="XMLID_5_">
		<g id="XMLID_46_">
			<path id="XMLID_51_" class="st3" d="M148.8,294.7c-1-13.7-1.2-27.4-0.6-41.1c0.6-13.3,2-26.6,2.4-39.9
				c0.9-27.8-1.3-55.6-3.5-83.3c-0.1-1.9-3.1-1.9-3,0c2.2,27.7,4.4,55.5,3.5,83.3c-0.4,13-1.8,26-2.4,39c-0.6,14-0.4,28.1,0.6,42.1
				C146,296.6,149,296.6,148.8,294.7L148.8,294.7z"/>
		</g>
	</g>
	<g id="XMLID_11_">
		<g id="XMLID_38_">
			<path id="XMLID_44_" class="st3" d="M164.6,183.7c-0.4,29-0.1,58,0.9,87c0.1,1.9,3,1.9,3,0c-1-29-1.3-58-0.9-87
				C167.6,181.8,164.6,181.8,164.6,183.7L164.6,183.7z"/>
		</g>
	</g>
	<path id="XMLID_53_" class="st1" d="M267.6,315.8c1.9-1,3.5-2.4,4.8-4c3.9,0.8,8,1.2,11.1-0.2c1.6-0.4,3-1.1,4.3-2.4
		c1.7-1.8,1.7-3.8,0.7-5.3c1.3-5.6,0.7-12.2,0.5-17.3c-0.1-2-1.7-3.8-3.8-3.8c-14.7,0.4-23.1,16.2-24.2,29.2
		C260.7,315.4,264.9,317.2,267.6,315.8z M282,291.1c0,0.1,0,0.3,0.1,0.4c-0.4,0-0.8,0-1.2,0.1C281.2,291.5,281.6,291.3,282,291.1z
		 M275.3,308c0.5-0.7,0.9-1.4,1.4-2.1c0,0.5,0,0.9,0,1.4c0,0.3,0.1,0.6,0.1,0.9c-0.6,0.1-1.2,0.1-1.8,0.2
		C275.2,308.2,275.3,308.1,275.3,308z"/>
	<path id="XMLID_47_" class="st2" d="M304.4,296.5c0.3,1.1,1.1,2.2,2.5,2.9c0.2,0.1,0.4,0.2,0.5,0.3c1.2,1.5,2.1,3.2,2.3,5.2
		c0.4,5.9-3,13.3-6.6,17.8c-8.5,10.6-21.5,8.2-33,5.2c-0.9-0.2-1.9,0.8-1.3,1.7c1.5,2.1,3.4,3.9,5.4,5.4c-0.1,0.2-0.2,0.6,0,0.9
		c8.7,16.6,33.2,11.2,43.3-1c8.7-10.5,12.1-36.5-2.5-43.7c-2-2.2-4.4-4.1-6.9-5.5c-4.3-2.5-9.6,2.5-6.9,6.9
		C302,294.1,303.2,295.3,304.4,296.5z"/>
	<path id="XMLID_32_" class="st3" d="M261.9,312.7c0.5,0,0.9,0,1.4,0c-0.1-1.2-0.2-2.4-0.2-3.6c0-10.7,7.4-22.5,19.7-23.7
		c1.9-0.2,3.7-0.3,5.5-0.2c0-0.5,0-1,0-1.4c0-0.8,0.7-1.5,1.5-1.5c-2.3-0.1-4.6-0.1-7.2,0.2c-12.6,1.3-22.4,13-22.4,26.7
		c0,1.7,0.1,3.4,0.4,5.1C260.4,313.4,261.1,312.7,261.9,312.7z"/>
	<path id="XMLID_29_" class="st3" d="M291.1,285.3c13.3,1.3,26.2,9.2,26.2,24.9c0,11-11.2,27.6-28,27.6c-13.9,0-23.1-10.4-25.7-22.1
		c-0.6,0-1.2,0-1.8,0c-0.7,0-1.3-0.4-1.4-1c2.3,13.6,12.7,26.1,28.9,26.1c18.6,0,31-18.4,31-30.6c0-16.9-13.8-27-30.7-28
		C291.3,282.3,291.1,283.9,291.1,285.3z"/>
	<path id="XMLID_18_" class="st3" d="M261.9,315.7c0.6,0,1.2,0,1.8,0c1.4,0,2.7,0,4.1-0.1c7.5-0.1,15.2-0.2,22.7-0.8
		c0.8-0.1,1.4-0.7,1.4-1.5c-0.1-4.3-0.2-8.6-0.3-12.9c-0.1-3.8-0.4-11.1-0.4-16.7c0-0.9-0.7-1.5-1.5-1.5c-1.8,0-1.5,1.9-1.5,2.9
		c0,5.1,0.2,10.3,0.4,15.4c0.1,3.7,0.2,7.6,0.3,11.4c-7,0.5-14.1,0.6-21.1,0.7c-1.5,0-3,0-4.5,0.1c-0.5,0-0.9,0-1.4,0
		c-0.8,0-1.5,0.7-1.5,1.5c0,0,0,0,0,0.1c0,0.2,0,0.3,0.1,0.4C260.7,315.3,261.2,315.7,261.9,315.7z"/>
	<path class="st4" d="M521.6,65.6c-0.5-1.2,0.4-2.7,1.6-3.2c1.2-0.5,2.6-0.4,3.9-0.3c2.4,0.2,4.9,0.5,7.3,0.7
		c-0.7,4.2-1.9,8.4-3.3,12.5c-1.7-1.7-4.2-2.4-6.3-3.7S520.8,67.9,521.6,65.6"/>
</g>
</svg>
