<?xml version="1.0" encoding="utf-8"?>
<!-- Generator: Adobe Illustrator 19.0.0, SVG Export Plug-In . SVG Version: 6.00 Build 0)  -->
<svg version="1.1" xmlns="http://www.w3.org/2000/svg" xmlns:xlink="http://www.w3.org/1999/xlink" x="0px" y="0px"
	 viewBox="0 0 617 424" style="enable-background:new 0 0 617 424;" xml:space="preserve">
<style type="text/css">
	@import url(https://fonts.googleapis.com/css?family=Open+Sans:300,400,600,700,300italic,400italic,600italic);
	.st0{display:none;}
	.st1{display:inline;}
	.st2{fill:#EB8355;}
	.st3{display:inline;fill:#FECD82;}
	.st4{display:inline;fill:#E0DFE6;}
	.st5{display:inline;fill:#242526;}
	.st6{fill:#242526;}
	.st7{display:inline;fill:none;}
	.st8{fill:#E0E0E0;}
	.st9{fill:#D1D1D0;}
	.st10{font-family: 'Open Sans','Helvetica Neue',Helvetica,Arial,sans-serif;font-weight: 600;}
	.st11{font-size:48px;}
	.st12{font-size:36px;}
</style>
<g id="Layer_2" class="st0">
	<g id="Layer_2_1_" class="st1">
		<rect id="XMLID_255_" x="514.9" y="56.5" class="st2" width="13.5" height="16.4"/>
		<rect id="XMLID_254_" x="541.5" y="56.5" class="st2" width="14.5" height="14"/>
		<rect id="XMLID_253_" x="568.6" y="55.1" class="st2" width="10.5" height="10"/>
		<rect id="XMLID_252_" x="517.9" y="82.2" class="st2" width="11.4" height="10.9"/>
		<rect id="XMLID_251_" x="543.8" y="80.7" class="st2" width="7.2" height="12.7"/>
		<rect id="XMLID_250_" x="541.6" y="104.8" class="st2" width="15.8" height="8.6"/>
		<rect id="XMLID_249_" x="516.9" y="103.3" class="st2" width="9.3" height="14.1"/>
	</g>
	<path id="XMLID_19_" class="st3" d="M42.1,217c4.4,2.2,5.9,6.8,10.3,9.2c9.6,5,18.7-1.2,25.7-7.6c4.1-3.8,8.7-8.9,9.4-14.6
		c1.4-0.6,2.7-1.7,3.7-3.3c4.4-7,5.7-15.8-0.7-22.1c-4.9-4.8-12.8-6.2-19.4-5.7c-11.2,0.9-23,9-29.8,17.7c-0.2,0.2-0.3,0.5-0.5,0.7
		c0.2-4.1,3-6.2,6.3-8.7c0.8-0.6,0.5-1.8-0.5-1.9c-5.8-0.4-11.5,4.5-14.4,9.1c-3.8,5.9-3.2,13.8,0.6,19.6
		C35.1,213,38.5,215.1,42.1,217z M69.2,190.5c0.2-0.1,1.4-0.5,1.7-0.6c1.7-0.4,4.7-0.3,7,0.4c-0.1,0.1-0.1,0.2-0.2,0.4
		c-3.2-0.7-6.6-0.4-9.7,0.4C68.3,190.9,68.7,190.7,69.2,190.5z"/>
	<path id="XMLID_460_" class="st3" d="M493.2,337.4c-7.3,0.9-14.7,1-22,1.3c-25.5,1-37.4-0.6-48.5,2.7c-0.4,0.1-0.4,0.8,0,0.9
		c7,2.1,14.3,2.1,21.5,2.2c8.1,0.1,16.1,0.3,24.2,0.4c7.2,0,14.4,0,21.6-0.4c5.8-0.3,10.9-1,16.6,0.2c2,0.4,3.6-0.8,4.3-2.3
		c-0.1-0.7,0-1.2,0.3-1.6c-0.1-1-0.6-2-1.8-2.7C504.7,335.3,498.2,336.8,493.2,337.4z"/>
	<path id="XMLID_457_" class="st3" d="M570.5,99c0,1.2,0.5,2.1,1.2,2.6c0.7,3.5,1.9,6.6,3.5,8.9c0.9,1.3,3.1,2,4.3,0.6
		c6.6-7.8,7.4-20.2,2.4-29c-0.9-1.7-3.6-2.2-5-0.6c-0.7,0.8-1.3,1.6-1.8,2.5c-1,0.1-2.7,3.5-3.3,6c-1.1,0.9-1.3,1.9-1.2,3.1
		C570.4,92.9,570.5,98.8,570.5,99z M578.7,91.3c0.8,4.2,0.2,8.6-1.4,12.6c-0.4-0.9-0.8-1.8-1-2.7C578.1,99.4,577,97.2,578.7,91.3z"
		/>
	<path id="XMLID_17_" class="st4" d="M100.6,219.5c9.5-13.4,4.6-32-4.3-44.9c-0.9-1.2-3.2-0.5-2.6,1.1c4.3,12.7,8.1,29.2-3,39.5
		c-1.2,1.1-1.6,2.4-1.6,3.7c-6.1,6.1-8.5,16.6-12,23.9c-0.2,0.5-0.5,1-0.7,1.5c0.9-3,1.3-6.1,0.1-8.3c-1.5-2.7-5.6-3.3-7.7-1
		c-2.6,2.8-1.6,7.2-2.2,10.7c-0.2,1.4-0.6,3-1.3,4.3c-0.2,0.4-0.3,0.7-0.7,1c-0.3,0.2-0.6,0.2-0.9,0.3s-0.4,0.1-0.5,0.1
		c0.1,0,0.3-0.1,0.2-0.4c-0.1-0.6-1.1-0.6-1.2,0c0,0.2-0.1,0.5-0.1,0.7c-0.8,0.6-1,1.6-0.3,2.4c2.9,3.5,7.5,1.5,10.2-1.3
		c-0.7,1.1-1.4,2.2-2.2,3.2c-2.9,3.8-6,3.8-10,1.5c-1.5-0.9-3.7,1-2.6,2.6c3,4.3,7.7,7.8,13.2,6.5c6-1.4,10.3-6.2,13.8-11
		c3.9-5.4,6.5-11.5,9.3-17.5c2.1-4.4,3.8-9.5,6.7-13.5C101.3,223,101.3,221.1,100.6,219.5z"/>
	<path id="XMLID_13_" class="st4" d="M588.6,3.7c-1-0.3-1.6,0.9-1,1.6c6.7,7.6,4.7,19.4,4.3,28.7s-0.7,18.6-0.8,27.8
		c-0.6-1.7-3.2-2.9-4.8-1.2c-0.6,0.6-1.2,1.3-1.7,2c-1.3-1.2-3.4-1.2-4.8,0c-1.6,1.5-3.3,2.8-5.6,2.3c-2-0.4-3.7,2.6-1.5,3.6
		c1.2,0.6,2.5,0.9,3.8,0.9c-0.8,1.2,0.2,3.1,2,2.7c5.3-1.1,9.2-4,12.4-8.2c0.1-0.2,0.2-0.4,0.3-0.6c-0.1,10.4-0.2,21,0,34.7
		c-2.2,0-4.4,1.5-4.5,4.1c-0.1,2.9,0.3,5.1-2.5,6.5c-2.8,1.5-6,2.2-8.7,3.9c-1.3,0.7-0.6,2.5,0.7,2.6c4.5,0.3,9.2,1,13.4-0.9
		c0.2-0.1,0.4-0.2,0.6-0.3c-1.9,1.4-6,1.9-8.2,2.4c-4,1-4.8,4.6-3.4,7.4c-1.6,0.3-3.2,0.5-4.9,0.5c-6.4,0.2-12.9-0.3-19.3-0.4
		c-12.9-0.1-27,3.8-39.6-0.2c-1.6-0.5-2.9,1.7-1.6,2.8c10.8,10.2,27.5,7.2,41,8.4c8.1,0.7,20.3,2.3,30.4,0.3
		c-0.1,2.1-0.6,4.9-0.7,6.1c-1,17.7-0.1,18.5,0.1,34.7c0.2,19.6-0.9,39.2-0.8,58.9c0.4,84.3,6.5,85.5,8,117.6
		c-0.9,8.6,12.9,8.8,13.6,0c0.7-10.1-1.4-20.5-3-30.4c-6.9-42-4.9-114.4-8.7-153.5c-0.5-5.2-3.9-30.7-4.7-32.9
		c0.5,0.2,1.1,0.3,1.7,0.3c9,0.2,15.8-9.4,19.3-16.6c4.8-10,4-20.7,3.3-31.5c-0.8-12.1-1.2-24.1-2.6-36.2
		c-1.3-11.8-2.5-24.2-6.4-35.5c-0.3-0.9-1.5-0.7-1.6,0.2c-1.1,14.4,0.9,25.4,0,63.1c-0.1,6,0.4,12.4,0.2,18.7
		c-0.5-14.6-0.3-41.3-2.9-70.9C598.7,19.6,597.9,6.1,588.6,3.7"/>
	<path id="XMLID_513_" class="st4" d="M226.2,387.8c-2.6,0.7-5.2,1.6-7.8,2.6c2.3-0.5,4.5-1.2,6.7-1.9
		C225.4,388.3,225.8,388,226.2,387.8z"/>
	<path id="XMLID_640_" class="st4" d="M599.7,377.1c-0.9-3.6-1.3-7-1.6-11c-0.1-1.9,0.1-9.3-3.5-8.3c-3.3,0.9-3.8,8.8-4.2,11.4
		c-0.5,2.7-1.1,5.9-1.1,9.1c-7.9,2-16.2,1.9-24.2,2.5c-18.4,1.3-29.6,0.8-37.5,0.4c10.9-0.8,21.7-2,32.6-2.6c14.5-0.8,17,2.7,22.8,0
		c6.4-2.9,1.8-14.1-4.8-11.4c1.2-0.5-0.1-0.1-1.1-0.2c-6.4-1.1-8.8-1.5-16.8-1l-95.8,7.1c-47.5,3.8-58.3,7.3-128.4,4.6
		c-11.4-0.4-23-0.1-34.4,0.1c-9.3,0.2-18.8,1.8-28.1,1.6c-1.7,1-3.4,1.9-5.1,2.7c8.6,2,17.2,2.4,26.1,3c4.5,0.3,9,0.6,13.5,1
		c-10.9-0.1-21.7,0.3-32.6,0.9c-6.4,0.3-12.8,0.8-19.2,1.5c-1.3,0.1-2.6,0.3-3.9,0.5c0.4-0.2,0.9-0.4,1.3-0.6c-3,1-5.9,2.2-8.9,3.3
		c0.6,2.6-0.1,5.1,3.3,6.8c4,2,11.5,0.5,15.8,0.6c12.2,0.2,24.4-0.1,36.6,0c25.1,0.2,50.1,2.3,75.2,2.5c24.9,0.1,49.7,0,74.4-2.8
		c75.4-8.7,72.9-1.8,115-4.5c11.6-0.8,24.1,0.1,34.3-6.5C603.2,385.3,602.7,379.4,599.7,377.1z"/>
	<path id="XMLID_642_" class="st4" d="M144.1,419.8c-0.2,1.5-0.4,2.9-0.6,4.4c0.8-2.2,1.5-4.4,2-6.6
		C145,418.4,144.6,419.1,144.1,419.8z"/>
	<path id="XMLID_192_" class="st4" d="M375,54c-3.4,0-5-2.8-4.8-5.4c-16,0.6-31.8,4.4-47.8,5.1c-17.8,0.7-35.8,0.3-53.6-0.2
		c-3.9-0.1-7.7-0.2-11.6-0.3c-0.5,2.6-2.8,5.1-6.2,4.7c-12.8-1.8-25.8,0.1-38.7,0.2c-3.3,0-4.9-2.6-4.8-5.1
		c-6.7,0.1-13.5,0.2-20.2,0c-4.1-0.1-8.1-0.5-12.2-0.2c-4.1,0.3-8.9,0.9-11.6,4.3c-2.7,3.4-0.4,7.2,2,10.1c0.7,1.1,2.5,0,2.1-1.2
		c-0.8-2.2-1.6-3.3,0.7-4c2.5-0.8,13.8,1.3,22.9,1.9c20.6,1.3,41.3,0.4,62,1.2c20.2,0.8,40.1,1.4,60.4-0.6c20.2-2,40.2-7.2,60.6-7.5
		c2.1,0,3.3-1.3,3.8-2.8C377,54.1,376,54,375,54z"/>
	<path id="XMLID_152_" class="st4" d="M494.4,46.1c-19.2-0.3-38.4,1.3-57.5,2.3c-8.9,0.5-17.9,1.2-26.9,1.4
		c-3.6,0.1-7.2,0.2-10.9,0.4c0.2,1.2,0,2.6-0.6,3.7c4.4,0.2,8.9,0.4,13.3,0.6c8.6,0.3,17.3-0.1,25.9,0.4c9,0.5,17.8,2.1,26.8,2.9
		c9.8,0.8,19.8,1.3,29.8,1.2C502.7,58.9,502.7,46.2,494.4,46.1z"/>
	<path id="XMLID_496_" class="st4" d="M219.4,258.5c0.4,0.2,0.9,0.5,1.4,0.7c0.1,0.1,0.2,0.2,0.3,0.3c6.4,4.6,13.5,6.4,20.5,6
		c9,0.8,18.2-0.7,26.8-4.9c6.5-3.2,12.7-7.3,18-12.2c3.9-3.7,8.7-8.9,9.5-14.6c9-8.6-3.1-24.8-8.7-32.4
		c-12.9-17.6-23.9-36.3-38.1-53c-1.2-1.4-3.4,0.4-2.5,2c7,12.5,13.8,25.2,20.7,37.8c-0.7-1.2-1.4-2.4-2.1-3.6
		c-4-7.1-8.2-14.1-12.9-20.8c-4.5-6.3-10.1-11.5-12.8-18.8c-0.5-1.4-2.6-1.2-2.6,0.4c-0.2,6.4,3.5,12.8,6.1,18.4
		c3.8,8,7.3,16.1,11,24.1c5.8,12.5,12.6,24.5,18.7,36.8c-0.3,0.2-0.6,0.4-0.9,0.7c-9.1,9.4-15.8,21-29.6,24.1
		c-14.9,3.3-29.5-5.3-40.7-14.3c-0.9-0.7-2.1,0.4-1.3,1.3c9.1,10.7,21.1,20.3,35.2,21.6c-5.2-0.3-10.4-1.1-15.6-1.2
		C219,256.8,218.6,258,219.4,258.5z M269,244.5c0.1-0.1,0.2-0.1,0.4-0.2c3.4-2,6.7-5.1,8.7-8.8c0.5,0.8,1.1,1.4,1.7,1.8
		c-4.6,5.8-11,10.3-17.4,14.1c-1,0.6-2,1.1-2.9,1.6c-0.6-0.2-1.2-0.3-1.9-0.1C261.7,250.7,265.5,247.8,269,244.5z M254.8,254.4
		c-1.1,0.6-2.2,1.3-3.4,1.9c-2.6,0.8-5.3,1.3-8.1,1.6c-0.1,0-0.3,0-0.4,0C247,257.5,251,256.2,254.8,254.4z"/>
	<path id="XMLID_500_" class="st4" d="M511.8,344.2c0.2,1.2,1,2.5,2.1,3.8c-4.8,0.7-4.5,2.7-16.7,3.4c-6.3,0.4-12.7,0.5-19,0.9
		c-15.5,1-30.9,3.3-46.4,4.4c-1.7,0.1-1.7,2.5,0,2.6c16.8,1.1,33.6,1.3,50.4,2.1c9.5,0.5,28.5,2.9,36.2-4c0.4,0.3,0.8,0.5,1.3,0.7
		c3.4,1.2,6.9,2.5,10.3,3.6c6.6,3.2,12.4-7.1,5.7-11.1c-2-1.2-4.2-2-6.5-2.4c-2.4-1.2-4.8-2.3-7.2-3.5c-1.8-0.9-8.2-5.1-9.8-2.1
		c-0.1,0.1-0.1,0.3-0.2,0.4C511.7,343.4,511.7,343.8,511.8,344.2z"/>
	<path id="XMLID_481_" class="st5" d="M40,223.9c3.7,3.6,6.9,6.8,7.7,9.8c0.7,3,1.1,6,1.6,9.1c0.2,1.1,0.3,2.2,0.5,3.4
		c-0.1-0.8,0.5-1.6,1.3-1.7c0.5-0.1,1-0.1,1.5-0.2c-0.1-0.6-0.2-1.3-0.3-1.9c-0.3-2.2-0.6-4.4-1.1-6.6c-0.6,0-1.1,0.1-1.7,0.1h-0.1
		c-0.8,0-1.4-0.6-1.5-1.4c-0.1-0.8,0.6-1.5,1.4-1.6c0.4,0,0.9-0.1,1.3-0.1c-1-3.9-4.5-7.2-8.5-11.1c-6.5-6.3-14.6-14.2-14.6-27.3
		c0-10.4,10.5-29.8,35.6-29.8c21,0,34,16.2,34,31.2c0,12.6-5.6,19.5-11.1,26.3c-2.8,3.5-5.5,6.8-7.2,10.7c0.4,0,0.7,0,1.1,0.1
		c0.8,0,1.5,0.8,1.4,1.6c0,0.8-0.8,1.5-1.6,1.4c-0.7,0-1.3-0.1-2-0.1c-0.5,1.8-0.8,3.7-0.8,5.8c0,0.7,0,1.4,0,2.1c0,0.1,0,0.2,0,0.4
		c0.5,0,1,0,1.6,0c0.8,0,1.5,0.7,1.5,1.5c0-0.7,0-1.3,0-2s0-1.4,0-2.1c0-7.2,3.9-12,8.4-17.6c5.5-6.8,11.7-14.5,11.7-28.1
		c0-8-3.6-16.6-9.5-22.9c-4.9-5.1-13.6-11.3-27.4-11.3c-25.2,0-38.6,19.1-38.6,32.8C24.5,208.8,33.1,217.1,40,223.9z"/>
	<path id="XMLID_480_" class="st5" d="M78.5,247c-0.5,0-1,0-1.5,0c0,0.9-0.1,1.7-0.1,2.5c0.4-0.1,0.7-0.1,1.1-0.2
		c0.8-0.1,1.6,0.4,1.7,1.2s-0.4,1.6-1.2,1.7c-0.7,0.1-1.5,0.3-2.2,0.4c-1.2,4.4-4.2,6.6-11.3,6.6c-3.9,0-6.6-0.5-8.2-1.7
		c-0.7,0.3-1.4,0.5-2.2,0.8c-0.2,0.1-0.4,0.1-0.5,0.1c-0.6,0-1.2-0.4-1.4-1c-0.3-0.8,0.1-1.6,0.9-1.9c0.4-0.2,0.9-0.3,1.3-0.5
		c-0.8-2.6-1.4-5.2-1.9-7.8c-0.5,0.1-1,0.1-1.5,0.2c-0.1,0-0.1,0-0.2,0c-0.7,0-1.4-0.6-1.5-1.3c0.5,3.3,1.2,6.7,2.3,10
		c1.8,5.5,8.3,6.1,13,6.1c13.8,0,15-8.5,15-16.5c0-0.1,0-0.1,0-0.2C80,246.4,79.3,247.1,78.5,247z"/>
	<path id="XMLID_479_" class="st5" d="M68.1,200.5c1.2-3,2-4.5,3.6-4.5c1.4,0,1.8,0.9,2.3,3.8c0.4,2.2,0.9,5.5,4.3,5.5
		c1.7,0,3.2-1.2,4.6-2.3c0.7-0.5,1.3-1.1,2-1.4c0.7-0.4,1-1.3,0.6-2s-1.3-1-2-0.6c-0.8,0.5-1.6,1.1-2.3,1.7
		c-0.9,0.7-2.1,1.7-2.7,1.7c-0.7,0-0.9-0.4-1.4-3c-0.4-2.5-1.1-6.3-5.3-6.3c-3.8,0-5.2,3.5-6.3,6.3c-1.2,3-2.1,4.8-4.1,4.8
		c-1.7,0-2.3-1.4-3.1-4.7c-0.6-2.5-1.4-5.6-4.4-5.6c-10.9,0-15.2,14-11,14c0.8,0,1.5-0.7,1.5-1.5c0-5,4.5-9.5,9.5-9.5
		c0.6,0,1.1,1.9,1.5,3.4c0.7,3,1.7,7,6,7C65.3,207.2,66.9,203.4,68.1,200.5z"/>
	<path id="XMLID_478_" class="st5" d="M6.8,227.7c0.7,0.5,1.6,0.3,2.1-0.3c2.5-3.4,6.1-5.4,9.5-8.4c0.6-0.6,0.7-1.5,0.1-2.1
		c-0.5-0.6-1.5-0.6-2.1-0.1c-1.1,1-2.3,1.9-3.4,2.7C8.7,222.8,4.7,226.2,6.8,227.7"/>
	<path id="XMLID_472_" class="st5" d="M4.2,200.3c1.9,0.1,3.9,0.2,5.9,0.2c0.8,0,1.5-0.7,1.5-1.5s-0.7-1.5-1.5-1.5
		c-2,0-3.9-0.1-5.8-0.2"/>
	<path id="XMLID_471_" class="st5" d="M18.1,172.5c1.6,0,2.1-2.1,0.7-2.8c-3.3-1.6-5.9-4.1-7.3-7c-0.4-0.7-1.3-1-2-0.7
		c-0.7,0.4-1,1.3-0.7,2C11.3,169.1,16.9,172.5,18.1,172.5z"/>
	<path id="XMLID_470_" class="st5" d="M41.9,154.8c0.1,0.8,0.8,1.4,1.7,1.3c0.8-0.1,1.4-0.9,1.3-1.7c-0.2-1.4-0.5-2.8-0.9-4.2
		c-0.3-1.3-0.6-2.6-0.8-3.8c-0.1-0.8-0.9-1.4-1.7-1.3c-0.8,0.1-1.4,0.9-1.3,1.7C40.6,149.6,41.6,152.3,41.9,154.8z"/>
	<path id="XMLID_469_" class="st5" d="M79.4,154.8c0.1,0,0.1,0,0.2,0c0.8-0.1,1.4-0.9,1.3-1.7c0-0.3-0.1-0.6-0.1-0.9
		c0-1,0.2-1.9,0.3-3c0.2-1.1,0.4-2.3,0.4-3.6c0-0.8-0.7-1.5-1.5-1.5s-1.5,0.7-1.5,1.5c0,1-0.2,2-0.4,3.1c-0.2,1.1-0.4,2.2-0.4,3.5
		c0,0.5,0,0.9,0.1,1.3C78,154.2,78.7,154.8,79.4,154.8z"/>
	<path id="XMLID_24_" class="st5" d="M100.8,170.5c0.3,0,0.5-0.1,0.8-0.2c1.1-0.7,2.1-1.5,3-2.3c1.4-1.2,2.7-2.3,4.3-2.8
		c0.8-0.3,1.2-1.1,0.9-1.9c-0.3-0.8-1.1-1.2-1.9-0.9c-2.1,0.7-3.7,2.1-5.3,3.4c-0.9,0.8-1.8,1.5-2.7,2.1c-0.7,0.4-0.9,1.4-0.5,2.1
		C99.8,170.2,100.3,170.5,100.8,170.5z"/>
	<path id="XMLID_23_" class="st5" d="M112,193.9c2.2,1.2,4.3,1.2,6.3,1.2c1.1,0,2.1,0,3.1,0.2c0.1,0,0.2,0,0.3,0
		c0.7,0,1.3-0.5,1.5-1.2c0.2-0.8-0.3-1.6-1.1-1.8c-1.3-0.3-2.6-0.3-3.8-0.3c-1.8,0-3.3,0-4.8-0.9c-0.7-0.4-1.6-0.1-2,0.6
		C111,192.6,111.3,193.5,112,193.9z"/>
	<path id="XMLID_22_" class="st5" d="M116.7,231c1,0.6,1.9,1.3,2.9,1.9c0.3,0.2,0.6,0.3,0.9,0.3c0.5,0,0.9-0.2,1.2-0.6
		c0.5-0.7,0.3-1.6-0.4-2.1c-1-0.7-2-1.3-3-2c-3.3-2.2-6.5-4.2-8.7-7.3c-0.5-0.7-1.4-0.9-2.1-0.4s-0.9,1.4-0.4,2.1
		C109.7,226.4,113.2,228.7,116.7,231z"/>
	<path id="XMLID_21_" class="st5" d="M53.6,255.6c-0.8,0.3-1.2,1.2-0.9,1.9c0.2,0.6,0.8,1,1.4,1c0.2,0,0.4,0,0.5-0.1
		c0.7-0.3,1.4-0.5,2.2-0.8c6.5-2.3,13.1-3.8,19.5-5c0.7-0.1,1.5-0.3,2.2-0.4c0.8-0.1,1.4-0.9,1.2-1.7c-0.1-0.8-0.9-1.4-1.7-1.2
		c-0.4,0.1-0.7,0.1-1.1,0.2c-7.1,1.3-14.6,2.9-22,5.6C54.4,255.3,54,255.4,53.6,255.6z"/>
	<path id="XMLID_20_" class="st5" d="M78.5,244c-0.5,0-1,0-1.6,0s-1.3,0-1.9-0.1c-3.4-0.1-6.8-0.2-10.3-0.2c-4.7,0-8.6,0.2-12.3,0.6
		c-0.5,0.1-1,0.1-1.5,0.2c-0.8,0.1-1.4,0.9-1.3,1.7c0.1,0.8,0.7,1.3,1.5,1.3c0.1,0,0.1,0,0.2,0c0.5-0.1,1-0.1,1.5-0.2
		c3.5-0.4,7.3-0.5,11.8-0.5c3.4,0,6.8,0.1,10.2,0.2c0.7,0,1.3,0,2,0.1c0.5,0,1,0,1.5,0c0.9,0,1.5-0.6,1.5-1.5
		C80,244.7,79.4,244.1,78.5,244z"/>
	<path id="XMLID_15_" class="st5" d="M77.7,235.7c0.7,0,1.3,0.1,2,0.1c0.8,0.1,1.5-0.6,1.6-1.4c0-0.8-0.6-1.5-1.4-1.6
		c-0.4,0-0.7,0-1.1-0.1c-4.9-0.2-9.4-0.4-13.9-0.4c-4.9,0-9.7,0.2-14.4,0.5c-0.4,0-0.9,0-1.3,0.1c-0.8,0.1-1.4,0.8-1.4,1.6
		c0.1,0.8,0.7,1.4,1.5,1.4h0.1c0.6,0,1.1-0.1,1.7-0.1c4.4-0.3,9-0.4,13.7-0.4C69.1,235.4,73.3,235.5,77.7,235.7z"/>
	<path id="XMLID_43_" class="st5" d="M178,253.5v-0.1C178,253.4,178,253.4,178,253.5z"/>
	<path id="XMLID_42_" class="st5" d="M177.9,253.8v-0.1C177.9,253.7,177.9,253.7,177.9,253.8z"/>
	<path id="XMLID_30_" class="st5" d="M178.9,252.5c0.1,0,0.1,0,0.2,0C179,252.5,179,252.5,178.9,252.5z"/>
	<path id="XMLID_28_" class="st5" d="M178.1,253.2c0,0,0-0.1,0.1-0.1C178.1,253.1,178.1,253.2,178.1,253.2z"/>
	<path id="XMLID_27_" class="st5" d="M178.7,252.6l0.1-0.1C178.8,252.6,178.7,252.6,178.7,252.6z"/>
	<path id="XMLID_26_" class="st5" d="M178.2,253l0.1-0.1C178.3,252.9,178.3,252.9,178.2,253z"/>
	<path id="XMLID_9_" class="st5" d="M178.4,252.8l0.1-0.1C178.5,252.7,178.5,252.7,178.4,252.8z"/>
	<path id="XMLID_639_" class="st5" d="M160.8,114.4c-0.1,1.1-0.2,2.1-0.3,3"/>
	<path id="XMLID_10_" class="st5" d="M128,130.6"/>
	<path id="XMLID_631_" class="st5" d="M70.5,400.8"/>
	<path id="XMLID_628_" class="st5" d="M160.4,307.3c0,2,3,2,3,0c0-6.6,0.1-10.2,0.1-15.4c0-2-3-2-3,0c0,4.3-0.1,9.5-0.1,13.7V307.3z
		"/>
	<path id="XMLID_59_" class="st5" d="M228.3,31.8c-9.3,0.1-18.8,0.4-28.1,0.6c-5,0.1-10.1,0.2-15.3,0.3c0.3,1,0.3,2,0.1,3
		c5.1-0.1,10.2-0.2,15.2-0.3c9.2-0.2,18.7-0.5,28-0.6c0.8,0,1.5-0.7,1.5-1.5C229.8,32.4,229.1,31.8,228.3,31.8z"/>
	<path id="XMLID_64_" class="st5" d="M208,50.6C189.6,50,170.8,49,170.5,49c-0.9,0.1-1.7,0.1-2.5,0.1s-1.5,0.7-1.4,1.6
		c0,0.8,0.7,1.5,1.6,1.4c0.8,0,1.6-0.1,2.3-0.1c0.3,0,18.7,0.9,37,1.6C207.4,52.6,207.6,51.6,208,50.6z"/>
	<path id="XMLID_107_" class="st5" d="M370.9,46.1c-5.3,0.2-10.7,0.3-15.8,0.4c-9.6,0.2-19.6,0.3-29.5,1.2
		c-5.7,0.5-11.7,0.8-19.6,0.8c-3.7,0-7.5-0.1-11.1-0.1c-3.6-0.1-7.4-0.1-11.1-0.1c-11,0-16.1,0.7-21.5,1.4c-1.7,0.2-3.5,0.5-5.4,0.7
		c0.4,0.9,0.5,2,0.3,3c2-0.2,3.8-0.4,5.6-0.7c5.3-0.7,10.3-1.4,21.1-1.4c3.7,0,7.5,0.1,11.1,0.1c3.6,0.1,7.4,0.1,11.1,0.1
		c7.9,0,14.1-0.2,19.9-0.8c9.8-0.9,19.7-1.1,29.3-1.2c4.9-0.1,10-0.2,15-0.3C370.1,48.1,370.4,47,370.9,46.1z"/>
	<path id="XMLID_465_" class="st5" d="M479.3,46.8c-3.2,0-6.5,0.1-9.7,0.1c-8.4,0-16.9-0.1-25.1-0.2c-8.2-0.1-16.7-0.2-25.1-0.2
		c-7.2,0-13.6,0.1-19.6,0.3c0.8,0.7,1.3,1.7,1.3,3c5.6-0.1,11.6-0.2,18.3-0.2c8.4,0,16.8,0.1,25.1,0.2c8.2,0.1,16.8,0.2,25.2,0.2
		c3.3,0,6.5,0,9.8-0.1c0.8,0,1.5-0.7,1.5-1.5C480.9,47.4,480.2,46.8,479.3,46.8z"/>
	<path id="XMLID_16_" class="st5" d="M484.9,27.1c-1.8-0.3-3.8-0.4-6.1-0.4c-1.4,0.1-143.4,5.3-180.4,5.3c-14,0-27-0.3-39.5-0.8
		c0.1,0.9,0,1.9-0.3,2.8c0,0.1,0.1,0.1,0.1,0.2c12.6,0.5,25.7,0.8,39.7,0.8c37,0,179.1-5.2,180.5-5.3c2.1,0,3.9,0.1,5.6,0.4
		c0.8,0.1,1.6-0.5,1.7-1.3C486.3,28,485.7,27.2,484.9,27.1z"/>
	<path id="XMLID_621_" class="st5" d="M194.6,281.1c2.8,0,5.1-1.9,5.6-3.8c0.6-2.3-1.2-4.5-3.2-5.2c-1.8-0.6-3.7-0.3-5.1,0
		c-0.7,0.1-1.2,0.7-1.2,1.4C188.3,276.2,189.9,281.1,194.6,281.1z M194.3,274.7c0.7,0,0.8,0.4,1.7,0.1h0.1c0.8,0.3,1.4,1,1.2,1.6
		c-0.1,0.2-0.2,0.5-0.5,0.8c-1.1,1-3.2,1.2-3.9,0.1C192.2,276.3,192.8,274.7,194.3,274.7z"/>
	<path id="XMLID_620_" class="st5" d="M211.2,280.3c-0.2-0.8-1-1.3-1.8-1.1c-7.7,1.9-15.3,4.5-22.6,7.7c-1.8,0.8-0.6,3.5,1.2,2.7
		c7.1-3.2,14.5-5.7,22.1-7.5C210.9,281.9,211.3,281.1,211.2,280.3z"/>
	<path id="XMLID_617_" class="st5" d="M197.2,299c1.6,0.3,3.2,0,4.4-0.9c3.6-2.4,2.5-6.9-0.4-8.7c-2.5-1.5-8-1.4-7.3,1.2
		c0.1,0.3,0.2,0.5,0.4,0.7C192.1,294.1,193.3,298.2,197.2,299z M197.4,292.8c0.7,0,1.3-0.5,1.4-1.2c1.7,0.5,2.4,2.1,2,3
		c-0.7,1.7-3.5,2-4.4,0.6C195.9,294.4,196.5,292.9,197.4,292.8z"/>
	<path id="XMLID_616_" class="st5" d="M223.4,96.9c1.1-1.8,3.2-3,5.3-3c2.1,0.1,4.2,1.3,5.2,3.2c0.4,0.7,1.3,1,2,0.6s1-1.3,0.6-2
		c-1.5-2.9-4.6-4.7-7.8-4.8c-3.2-0.1-6.4,1.7-8,4.4c-0.8,1.4-1.3,3-1.4,4.8c-0.2,3.2,0.9,5.9,3,7.2c1.3,0.8,2.8,1,4,1.2h0.2
		c4.1,0.6,6.6,1.7,8,3.7c0.9,1.2,1.2,2.8,0.9,4.5c-0.3,1.8-1.4,3.4-2.7,4.4c-2.3,1.5-5.5,1.5-8,0.1c0-0.7-0.6-1.4-1.3-1.4l-1.1-0.1
		c-0.6-0.1-1.3,0.3-1.5,0.9c-0.3,0.6-0.1,1.3,0.3,1.7c2.1,2,4.9,3,7.7,3c2,0,4-0.5,5.7-1.7c2.1-1.4,3.5-3.7,4-6.3
		c0.5-2.5,0-4.9-1.4-6.8c-2.5-3.5-6.9-4.5-10-4.9h-0.3c-1.1-0.1-2.1-0.3-2.8-0.8c-1.4-0.9-1.7-2.9-1.6-4.5
		C222.5,99,222.8,97.9,223.4,96.9z"/>
	<path id="XMLID_615_" class="st5" d="M246.9,107.1c-0.8-0.1-1.5,0.6-1.6,1.4c-0.3,4.2-0.4,8.5-0.4,12.7c0,0.8,0.7,1.5,1.5,1.5
		s1.5-0.7,1.5-1.5v-0.9c0-0.1,0-0.2,0-0.2c0-3.8,0.1-7.6,0.4-11.3C248.3,107.9,247.7,107.2,246.9,107.1z"/>
	<path id="XMLID_612_" class="st5" d="M248.2,92.1c-0.8-0.9-2-1.3-3.3-0.9c-0.8,0.2-1.4,0.7-1.8,1.3c-0.7,0.4-1.1,1.2-1.3,2
		c-0.2,1,0.2,2,0.9,2.7c0.6,0.6,1.5,1,2.5,1c0.7,0,1.5-0.2,2.2-0.7c0.9-0.6,1.5-1.6,1.6-2.7C249.1,93.7,248.8,92.8,248.2,92.1z
		 M245.6,95c-0.3,0.2-0.7,0.2-0.8,0.1c0.4-0.2,0.7-0.6,0.8-1c0.1,0,0.2,0,0.3,0c0.1,0.1,0.1,0.2,0.1,0.4
		C245.9,94.6,245.8,94.9,245.6,95z"/>
	<path id="XMLID_611_" class="st5" d="M294.3,153.7c-0.3,4.4-2.9,9.4-7.5,10.5c-0.1,0-0.2,0-0.3,0c0-0.4-0.2-0.9-0.5-1.2
		c-0.6-0.5-1.6-0.5-2.1,0.1c-0.6,0.7-0.7,1.7-0.2,2.5c0.6,0.9,1.8,1.5,3,1.5c0.3,0,0.5,0,0.8-0.1c6-1.4,9.5-7.7,9.8-13.2
		c0.2-4-0.8-7.9-2-11.5c-1,0.1-2.1,0.2-3.1,0.3C293.5,146.1,294.6,150,294.3,153.7z"/>
	<path id="XMLID_610_" class="st5" d="M293.6,138c-1.9-4.7-3.9-9.6-3.7-14.5c0.1-5.9,3.6-11.7,8.7-14.7c0.4,0.5,1.1,0.7,1.7,0.4
		c0.7-0.3,1.1-1,1.1-1.8c0-0.9-0.6-1.6-1.4-1.9c-1-0.4-2,0.1-2.4,0.3c-6.4,3.4-10.7,10.3-10.9,17.6c-0.1,5.5,1.9,10.7,4,15.7
		c0.1,0.2,0.2,0.4,0.2,0.6c1-0.1,2.1-0.2,3.1-0.3C294,139,293.8,138.5,293.6,138z"/>
	<path id="XMLID_609_" class="st5" d="M304.2,139.8c-0.1-0.8-0.9-1.4-1.7-1.3c-2.7,0.4-5.5,0.7-8.3,0.9c-1,0.1-2.1,0.2-3.1,0.3
		c-3.2,0.2-6.5,0.4-9.7,0.4c-0.8,0-1.5,0.7-1.5,1.5s0.7,1.5,1.5,1.5c3.6,0,7.2-0.2,10.9-0.4c1-0.1,2.1-0.2,3.1-0.3
		c2.5-0.2,5.1-0.5,7.6-0.9C303.7,141.4,304.3,140.7,304.2,139.8z"/>
	<path id="XMLID_608_" class="st5" d="M318.3,113c0.5-0.7,0.4-1.6-0.3-2.1c-0.7-0.5-1.6-0.4-2.1,0.3c-5.8,7.6-9.1,17.9-9.9,31.5
		c-0.9,14,1.6,24.2,7.7,31.2c0.3,0.3,0.7,0.5,1.1,0.5s0.7-0.1,1-0.4c0.6-0.5,0.7-1.5,0.1-2.1c-5.5-6.3-7.8-15.8-7-29
		C309.8,129.9,312.9,120.1,318.3,113z"/>
	<path id="XMLID_607_" class="st5" d="M323.4,155.3c0.2,0.1,0.4,0.1,0.6,0.1c0.6,0,1.1-0.3,1.4-0.9l3.3-7c-0.7-0.9-1.4-1.7-2.1-2.7
		l-4,8.3C322.4,154.1,322.7,155,323.4,155.3z"/>
	<path id="XMLID_606_" class="st5" d="M337.6,129.2c0.4-0.7,0-1.6-0.7-2s-1.6,0-2,0.7l-6.7,13.9c0.6,1,1.3,1.9,2,2.8L337.6,129.2z"
		/>
	<path id="XMLID_605_" class="st5" d="M336.4,154.7c0.3,0.2,0.6,0.3,0.9,0.3c0.5,0,0.9-0.2,1.2-0.6c0.5-0.7,0.3-1.6-0.4-2.1
		c-3-2.1-5.7-4.7-7.9-7.6c-0.7-0.9-1.4-1.8-2-2.8c-1.7-2.6-3-5.4-4-8.3c-0.3-0.8-1.1-1.2-1.9-1c-0.8,0.3-1.2,1.1-1,1.9
		c1.2,3.7,3,7.3,5.3,10.5c0.6,0.9,1.3,1.8,2.1,2.7C331,150.3,333.6,152.7,336.4,154.7z"/>
	<path id="XMLID_604_" class="st5" d="M344.3,175.6c0.2,0.1,0.5,0.2,0.7,0.2c0.5,0,1-0.3,1.3-0.8c4.8-8.7,7-19.3,6.5-31.6
		c-0.4-10.8-2.8-21.4-5.1-31.7c-0.2-0.8-1-1.3-1.8-1.1c-0.8,0.2-1.3,1-1.1,1.8c2.3,10.1,4.6,20.6,5.1,31.1c0.5,11.7-1.6,21.8-6.2,30
		C343.3,174.3,343.5,175.2,344.3,175.6z"/>
	<path id="XMLID_603_" class="st5" d="M369.7,129.2c1.8,0,3.6,0,5.4-0.1c0.8,0,1.5-0.7,1.4-1.6c0-0.8-0.7-1.5-1.6-1.4
		c-4.5,0.2-9.1,0.1-13.5-0.1c-0.8,0-1.5,0.6-1.6,1.4c0,0.8,0.6,1.5,1.4,1.6C364.1,129.1,366.9,129.2,369.7,129.2z"/>
	<path id="XMLID_602_" class="st5" d="M361.7,140.2L361.7,140.2l13.9-0.7c1.7-0.1,3.6-0.2,5.5-0.9c0.8-0.3,1.1-1.2,0.8-2
		c-0.3-0.8-1.2-1.1-2-0.8c-1.3,0.6-2.9,0.6-4.5,0.7l-13.8,0.7c-0.8,0-1.5,0.8-1.4,1.6C360.2,139.5,360.9,140.2,361.7,140.2z"/>
	<path id="XMLID_601_" class="st5" d="M382.2,160.9c0.3,0.4,0.7,0.7,1.2,0.7c2.8,0.1,5.5,0,8.2-0.1c2-0.1,4-0.1,6-0.1
		c3.4,0,7.9,0.2,12.3,1.4c0.1,0,0.3,0.1,0.4,0.1c0.7,0,1.3-0.4,1.4-1.1c0.2-0.8-0.2-1.6-1-1.8c-4.8-1.3-9.5-1.5-13.1-1.5
		c-2,0-4.1,0.1-6.1,0.1c-1.9,0.1-3.8,0.1-5.8,0.1c4.9-10.2,11.9-19.2,20-29.1c0.3-0.3,0.4-0.8,0.3-1.2s-0.3-0.8-0.7-1
		c-6.6-4.3-14-9.6-19.6-16.5c6.1-0.1,12.4-0.3,18.8-1.1c0.8-0.1,1.4-0.9,1.3-1.7c-0.1-0.8-0.9-1.4-1.7-1.3
		c-7.3,0.9-14.6,1.1-21.5,1.1c-0.6,0-1.1,0.3-1.3,0.8c-0.3,0.5-0.2,1.1,0.1,1.6c5.6,8,13.5,14,20.8,18.8
		c-8.3,10.2-15.5,19.6-20.3,30.6C381.9,159.9,381.9,160.4,382.2,160.9z"/>
	<path id="XMLID_600_" class="st5" d="M433.5,123.9c0,0.7-0.7,5.9-3.2,5.9c-1.1,0-1.4-0.5-2-1.5c-0.1-0.2-0.2-0.4-0.3-0.5
		c-0.5-0.7-1.4-0.9-2.1-0.4s-0.9,1.4-0.4,2.1c0.1,0.1,0.2,0.3,0.3,0.4c0.6,1,1.8,3,4.6,3c5.1,0,6.2-7.1,6.2-8.9
		c0-4.3-0.9-8.8-1.7-13.2c-1,0.1-2,0.2-3,0.3C432.7,115.6,433.5,119.8,433.5,123.9z"/>
	<path id="XMLID_599_" class="st5" d="M440.1,81.7c0.8-0.2,1.3-1,1.1-1.8c-0.2-0.8-1-1.3-1.8-1.1c-6.5,1.6-9.5,10.3-9.5,17.7
		c0,3.8,0.6,7.7,1.4,11.6c1-0.1,2-0.2,3-0.3c-0.7-3.8-1.4-7.6-1.4-11.3C432.8,91.3,434.8,83.1,440.1,81.7z"/>
	<path id="XMLID_598_" class="st5" d="M423.4,108.4c-0.8,0-1.5,0.7-1.5,1.5s0.7,1.5,1.5,1.5c3,0,5.8-0.1,8.4-0.3c1-0.1,2-0.2,3-0.3
		c1.5-0.2,3-0.4,4.5-0.7c0.8-0.2,1.4-0.9,1.2-1.8c-0.2-0.8-0.9-1.4-1.8-1.2c-1.5,0.3-3,0.5-4.5,0.7c-1,0.1-2,0.2-3,0.3
		C428.8,108.3,426.2,108.4,423.4,108.4z"/>
	<path id="XMLID_597_" class="st5" d="M460.1,81.3c0.2-0.8-0.3-1.6-1.1-1.8c-0.8-0.2-1.6,0.3-1.8,1.1c-0.3,1.2-0.6,2.3-0.9,3.5
		c-2.5,9.6-5.1,19.6-5.1,29.5c0,7.9,1.7,14.7,5.1,20.8c0.3,0.5,0.8,0.8,1.3,0.8c0.3,0,0.5-0.1,0.7-0.2c0.7-0.4,1-1.3,0.6-2
		c-3.2-5.6-4.7-11.9-4.7-19.3c0-9.5,2.5-19.3,5-28.8C459.5,83.6,459.9,82.5,460.1,81.3z"/>
	<path id="XMLID_596_" class="st5" d="M472,125.4L472,125.4c0.9,0,1.5-0.6,1.6-1.4c0-1.3,0.1-2.6,0.1-4.1c0-2.1,0-4.3-0.1-6.4
		c0-2.1-0.1-4.2-0.1-6.3c0-1,0-2,0-3.1c0-0.6-0.3-1.1-0.8-1.4s-1.2-0.2-1.6,0.2c-2,1.7-4.7,3.3-7.9,4.6c-0.8,0.3-1.1,1.2-0.8,2
		c0.3,0.8,1.2,1.1,2,0.8c2.3-1,4.4-2.1,6.1-3.2v0.1c0,2.1,0,4.3,0.1,6.4c0,2.1,0.1,4.2,0.1,6.3c0,1.4,0,2.7-0.1,4
		C470.5,124.7,471.1,125.4,472,125.4z"/>
	<path id="XMLID_595_" class="st5" d="M479.9,127.7c0.2,0.1,0.3,0.1,0.5,0.1c0.6,0,1.2-0.4,1.4-1c5.4-15.2,2.8-30.9-0.3-46.5
		c-0.2-0.8-1-1.3-1.8-1.2c-0.8,0.2-1.3,1-1.2,1.8c1.7,8.5,3.4,17.5,3.4,26.4c0,6.8-1,12.9-3,18.5
		C478.7,126.6,479.1,127.4,479.9,127.7z"/>
	<path id="XMLID_594_" class="st5" d="M441.7,136.8c-8-0.2-16.2-0.3-24.4-0.3c-0.8,0-1.5,0.7-1.5,1.5s0.7,1.5,1.5,1.5
		c8.1,0,16.3,0.2,24.3,0.3c7.9,0.2,16.1,0.3,24.2,0.3c11.2,0,20.5-0.3,29.3-1c0.8-0.1,1.4-0.8,1.4-1.6c-0.1-0.8-0.8-1.4-1.6-1.4
		c-8.7,0.7-17.9,1-29,1C457.8,137.1,449.6,136.9,441.7,136.8z"/>
	<path id="XMLID_593_" class="st5" d="M443.9,144.4c-0.7-0.5-1.6-0.4-2.1,0.3c-5.5,7.3-8.5,24.3-8.5,31c0,2.2,0.8,4.8,2.9,4.8
		c0.2,0,0.3,0,0.5-0.1c3.3-0.8,6.6-2.1,10.6-4.1c0.7-0.4,1-1.3,0.7-2c-0.4-0.7-1.3-1-2-0.7c-3.6,1.8-6.5,3-9.4,3.7
		c-0.1-0.4-0.2-1-0.2-1.7c0-6.4,3.1-22.7,7.9-29.2C444.7,145.8,444.6,144.9,443.9,144.4z"/>
	<path id="XMLID_592_" class="st5" d="M456.1,149.4c-0.9,0-1.5,0.6-1.6,1.4c-0.1,2.9-0.2,5.4-0.2,7.8c0,4.9,0.3,9.4,0.9,13.5
		c0.1,0.7,0.7,1.3,1.5,1.3c0.1,0,0.1,0,0.2,0c0.8-0.1,1.4-0.9,1.3-1.7c-0.6-4-0.9-8.3-0.9-13.1c0-2.3,0.1-4.8,0.2-7.6
		C457.6,150.2,456.9,149.5,456.1,149.4z"/>
	<path id="XMLID_589_" class="st5" d="M488.9,151.2c0-3.4-3.5-5-5.9-5c-0.5,0-1,0.1-1.4,0.2c-2.5,0.6-3.6,3.2-3.6,5.5
		c0,3.4,2.4,5.2,4.8,5.2C485.9,157.1,488.9,154.2,488.9,151.2z M481,151.9c0-1.1,0.5-2.4,1.3-2.6c0.2-0.1,0.5-0.1,0.7-0.1
		c0.6,0,2.9,0.5,2.9,2c0,1.2-1.6,2.9-3.1,2.9C482.4,154.1,481,153.9,481,151.9z"/>
	<path id="XMLID_165_" class="st5" d="M512.4,0.9c-6.3-0.2-11.6,4.8-11.8,11.1c-0.9,29.9,0.1,38,0.7,43.3c1,8.1,0.7,26.6,1.6,59.4
		c0.2,6,5,10.7,11,10.8c23.8,0.4,29.1,1.2,75-3.4c6.7-0.7,11.8-6.5,11.6-13.2c-1-32.3-0.9-64.8-2-97.1c-0.2-6.3-5.6-11.3-12-10.9"/>
	<path id="XMLID_164_" class="st5" d="M586.6,4c4.7-0.3,8.7,3.3,8.8,8c1,32.3,1,64.9,2,97.1c0.2,5.1-3.7,9.6-8.9,10.1
		c-45.7,4.6-51,3.8-74.7,3.4c-4.4-0.1-7.9-3.5-8-7.9c-1-33.4-0.6-51.4-1.6-59.6c-0.5-5.3-1.5-13.2-0.6-42.9c0.1-4.7,4.1-8.3,8.7-8.2
		"/>
	<path id="XMLID_583_" class="st5" d="M513.2,40.7c0,0.8,0.6,1.4,1.4,1.5c22.7,0.9,45.2,1.2,67.9,0.3c0.8,0,1.5-0.7,1.4-1.6
		c-0.4-8.4-1.3-15.7-1.3-24.4c0-0.8-0.7-1.5-1.5-1.5c-22.3-0.2-44.6,0.3-66.8,0.4c-0.8,0-1.5,0.6-1.5,1.4
		c-0.2,5.8-0.1,11.7,0.1,17.6C513.1,36.6,513.2,38.6,513.2,40.7z M515.9,18.4c21.2-0.1,42.6-0.5,63.8-0.4c0,7.2,0.8,14.4,1.2,21.5
		c-21.6,0.8-42.9,0.5-64.7-0.3C516,32.3,515.7,25.2,515.9,18.4z"/>
	<path id="XMLID_580_" class="st5" d="M516.1,73.6c4.2-0.2,8.3-0.5,12.3-0.7c0.8,0,1.4-0.7,1.4-1.5c0-3.7,0-8.5-0.2-13.3
		c0-0.8-0.7-1.5-1.5-1.5c-4.4,0.1-8.8,0.1-13.2-0.1c-1,0-1.6,0.8-1.5,1.6c0.4,4.5,0.8,9.3,1,14C514.6,73,515.2,73.6,516.1,73.6z
		 M526.7,59.7c0.1,3.6,0.1,7.3,0.1,10.3c-3.2,0.1-6.6,0.4-9.5,0.5c-0.2-3.7-0.5-7.4-0.8-10.9C520,59.7,523.4,59.7,526.7,59.7z"/>
	<path id="XMLID_577_" class="st5" d="M556.8,67.9c-0.2-3.3-0.4-6.6-0.5-9.9c0-0.8-0.7-1.4-1.5-1.5c-13.1-0.2-16.3-1.7-16.2,0.9
		c0.2,4.3,0.6,8.8,0.9,13.1c0.1,0.8,0.7,1.4,1.5,1.4C558,71.7,557.2,74,556.8,67.9z M553.3,59.5c0.1,3.3,0.3,6.5,0.5,9.7
		c-3.7,0-7.6-0.2-11.5-0.2c-0.2-3-0.5-6.6-0.7-10C545.5,59.1,549.4,59.4,553.3,59.5z"/>
	<path id="XMLID_574_" class="st5" d="M581.8,55.1h-13.2c-0.8,0-1.4,0.6-1.5,1.4c-0.4,4.5-0.4,9.1,0.1,13.6c0.1,0.7,0.7,1.3,1.5,1.3
		c13,0.2,16,0.3,15.7-1.9c-0.5-4.3-1-8.6-1.2-12.9C583.2,55.7,582.6,55.1,581.8,55.1z M570,68.4c-0.3-3.4-0.3-6.9-0.1-10.3h10.4
		c0.2,3.4,0.6,6.8,0.9,10.2C577.6,68.6,573.8,68.5,570,68.4z"/>
	<path id="XMLID_571_" class="st5" d="M532.3,94.5c-0.1-3.8-0.5-10-1-13.8c-0.1-0.8-0.8-1.4-1.5-1.3c-11.5,0.3-15.5-1.4-15.1,1.5
		c1.4,9.8-0.6,14.6,2.1,14.7C528.4,96.2,532.3,97,532.3,94.5z M528.5,82.4c0.3,3.2,0.6,7.5,0.8,10.7c-3.6,0.1-7.3-0.2-10.9-0.5
		c-0.1-3.5-0.1-6.9-0.5-10.4C521.4,82.3,524.9,82.5,528.5,82.4z"/>
	<path id="XMLID_568_" class="st5" d="M543.2,95.4c21.5-1.5,15.1,4.5,14.3-16.3c0-0.4-0.2-0.8-0.5-1.1c-0.7-0.6-0.8-0.3-5.7-0.3
		c-8.6,0-10.5-0.6-10.5,1.4c-0.2,5,0.2,10,0.8,14.9C541.7,94.9,542.5,95.4,543.2,95.4z M543.8,80.7c3.2,0,7.5,0.1,10.9,0
		c0.2,3.9,0.8,7.7,1.3,11.4c-3.8,0.1-7.6,0-11.4,0.2C544,88.4,543.7,84.6,543.8,80.7z"/>
	<path id="XMLID_565_" class="st5" d="M582.5,78c-9.8,1.2-15.7-0.1-15.3,2.8c3.2,24.9,2.7,30,5.3,29.7c12.9-1.7,14.3-0.9,14.2-3
		c-0.5-9.4-2.3-18.7-2.5-28.1C584.2,78.5,583.4,77.9,582.5,78z M573.6,107.3c-1.4-8.5-2.1-17.1-3.2-25.4c3.6-0.4,7.2-0.4,10.9-0.8
		c0.3,8.5,1.8,16.8,2.4,25.1C580.4,106.6,576.9,106.9,573.6,107.3z"/>
	<path id="XMLID_562_" class="st5" d="M527.9,102c-9.9-0.6-11-0.2-11,1.3c-0.2,3.9,0.1,7.9,0.5,11.8c0.1,0.8,0.7,1.4,1.5,1.4
		c3.8,0,8.1,0,12.3-0.4c0.8-0.1,1.4-0.8,1.3-1.5c-0.1-3.5-0.5-8.4-0.7-11.1C531.6,101.8,530,102.1,527.9,102z M520.2,113.5
		c-0.3-3.1-0.5-5.8-0.4-8.7c3-0.1,6,0.1,9.1,0.2c0.2,2.3,0.4,5.5,0.5,8.2C526.3,113.5,523.3,113.5,520.2,113.5z"/>
	<path id="XMLID_559_" class="st5" d="M559.3,101.9c-0.1-0.8-0.8-1.4-1.6-1.4c-14.3,0.8-16.3-0.2-16.2,2.1
		c0.7,12.7,0.8,14.6,2.7,14.5c12.5-1,16.5,0.4,16.2-2.3C560.1,111.1,559.6,106.4,559.3,101.9z M545.4,113.9c-0.5-3.3-0.6-6.7-0.8-10
		c3.8-0.1,7.8-0.2,11.8-0.4c0.3,3.5,0.6,7,1,9.9C553.4,113.6,549.4,113.7,545.4,113.9z"/>
	<path id="XMLID_558_" class="st5" d="M567.9,201c-1.1-21.1-2.2-42.9-2.2-64.3c0-2-3-2-3,0c0,21.5,1.1,43.3,2.2,64.4
		c1.7,33.2,1.9,37.5,3,86.7c0.5,22.4,1,45.5,1.8,68.2c1,0,2-0.1,3-0.1C570.3,290,571.3,266.3,567.9,201z"/>
	<path id="XMLID_557_" class="st5" d="M587.6,340.7L587.6,340.7c0.9-0.1,1.5-0.8,1.4-1.6c-5.8-60-2.3-121.9-8.3-211.4
		c-0.1-2-3.1-1.8-3,0.2c6,89.3,2.5,151.3,8.3,211.4C586.2,340.1,586.8,340.7,587.6,340.7z"/>
	<path id="XMLID_556_" class="st5" d="M303.3,360.7c-7.3-0.1-14.9-0.2-22.4-0.4c-0.8,0-1.5,0.6-1.5,1.5c0,0.8,0.6,1.5,1.5,1.5
		c7.5,0.2,15.1,0.3,22.4,0.4c16,0.2,32.6,0.4,49.2,1.3c3.3,0.2,6.7,0.3,10.6,0.3c5.3,0,10.7-0.2,16-0.3c5.2-0.2,10.6-0.3,15.9-0.3
		c0.8,0,1.5-0.7,1.5-1.5s-0.7-1.5-1.5-1.5c-5.3,0-10.8,0.2-16,0.3c-5.2,0.2-10.6,0.3-15.9,0.3c-3.8,0-7.2-0.1-10.4-0.3
		C336,361.2,319.4,361,303.3,360.7z"/>
	<path id="XMLID_555_" class="st5" d="M535.7,380.8c-0.8,0.1-1.4,0.8-1.4,1.6c0.1,0.8,0.7,1.4,1.5,1.4h0.1
		c11.2-0.9,22.5-1.4,33.5-1.8c8.2-0.3,16.7-0.6,25.1-1.1c0.4,0,0.8-0.2,1-0.5c0.3-0.3,0.4-0.7,0.4-1.1c-0.4-3.9-0.4-7.7-0.4-11
		c0-1.4,0-2.9,0-4.4s0-2.9,0-4.4c0-1,0-2,0-3c0-0.4-0.2-0.8-0.5-1.1c-0.3-0.3-0.7-0.4-1.1-0.4c-20.3,0.9-50.9,2-78.1,2.6
		c0.1,0.4,0.2,0.8,0.2,1.2c0.2,0.8-0.3,1.6-1.2,1.8c-0.8,0.2-1.6-0.3-1.8-1.2c-0.1-0.6-0.2-1.2-0.3-1.8c-44.7,1.1-58.3,0.1-90.1,0.9
		c0,0.5,0,1,0,1.5c0,0.8-0.6,1.5-1.5,1.5s-1.5-0.6-1.5-1.5c0-0.5,0-1,0-1.5c-4.8,0.1-9.6,0.3-14.4,0.6c-0.8,0-1.5,0.7-1.4,1.6
		c0,0.8,0.7,1.5,1.6,1.4c18.8-1,38-1,56.1-1H475c31.2,0,86.7-1.9,117.5-3.2c0.1,6.2-0.2,13.2,0.3,19.9
		C573.9,379.1,554.7,379.2,535.7,380.8z"/>
	<path id="XMLID_554_" class="st5" d="M374.6,390.3c17.5,0,33.1-0.6,47.7-1.8c31.3-2.6,62.9-2.6,94.2-4.2c2-0.1,1.8-3.1-0.2-3
		c-11.7,0.6-23.7,1-35.2,1.3c-71.1,2.2-62.9,4.7-106.5,4.7c-21,0-42.3-0.9-62.9-1.7c-18.2-0.7-36.9-1.5-55.5-1.7
		c-0.8,0-1.5,0.7-1.5,1.5s0.7,1.5,1.5,1.5c18.5,0.2,37.3,0.9,55.4,1.7C332.3,389.5,353.6,390.3,374.6,390.3z"/>
	<path id="XMLID_553_" class="st5" d="M421.3,361.7c0.9,0,1.5-0.7,1.5-1.5c0-0.5,0-1,0-1.5c-0.1-3.8-0.3-7.6-0.5-11.3
		c-0.5,0-1,0-1.5,0.1h-0.1c-0.8,0-1.5-0.6-1.5-1.4s0.6-1.5,1.4-1.6c0.5,0,1,0,1.5-0.1c0-0.6-0.1-1.3-0.1-1.9
		c11.8-0.1,23.8-0.6,35.4-1.1c13.2-0.5,26.9-1.1,40.3-1.1c4.7,0,9.1,0.1,13.4,0.2c0,0.4,0,0.8,0.1,1.2c0.5,0,1,0,1.5-0.1
		c0.9,0,1.5,0.6,1.6,1.4c0,0.8-0.6,1.5-1.4,1.6c-0.5,0-1,0-1.5,0.1c0.3,4.8,0.9,9.1,1.6,13.1c0.1,0.6,0.2,1.2,0.3,1.8
		c0.2,0.8,1,1.3,1.8,1.2c0.8-0.2,1.3-1,1.2-1.8c-0.1-0.4-0.2-0.8-0.2-1.2c-1.1-5.4-1.7-11.6-1.9-18.8c0-0.8-0.7-1.4-1.4-1.4
		c-4.7-0.2-9.6-0.3-14.9-0.3c-13.5,0-27.2,0.6-40.4,1.1c-12.1,0.5-24.6,1-36.9,1.1c-0.4,0-0.8,0.2-1.1,0.5c-0.3,0.3-0.4,0.7-0.4,1.1
		c0.5,6,0.7,11.8,0.9,17.7c0,0.5,0,1,0,1.5C419.8,361.1,420.5,361.7,421.3,361.7z"/>
	<path id="XMLID_552_" class="st5" d="M511.2,344.6c0.5,0,1,0,1.5-0.1c0.8,0,1.5-0.7,1.4-1.6c0-0.8-0.7-1.5-1.6-1.4
		c-0.5,0-1,0-1.5,0.1c-13.8,0.6-27.7,0.9-41.2,1.2c-15.6,0.3-31.7,0.7-47.7,1.5c-0.5,0-1,0-1.5,0.1c-0.8,0-1.5,0.7-1.4,1.6
		c0,0.8,0.7,1.4,1.5,1.4h0.1c0.5,0,1,0,1.5-0.1c15.9-0.8,32-1.2,47.6-1.5C483.4,345.5,497.4,345.2,511.2,344.6z"/>
	<path id="XMLID_551_" class="st5" d="M398.6,284.5c-4.2,0.2-8.4,0.3-12.5,0.3c-5.2,0.1-10.5,0.1-15.8,0.5c-0.8,0.1-1.4,0.7-1.4,1.5
		c-0.1,6.6-0.9,13.5-1.6,20.2c-0.2,1.5-0.3,3-0.5,4.6c-0.7-0.9-1.3-1.9-2-2.8c-2.6-3.8-5.4-7.8-9.2-10.8c-0.7-0.5-1.6-0.4-2.1,0.3
		c-0.5,0.7-0.4,1.6,0.3,2.1c3.5,2.7,6,6.3,8.6,10.1c1.4,2,2.8,4.1,4.4,6c0.3,0.4,0.7,0.5,1.2,0.5c0.1,0,0.3,0,0.4-0.1
		c0.6-0.2,1-0.7,1.1-1.3c0.3-2.8,0.6-5.5,0.9-8.3c0.7-6.3,1.4-12.8,1.6-19.1c4.8-0.3,9.6-0.3,14.3-0.4c4.1,0,8.4-0.1,12.6-0.3
		c0.8,0,1.5-0.7,1.4-1.6C400.1,285.1,399.4,284.4,398.6,284.5z"/>
	<path id="XMLID_550_" class="st5" d="M383.7,299.6c-0.5-0.2-1.1-0.2-1.5,0.2l-1.3,1c-1.3,1-2.7,2-4.1,3.2c-0.6,0.5-0.7,1.5-0.2,2.1
		s1.5,0.7,2.1,0.2c1-0.8,2-1.6,3-2.4c0.2,2.1,0.4,4.2,0.6,6.3c0.2,2.5,0.5,5,0.7,7.6c0,0.8,0.7,1.4,1.5,1.4h0.1
		c0.8,0,1.5-0.8,1.4-1.6c-0.2-2.6-0.4-5.2-0.7-7.7c-0.3-3.1-0.6-6-0.7-8.9C384.5,300.3,384.2,299.8,383.7,299.6z"/>
	<path id="XMLID_547_" class="st5" d="M390.4,300.7c-1.2,2.8-1.8,5.8-1.8,8.4c0,6.2,3.8,10.1,6.5,10.1c3.1,0,7.8-5,7.8-11.9
		s-6.1-9.1-8.3-9.1C392.7,298.2,391.1,299.2,390.4,300.7z M399.9,307.3c0,5.4-3.5,8.9-4.8,8.9c-0.6,0-3.5-2-3.5-7.1
		c0-2.3,0.6-4.8,1.6-7.3c0.2-0.4,0.9-0.6,1.4-0.6C394.7,301.2,399.9,301.7,399.9,307.3z"/>
	<path id="XMLID_546_" class="st5" d="M426.6,231.2c0,1.6-0.1,3.3-0.1,5c0,15.6,1.4,31.4,2.7,46.7c0.1,1.3,0.2,2.6,0.3,3.9
		c1,0,2-0.1,3-0.1c-0.1-1.4-0.2-2.7-0.3-4.1c-1.3-15.2-2.7-31-2.7-46.5c0-1.1,0-2.3,0-3.4c-0.7-1-1.3-2.1-1.9-3.1
		C427.3,230.2,427,230.7,426.6,231.2z"/>
	<path id="XMLID_545_" class="st5" d="M430.8,301.2c0.1,0.8,0.7,1.4,1.5,1.4h0.1c0.8-0.1,1.4-0.8,1.4-1.6c-0.3-3.8-0.6-7.5-0.9-11.3
		c-1,0-2,0.1-3,0.1C430.2,293.6,430.5,297.4,430.8,301.2z"/>
	<path id="XMLID_544_" class="st5" d="M428.8,225.8c0.1,0.1,0.2,0.2,0.2,0.3l0.5,0.8c0.1,0.1,0.2,0.3,0.2,0.4
		C429.8,226.6,429.4,226.1,428.8,225.8z"/>
	<path id="XMLID_543_" class="st5" d="M429,226.1c-0.1-0.1-0.1-0.2-0.2-0.3c-0.3-0.3-0.6-0.4-1-0.4c-0.5,0-1,0.3-1.3,0.7
		c-3.7,5.7-7.7,10.6-12.2,14.8c-0.6,0.6-0.6,1.5-0.1,2.1c0.3,0.3,0.7,0.5,1.1,0.5s0.7-0.1,1-0.4c3.8-3.5,7.2-7.4,10.3-11.9
		c0.3-0.5,0.7-1,1-1.5c0.6,1,1.3,2.1,1.9,3.1c2.5,3.8,5.5,7.4,10,9.6c0.7,0.4,1.6,0.1,2-0.7c0.4-0.7,0.1-1.6-0.7-2
		c-5.3-2.6-8.2-7.4-11.3-12.4c-0.1-0.1-0.2-0.3-0.2-0.4L429,226.1z"/>
	<path id="XMLID_542_" class="st5" d="M420.2,287c-0.8,0-1.5,0.7-1.5,1.5s0.7,1.5,1.5,1.5c3.2,0,6.4-0.1,9.7-0.2c1,0,2-0.1,3-0.1
		c10.4-0.4,20.7-0.9,30.8-1.5c16.2-0.9,33-1.8,49.5-1.8c3.1,0,6.2,0,9.2,0.1c0.3-0.3,0.6-0.6,0.9-0.9c-0.7-0.7-1.5-1.4-2.1-2.1
		c-2.6,0-5.2-0.1-7.9-0.1c-16.6,0-33.4,0.9-49.6,1.9c-10.2,0.6-20.5,1.1-30.9,1.5c-1,0-2,0.1-3,0.1C426.4,286.9,423.3,287,420.2,287
		z"/>
	<path id="XMLID_541_" class="st5" d="M523.2,285.5c-0.3,0.3-0.6,0.6-0.9,0.9c-2.1,2.2-4,4.7-5.1,7.8c-0.3,0.8,0.1,1.6,0.9,1.9
		c0.2,0.1,0.4,0.1,0.5,0.1c0.6,0,1.2-0.4,1.4-1c1.3-3.4,3.5-5.9,6.5-8.8c0.3-0.3,0.5-0.7,0.5-1.2c0-0.4-0.2-0.8-0.6-1.1
		c-3.1-2.4-5.7-5.7-7.8-9.9c-0.4-0.7-1.3-1-2-0.7c-0.7,0.4-1,1.3-0.7,2c1.5,2.9,3.2,5.5,5.2,7.7
		C521.8,284.2,522.5,284.9,523.2,285.5z"/>
	<path id="XMLID_540_" class="st5" d="M538.8,312.4c0.3-0.5,0.4-1.1,0.1-1.6c-0.3-0.5-0.8-0.8-1.4-0.8c-6.2,0.5-12.5,0.5-18.6,0.5
		c-0.8,0-1.5,0.7-1.5,1.5s0.7,1.5,1.5,1.5c5.1,0,10.4,0,15.6-0.3c-0.7,1-1.4,1.9-2.2,2.9c-2.3,3-4.6,6.1-6.8,9.3
		c-0.3,0.5-0.4,1.1-0.1,1.6c0.3,0.5,0.8,0.8,1.3,0.8c6.4-0.2,12-0.8,17.5-1.7c0.8-0.1,1.4-0.9,1.2-1.7c-0.1-0.8-0.9-1.4-1.7-1.2
		c-4.4,0.8-9,1.3-13.9,1.5c1.6-2.3,3.3-4.5,5-6.7C536.1,316.1,537.5,314.3,538.8,312.4z"/>
	<path id="XMLID_539_" class="st5" d="M434.2,278.6c0.2,0.6,0.8,1,1.4,1c0.2,0,0.3,0,0.5-0.1c14.4-4.8,27.2-14.2,36.1-26.4
		c7.9-10.9,12.7-24,13.8-37.4c-0.6-1-1.1-1.9-1.6-3l-1.3,1.6c-0.9,13.3-5.5,26.3-13.3,37c-8.5,11.7-20.8,20.7-34.6,25.3
		C434.4,276.9,434,277.8,434.2,278.6z"/>
	<path id="XMLID_538_" class="st5" d="M486,215.7c0.7,1.1,1.4,2.1,2.2,3.1c0.5,0.6,1.5,0.7,2.1,0.2s0.7-1.5,0.2-2.1
		c-1.9-2.3-3.3-4.8-4.3-7.6c-0.2-0.5-0.6-0.9-1.2-1c-0.5-0.1-1.1,0.1-1.4,0.5l-8.5,10.4c-0.5,0.6-0.4,1.6,0.2,2.1
		c0.3,0.2,0.6,0.3,0.9,0.3c0.4,0,0.9-0.2,1.2-0.6l5.6-6.9l1.3-1.6C484.9,213.8,485.4,214.8,486,215.7z"/>
	<path id="XMLID_537_" class="st5" d="M518.4,239l-1.3,0.2c0.6,1.8,1.3,3.5,2,5.2c0.4,0.8,0.9,1.3,1.6,1.4c0.9,0.2,1.8-0.4,2-1.3
		c0.2-0.8-0.2-1.7-1-2c-0.1,0-0.2-0.1-0.2-0.1c-0.7-1.7-1.3-3.4-1.9-5.2C519.8,238.1,519.2,238.9,518.4,239z"/>
	<path id="XMLID_536_" class="st5" d="M504.9,247.5c0.2,0.1,0.4,0.1,0.6,0.1c0.6,0,1.1-0.3,1.4-0.9c0.9-2,1.7-4,2.5-6l-0.4,0.1
		c-0.1,0-0.2,0-0.3,0c-0.7,0-1.3-0.5-1.5-1.2c-0.2-0.8,0.4-1.6,1.2-1.8l2.2-0.4c1.2-3.1,2.3-6.3,3.2-9.5c0.7,2.8,1.4,5.7,2.2,8.5
		l1.7-0.3c0.7-0.1,1.3,0.2,1.6,0.8c-1.6-5-2.8-10.2-3.9-15.3c-0.1-0.7-0.7-1.2-1.4-1.2s-1.3,0.4-1.5,1.1c-2.2,8.2-5.1,16.3-8.5,24
		C503.8,246.3,504.2,247.2,504.9,247.5z"/>
	<path id="XMLID_535_" class="st5" d="M517.9,236.1l-1.7,0.3l-5.5,1l-2.2,0.4c-0.8,0.2-1.4,0.9-1.2,1.8c0.1,0.7,0.8,1.2,1.5,1.2
		c0.1,0,0.2,0,0.3,0l0.4-0.1l7.7-1.4l1.3-0.2c0.8-0.2,1.3-0.9,1.2-1.7c0-0.2-0.1-0.3-0.1-0.4C519.2,236.3,518.6,236,517.9,236.1z"/>
	<path id="XMLID_534_" class="st5" d="M524.2,237.7c0.6,3.1,2,5,3.9,5.6c0.5,0.2,0.9,0.2,1.4,0.2c1.6,0,2.9-0.8,4.2-1.5
		c0.9-0.5,1.8-1,2.6-1.2c0.8-0.1,1.4-0.9,1.2-1.7c-0.1-0.8-0.9-1.4-1.7-1.2c-1.4,0.2-2.6,0.9-3.6,1.6c-1.4,0.8-2.3,1.3-3.2,1.1
		c-1.1-0.3-1.6-2-1.9-3.3c-0.6-3.1-0.5-5.3,0.4-6.9c0.5-1,1.6-1.8,2.7-2c0.5-0.1,1.3-0.2,2,0.3s1.6,0.3,2.1-0.4s0.3-1.6-0.4-2.1
		c-1.2-0.9-2.8-1.1-4.4-0.8c-1.9,0.4-3.7,1.8-4.6,3.5C523.2,231.8,523.7,235.3,524.2,237.7z"/>
	<path id="XMLID_533_" class="st5" d="M505,256.3c0,0.8,0.7,1.4,1.5,1.4h0.1c9.4-0.5,19-1.5,28.3-2.8c0.8-0.1,1.4-0.9,1.3-1.7
		c-0.1-0.8-0.9-1.4-1.7-1.3c-9.3,1.3-18.7,2.3-28.1,2.8C505.6,254.8,505,255.5,505,256.3z"/>
	<path id="XMLID_530_" class="st5" d="M520,177.3c0.5,0,1-0.1,1.5-0.2c2.7-0.7,4.7-3.3,4.7-6.1c0-1.3-0.3-2.4-1.1-3.2
		c-1.2-1.3-3.1-1.3-3.9-1.3c-0.8,0-1.6,0-2.4,0.1c-0.4-0.4-1-0.5-1.6-0.3c-2.7,1.2-4,4.6-2.8,7.3C515.4,175.9,517.7,177.3,520,177.3
		z M517.7,169.8c1.2-0.2,2.4-0.3,3.7-0.3c0.3,0,1.4,0,1.7,0.3c0.2,0.2,0.3,0.6,0.2,1c0,1.5-1.1,2.9-2.5,3.3c-1.4,0.4-3-0.4-3.5-1.6
		C516.9,171.7,517.1,170.6,517.7,169.8z"/>
	<path id="XMLID_529_" class="st5" d="M512.4,191.8c0.3,0.3,0.7,0.5,1.1,0.5c0.4,0,0.7-0.1,1-0.4c7.1-6.2,14.7-12.2,22.4-17.6
		c0.7-0.5,0.8-1.4,0.4-2.1c-0.5-0.7-1.4-0.8-2.1-0.4c-7.9,5.5-15.5,11.5-22.7,17.8C511.9,190.2,511.8,191.1,512.4,191.8z"/>
	<path id="XMLID_526_" class="st5" d="M526.5,194.2c1,0.9,2.3,1.4,3.6,1.4s2.6-0.4,3.7-1.3c1.8-1.4,2.5-3.6,1.9-5.5
		c-0.6-1.7-2.4-3-4.5-3.1c-1.7-0.1-3.2,0.3-4.5,0.8c-0.8,0.2-1.2,1.1-1,1.9c0,0.1,0.1,0.2,0.1,0.3c-0.2,0.4-0.4,0.8-0.5,1.3
		C524.9,191.5,525.4,193.1,526.5,194.2z M528.2,190.6c0-0.2,0.2-0.7,0.6-0.8c0.5-0.2,0.8-0.5,1-1c0.4-0.1,0.8-0.1,1.2-0.1
		c0.8,0.1,1.7,0.5,1.9,1.1s-0.2,1.5-0.9,2.1c-1,0.8-2.6,0.9-3.4,0.1C528.2,191.7,528.1,191.1,528.2,190.6z"/>
	<path id="XMLID_523_" class="st5" d="M293.2,231.8c0.3-0.5,0.3-1.1,0-1.6c-1-1.5-1.9-3-2.8-4.5c-0.8-1.4-1.7-2.8-2.6-4.2
		c-17.6-27.3-32.1-53.1-48-81.7c-0.3-0.5-0.8-0.8-1.4-0.8c-0.6,0-1.1,0.3-1.3,0.8c-6.5,13.5-10.6,19.4-14.4,25.2
		c-6.8,10.1-13.2,19.6-31.5,66.6c-0.1,0.4-0.1,0.8,0,1.1c7.2,17.7,25.2,29.1,46,29.1C273,261.8,289.1,238.9,293.2,231.8z
		 M194.1,232.2c18-46.2,24.3-55.5,31-65.4c3.7-5.5,7.5-11.1,13.4-23c15.3,27.6,29.5,52.8,46.7,79.3c0.9,1.4,1.7,2.8,2.6,4.2
		c0.8,1.3,1.6,2.6,2.4,3.9c-4.6,7.5-20,27.7-53,27.7C217.8,258.8,201,248.4,194.1,232.2z"/>
	<path id="XMLID_522_" class="st5" d="M203.5,222.1c-2.8,2.8-6,5.5-7.9,9.3c-0.5,1,0.2,2.2,1.3,2.2c0.5,0,1.1-0.3,1.3-0.8
		c1.4-2.8,3.7-5,6-7.2c0.5-0.5,0.9-0.9,1.4-1.3c0.6-0.6,0.6-1.5,0-2.1C205,221.5,204.1,221.5,203.5,222.1z"/>
	<path id="XMLID_521_" class="st5" d="M220.3,213.9c-1.3,0.9-2.6,1.7-3.9,2.4c-1.3,0.8-2.7,1.6-4.1,2.5c-0.7,0.5-0.9,1.4-0.4,2.1
		c0.3,0.4,0.8,0.7,1.2,0.7c0.3,0,0.6-0.1,0.8-0.3c1.3-0.9,2.6-1.7,3.9-2.4c1.3-0.8,2.7-1.6,4.1-2.5c0.7-0.5,0.9-1.4,0.4-2.1
		C221.9,213.6,221,213.4,220.3,213.9z"/>
	<path id="XMLID_520_" class="st5" d="M242.8,213.9c0.8,0.1,1.6-0.4,1.7-1.2c0.1-0.8-0.4-1.6-1.2-1.7c-1.6-0.3-3.4-0.1-5,0.1
		c-1,0.1-1.9,0.3-2.9,0.3c-0.8,0-1.5,0.7-1.5,1.5s0.7,1.5,1.5,1.5c1.2,0,2.3-0.2,3.3-0.3C240.2,213.9,241.6,213.7,242.8,213.9z"/>
	<path id="XMLID_519_" class="st5" d="M255.9,214.3c1.6,0.7,3.5,1.3,5.3,1.8c1.7,0.5,3.5,1.1,5,1.7c0.2,0.1,0.4,0.1,0.6,0.1
		c0.6,0,1.1-0.3,1.4-0.9c0.3-0.8,0-1.6-0.8-2c-1.6-0.7-3.5-1.3-5.3-1.8c-1.7-0.5-3.5-1.1-5-1.7c-0.8-0.3-1.6,0-2,0.8
		C254.7,213.1,255.1,213.9,255.9,214.3z"/>
	<path id="XMLID_518_" class="st5" d="M284.8,232.7c0.3,0.3,0.7,0.5,1.1,0.5c0.3,0,0.7-0.1,1-0.4c0.6-0.5,0.7-1.5,0.2-2.1
		c-2.8-3.2-6-6-9.1-8.7c-0.6-0.5-1.6-0.5-2.1,0.2c-0.5,0.6-0.5,1.6,0.2,2.1C279.1,226.9,282.2,229.6,284.8,232.7z"/>
	<g id="XMLID_466_" class="st1">
		<g id="XMLID_100_">
			<path id="XMLID_104_" class="st6" d="M225.7,34.6c1.4,0.1,2.7,0.1,4.1,0.2c1.9,0.1,1.9-2.9,0-3c-1.4,0-2.7-0.1-4.1-0.2
				C223.8,31.6,223.8,34.6,225.7,34.6L225.7,34.6z"/>
		</g>
	</g>
	<g id="XMLID_8_" class="st1">
		<g id="XMLID_94_">
			<path id="XMLID_98_" class="st6" d="M142.1,128.2c-0.8-20.9-0.8-41.8-1-62.6c0-1.9-3-1.9-3,0c0.1,20.9,0.2,41.8,1,62.6
				C139.1,130.2,142.1,130.2,142.1,128.2L142.1,128.2z"/>
		</g>
	</g>
	<g id="XMLID_4_" class="st1">
		<g id="XMLID_86_">
			<path id="XMLID_92_" class="st6" d="M168.4,49.2c-4.9-0.4-9.9-0.7-14.8-1.1c-0.8-0.1-1.5,0.7-1.5,1.5
				c2.4,43.9,4.8,87.8,7.4,131.7c0.1,1.9,3.1,1.9,3,0c-2.6-43.9-5.1-87.8-7.4-131.7c-0.5,0.5-1,1-1.5,1.5c4.9,0.4,9.9,0.7,14.8,1.1
				C170.3,52.3,170.3,49.4,168.4,49.2L168.4,49.2z"/>
		</g>
	</g>
	<g id="XMLID_12_" class="st1">
		<g id="XMLID_79_">
			<path id="XMLID_84_" class="st6" d="M141.1,290.8c0.2,30.6,0.2,61.2,0,91.7c0,1.9,3,1.9,3,0c0.1-30.6,0.1-61.2,0-91.7
				C144.1,288.9,141.1,288.9,141.1,290.8L141.1,290.8z"/>
		</g>
	</g>
	<g id="XMLID_25_" class="st1">
		<g id="XMLID_72_">
			<path id="XMLID_77_" class="st6" d="M143.4,384.4c39.8-2.6,79.6,0.4,119.3,2.8c1.9,0.1,1.9-2.9,0-3c-39.7-2.4-79.5-5.3-119.3-2.8
				C141.5,381.6,141.5,384.6,143.4,384.4L143.4,384.4z"/>
		</g>
	</g>
	<g id="XMLID_6_" class="st1">
		<g id="XMLID_66_">
			<path id="XMLID_70_" class="st6" d="M162.4,362.5c40.6-1.7,81.3-0.7,121.9,0.7c1.9,0.1,1.9-2.9,0-3c-40.6-1.4-81.3-2.4-121.9-0.7
				C160.5,359.6,160.5,362.6,162.4,362.5L162.4,362.5z"/>
		</g>
	</g>
	<g id="XMLID_2_" class="st1">
		<g id="XMLID_60_">
			<path id="XMLID_89_" class="st6" d="M144.1,32.9c-2.5,0-5,0.1-6,2.5c-3.8,9.1,0.6,20.4-0.3,29.8c-0.2,1.9,2.8,1.9,3,0
				c0.7-7.9-1.4-15.6-0.7-23.5c0.4-3.9,1.1-5,4.6-5.8c0.4-0.1,0.7-0.1,1.1-0.2C144.8,35,144.3,34,144.1,32.9z"/>
		</g>
	</g>
	<g id="XMLID_7_" class="st1">
		<g id="XMLID_54_">
			<path id="XMLID_58_" class="st6" d="M160.6,307.8c-0.3,17.7-0.4,35.3-0.2,53c0,1.9,3,1.9,3,0c-0.2-17.7-0.1-35.3,0.2-53
				C163.6,305.9,160.6,305.9,160.6,307.8L160.6,307.8z"/>
		</g>
	</g>
	<g id="XMLID_5_" class="st1">
		<g id="XMLID_46_">
			<path id="XMLID_51_" class="st6" d="M143.8,291.7c-1-13.7-1.2-27.4-0.6-41.1c0.6-13.3,2-26.6,2.4-39.9
				c0.9-27.8-1.3-55.6-3.5-83.3c-0.1-1.9-3.1-1.9-3,0c2.2,27.7,4.4,55.5,3.5,83.3c-0.4,13-1.8,26-2.4,39c-0.6,14-0.4,28.1,0.6,42.1
				C141,293.6,144,293.6,143.8,291.7L143.8,291.7z"/>
		</g>
	</g>
	<g id="XMLID_11_" class="st1">
		<g id="XMLID_38_">
			<path id="XMLID_44_" class="st6" d="M159.6,180.7c-0.4,29-0.1,58,0.9,87c0.1,1.9,3,1.9,3,0c-1-29-1.3-58-0.9-87
				C162.6,178.8,159.6,178.8,159.6,180.7L159.6,180.7z"/>
		</g>
	</g>
	<path id="XMLID_53_" class="st3" d="M262.6,312.8c1.9-1,3.5-2.4,4.8-4c3.9,0.8,8,1.2,11.1-0.2c1.6-0.4,3-1.1,4.3-2.4
		c1.7-1.8,1.7-3.8,0.7-5.3c1.3-5.6,0.7-12.2,0.5-17.3c-0.1-2-1.7-3.8-3.8-3.8c-14.7,0.4-23.1,16.2-24.2,29.2
		C255.7,312.4,259.9,314.2,262.6,312.8z M277,288.1c0,0.1,0,0.3,0.1,0.4c-0.4,0-0.8,0-1.2,0.1C276.2,288.5,276.6,288.3,277,288.1z
		 M270.3,305c0.5-0.7,0.9-1.4,1.4-2.1c0,0.5,0,0.9,0,1.4c0,0.3,0.1,0.6,0.1,0.9c-0.6,0.1-1.2,0.1-1.8,0.2
		C270.2,305.2,270.3,305.1,270.3,305z"/>
	<path id="XMLID_47_" class="st4" d="M299.4,293.5c0.3,1.1,1.1,2.2,2.5,2.9c0.2,0.1,0.4,0.2,0.5,0.3c1.2,1.5,2.1,3.2,2.3,5.2
		c0.4,5.9-3,13.3-6.6,17.8c-8.5,10.6-21.5,8.2-33,5.2c-0.9-0.2-1.9,0.8-1.3,1.7c1.5,2.1,3.4,3.9,5.4,5.4c-0.1,0.2-0.2,0.6,0,0.9
		c8.7,16.6,33.2,11.2,43.3-1c8.7-10.5,12.1-36.5-2.5-43.7c-2-2.2-4.4-4.1-6.9-5.5c-4.3-2.5-9.6,2.5-6.9,6.9
		C297,291.1,298.2,292.3,299.4,293.5z"/>
	<path id="XMLID_32_" class="st5" d="M256.9,309.7c0.5,0,0.9,0,1.4,0c-0.1-1.2-0.2-2.4-0.2-3.6c0-10.7,7.4-22.5,19.7-23.7
		c1.9-0.2,3.7-0.3,5.5-0.2c0-0.5,0-1,0-1.4c0-0.8,0.7-1.5,1.5-1.5c-2.3-0.1-4.6-0.1-7.2,0.2c-12.6,1.3-22.4,13-22.4,26.7
		c0,1.7,0.1,3.4,0.4,5.1C255.4,310.4,256.1,309.7,256.9,309.7z"/>
	<path id="XMLID_29_" class="st5" d="M286.1,282.3c13.3,1.3,26.2,9.2,26.2,24.9c0,11-11.2,27.6-28,27.6c-13.9,0-23.1-10.4-25.7-22.1
		c-0.6,0-1.2,0-1.8,0c-0.7,0-1.3-0.4-1.4-1c2.3,13.6,12.7,26.1,28.9,26.1c18.6,0,31-18.4,31-30.6c0-16.9-13.8-27-30.7-28
		C286.3,279.3,286.1,280.9,286.1,282.3z"/>
	<path id="XMLID_18_" class="st5" d="M256.9,312.7c0.6,0,1.2,0,1.8,0c1.4,0,2.7,0,4.1-0.1c7.5-0.1,15.2-0.2,22.7-0.8
		c0.8-0.1,1.4-0.7,1.4-1.5c-0.1-4.3-0.2-8.6-0.3-12.9c-0.1-3.8-0.4-11.1-0.4-16.7c0-0.9-0.7-1.5-1.5-1.5c-1.8,0-1.5,1.9-1.5,2.9
		c0,5.1,0.2,10.3,0.4,15.4c0.1,3.7,0.2,7.6,0.3,11.4c-7,0.5-14.1,0.6-21.1,0.7c-1.5,0-3,0-4.5,0.1c-0.5,0-0.9,0-1.4,0
		c-0.8,0-1.5,0.7-1.5,1.5c0,0,0,0,0,0.1c0,0.2,0,0.3,0.1,0.4C255.7,312.3,256.2,312.7,256.9,312.7z"/>
	<path id="XMLID_31_" class="st7" d="M516.6,62.6c-0.5-1.2,0.4-2.7,1.6-3.2c1.2-0.5,2.6-0.4,3.9-0.3c2.4,0.2,4.9,0.5,7.3,0.7
		c-0.7,4.2-1.9,8.4-3.3,12.5c-1.7-1.7-4.2-2.4-6.3-3.7S515.8,64.9,516.6,62.6"/>
</g>
<g id="Layer_1">
	<g id="XMLID_55_">
		<g id="XMLID_239_">
			<path id="XMLID_245_" class="st8" d="M186.7,35.6c87.9,0.2,175.8,0.2,263.7,0.1c24.9,0,49.8-0.1,74.8-0.1c2.4,0,2.4-3.8,0-3.8
				c-87.9,0.2-175.8,0.2-263.7,0.1c-24.9,0-49.9-0.1-74.8-0.1C184.3,31.9,184.3,35.6,186.7,35.6L186.7,35.6z"/>
		</g>
	</g>
	<g id="XMLID_50_">
		<g id="XMLID_225_">
			<path id="XMLID_237_" class="st8" d="M87.4,35.6c18.4,0,36.8,0,55.2,0c2.4,0,2.4-3.8,0-3.8c-18.4,0-36.8,0-55.2,0
				C85,31.9,85,35.6,87.4,35.6L87.4,35.6z"/>
		</g>
	</g>
	<g id="XMLID_68_">
		<g id="XMLID_179_">
			<path id="XMLID_201_" class="st8" d="M523.8,37.1c0.3,75.1,0.3,150.3,0.2,225.4c0,21.6-0.1,43.2-0.2,64.8c0,2.4,3.7,2.4,3.8,0
				c0.3-75.2,0.3-150.4,0.2-225.6c0-21.5-0.1-43.1-0.2-64.6C527.5,34.7,523.8,34.7,523.8,37.1L523.8,37.1z"/>
		</g>
	</g>
	<g id="XMLID_34_">
		<g id="XMLID_217_">
			<path id="XMLID_223_" class="st8" d="M527.1,358.1c4.6,0,9.3,0,13.9,0c2.4,0,2.4-3.8,0-3.8c-4.6,0-9.3,0-13.9,0
				C524.7,354.4,524.7,358.1,527.1,358.1L527.1,358.1z"/>
		</g>
	</g>
	<g id="XMLID_35_">
		<g id="XMLID_209_">
			<path id="XMLID_215_" class="st8" d="M539.6,357.7c0,7.5,0,15,0,22.5c0,2.4,3.8,2.4,3.8,0c0-7.5,0-15,0-22.5
				C543.3,355.3,539.6,355.3,539.6,357.7L539.6,357.7z"/>
		</g>
	</g>
	<g id="XMLID_99_">
		<g id="XMLID_202_">
			<path id="XMLID_207_" class="st8" d="M542.4,378.3c-116.1,1.9-232.2,0.5-348.2,0.1c-32.5-0.1-65-0.2-97.5-0.1
				c-2.4,0-2.4,3.8,0,3.8c116-0.4,232.1,1.3,348.1,0.9c32.6-0.1,65.1-0.4,97.7-0.9C544.8,382,544.8,378.3,542.4,378.3L542.4,378.3z"
				/>
		</g>
	</g>
	<g id="XMLID_108_">
		<g id="XMLID_204_">
			<path id="XMLID_219_" class="st8" d="M89.7,357.8c0.4-20.6-0.2-41.1-0.4-61.7c-0.2-21.3,0.9-42.6,1.1-63.9
				c0.5-42.1-0.1-84.2-0.5-126.3c-0.2-24.1-0.4-48.2-0.2-72.3c0-2.4-3.7-2.4-3.8,0c-0.2,42.5,0.4,85,0.7,127.6
				c0.2,21.1,0.2,42.1,0.1,63.2c-0.2,21.1-1.3,42.2-1.2,63.2c0.1,23.4,0.9,46.9,0.5,70.3C86,360.2,89.7,360.2,89.7,357.8L89.7,357.8
				z"/>
		</g>
	</g>
	<g id="XMLID_56_">
		<g id="XMLID_266_">
			<path id="XMLID_270_" class="st8" d="M401,51.9c35.7,0,71.3,0,107,0c2.4,0,2.4-3.7,0-3.8c-35.7,0-71.3,0-107,0
				C398.6,48.2,398.6,51.9,401,51.9L401,51.9z"/>
		</g>
	</g>
	<g id="XMLID_1_">
		<g id="XMLID_260_">
			<path id="XMLID_264_" class="st8" d="M259.3,52.2c36.3-0.3,72.6-0.3,108.9-0.2c2.4,0,2.4-3.7,0-3.8c-36.3-0.1-72.6-0.1-108.9,0.2
				C256.9,48.4,256.9,52.2,259.3,52.2L259.3,52.2z"/>
		</g>
	</g>
	<g id="XMLID_3_">
		<g id="XMLID_224_">
			<path id="XMLID_257_" class="st8" d="M113.7,51.9c30.9,0,61.7,0,92.6,0.2c2.4,0,2.4-3.7,0-3.8c-30.9-0.2-61.7-0.2-92.6-0.2
				C111.3,48.2,111.3,51.9,113.7,51.9L113.7,51.9z"/>
		</g>
	</g>
	<g id="XMLID_49_">
		<g id="XMLID_184_">
			<path id="XMLID_188_" class="st8" d="M505.6,53.9c0,78.1,0,156.1,0,234.2c0,22.3,0,44.5,0,66.8c0,2.4,3.8,2.4,3.8,0
				c0-78.1,0-156.1,0-234.2c0-22.3,0-44.5,0-66.8C509.4,51.4,505.6,51.4,505.6,53.9L505.6,53.9z"/>
		</g>
	</g>
	<g id="XMLID_52_">
		<g id="XMLID_180_">
			<path id="XMLID_272_" class="st8" d="M508,359.1c6.2,0,12.4,0,18.7,0c2.4,0,2.4-3.8,0-3.8c-6.2,0-12.4,0-18.7,0
				C505.5,355.3,505.5,359.1,508,359.1L508,359.1z"/>
		</g>
	</g>
	<g id="XMLID_63_">
		<g id="XMLID_172_">
			<path id="XMLID_176_" class="st8" d="M508.9,354.4c-103.6,0-207.3,0-310.9,0c-29.2,0-58.5,0-87.7,0c-2.4,0-2.4,3.8,0,3.8
				c103.6,0,207.3,0,310.9,0c29.2,0,58.5,0,87.7,0C511.3,358.1,511.3,354.4,508.9,354.4L508.9,354.4z"/>
		</g>
	</g>
	<g id="XMLID_57_">
		<g id="XMLID_273_">
			<path id="XMLID_277_" class="st8" d="M112,285.5c-0.1-78.2-0.1-156.4,0.2-234.6c0-2.4-3.7-2.4-3.8,0
				c-0.3,78.2-0.3,156.4-0.2,234.6C108.3,287.9,112,287.9,112,285.5L112,285.5z"/>
		</g>
	</g>
	<g id="XMLID_48_">
		<g id="XMLID_228_">
			<path id="XMLID_271_" class="st8" d="M112.2,355.3c0-10.7-0.1-21.4-0.1-32.2c0-2.4-3.8-2.4-3.8,0c0,10.7,0.1,21.4,0.1,32.2
				C108.5,357.7,112.2,357.7,112.2,355.3L112.2,355.3z"/>
		</g>
	</g>
	<g id="XMLID_37_">
		<g id="XMLID_137_">
			<path id="XMLID_149_" class="st8" d="M110.9,47.7c-0.3,0-0.7,0-1,0c-1,0-1.9,0.9-1.9,1.9c0,1,0.8,1.9,1.9,1.9c0.3,0,0.7,0,1,0
				c1,0,1.9-0.9,1.9-1.9C112.8,48.5,112,47.7,110.9,47.7L110.9,47.7z"/>
		</g>
	</g>
	<g id="XMLID_45_">
		<g id="XMLID_131_">
			<path id="XMLID_135_" class="st8" d="M505.5,52.6c0.1,0.4,0.1,0.8,0.2,1.2c0.1,1,1.4,1.6,2.3,1.3c1.1-0.3,1.5-1.3,1.3-2.3
				c-0.1-0.4-0.1-0.8-0.2-1.2c-0.1-1-1.4-1.6-2.3-1.3C505.7,50.6,505.3,51.5,505.5,52.6L505.5,52.6z"/>
		</g>
	</g>
	<g id="XMLID_75_">
		<g id="XMLID_197_">
			<path id="XMLID_265_" class="st8" d="M523.9,32.9c0,1.2,0,2.3,0,3.5c0,2.4,3.8,2.4,3.8,0c0-1.2,0-2.3,0-3.5
				C527.6,30.5,523.9,30.5,523.9,32.9L523.9,32.9z"/>
		</g>
	</g>
	<g id="XMLID_83_">
		<g id="XMLID_117_">
			<path id="XMLID_121_" class="st8" d="M111.4,355.1c-14.2,0-28.4,0-42.7,0c-2.4,0-2.4,3.8,0,3.8c14.2,0,28.4,0,42.7,0
				C113.8,358.9,113.8,355.1,111.4,355.1L111.4,355.1z"/>
		</g>
	</g>
	<g id="XMLID_96_">
		<g id="XMLID_93_">
			<path id="XMLID_115_" class="st8" d="M66.2,359c0,7.3,0,14.7,0,22c0,2.4,3.8,2.4,3.8,0c0-7.3,0-14.7,0-22
				C69.9,356.6,66.2,356.6,66.2,359L66.2,359z"/>
		</g>
	</g>
	<g id="XMLID_97_">
		<g id="XMLID_81_">
			<path id="XMLID_90_" class="st8" d="M70.7,383.5c6.9,0,13.8,0,20.7,0c2.4,0,2.4-3.8,0-3.8c-6.9,0-13.8,0-20.7,0
				C68.3,379.8,68.3,383.5,70.7,383.5L70.7,383.5z"/>
		</g>
	</g>
	<g id="XMLID_36_">
		<g id="XMLID_69_">
			<path id="XMLID_78_" class="st8" d="M86.7,383.5c5.8,0,11.6,0,17.3,0c2.4,0,2.4-3.8,0-3.8c-5.8,0-11.6,0-17.3,0
				C84.3,379.8,84.3,383.5,86.7,383.5L86.7,383.5z"/>
		</g>
	</g>
	<text id="XMLID_95_" transform="matrix(1 0 0 1 270.7307 212.6695)" class="st9 st10 st11">MC</text>
	<text id="XMLID_103_" transform="matrix(1 0 0 1 346.064 186.003)" class="st8 st10 st12">2</text>
</g>
</svg>
