<?xml version="1.0"?>

<!DOCTYPE svg PUBLIC '-//W3C//DTD SVG 1.0//EN' 'http://www.w3.org/TR/2001/REC-SVG-20010904/DTD/svg10.dtd'>
<svg fill-opacity="1" xmlns:xlink="http://www.w3.org/1999/xlink" color-rendering="auto" color-interpolation="auto" text-rendering="auto" stroke="black" stroke-linecap="square" stroke-miterlimit="10" shape-rendering="auto" stroke-opacity="1" fill="black" stroke-dasharray="none" font-weight="normal" stroke-width="1" xmlns="http://www.w3.org/2000/svg" font-family="&apos;Dialog&apos;" font-style="normal" stroke-linejoin="miter" font-size="12" stroke-dashoffset="0" image-rendering="auto">
  <!--Unicode Character 'DOUBLE-STRUCK CAPITAL R' (U+211D)-->
  <defs id="genericDefs" />
  <g>
    <g>
      <path d="M194.9062 385.875 L144 385.875 L79.1719 296.8594 L59.625 296.8594 L59.625 349.3125 Q59.625 363.5156 60.8906 369.3516 Q62.1562 375.1875 67.7109 377.9297 Q73.2656 380.6719 86.625 380.6719 L86.625 385.875 L5.4844 385.875 L5.4844 380.6719 Q18.8438 380.6719 24.3984 377.9297 Q29.9531 375.1875 31.2188 369.3516 Q32.4844 363.5156 32.4844 349.3125 L32.4844 231.75 Q32.4844 217.5469 31.2188 211.7109 Q29.9531 205.875 24.3984 203.1328 Q18.8438 200.3906 5.4844 200.3906 L5.4844 195.1875 L88.1719 195.1875 Q121.0781 195.1875 137.7422 209.4609 Q154.4062 223.7344 154.4062 244.6875 Q154.4062 262.9688 141.8906 275.6953 Q129.375 288.4219 107.1562 293.2031 Q147.2344 349.1719 153.4922 357.4688 Q159.75 365.7656 169.4531 372.6562 Q179.1562 379.5469 194.9062 380.6719 L194.9062 385.875 ZM83.25 291.0938 Q113.9062 290.25 131.2734 277.1016 Q148.6406 263.9531 148.6406 244.6875 Q148.6406 225.9844 132.8906 213.1875 Q117.1406 200.3906 86.625 200.3906 Q106.875 203.2031 117.3516 215.2266 Q127.8281 227.25 127.8281 245.9531 Q127.8281 283.6406 83.25 291.0938 ZM62.7188 380.6719 Q56.6719 376.5938 55.2656 369.7031 Q53.8594 362.8125 53.8594 349.3125 L53.8594 211.9219 Q53.8594 203.9062 59.625 200.9531 L29.3906 200.9531 Q35.4375 205.0312 36.8438 211.9219 Q38.25 218.8125 38.25 232.3125 L38.25 349.3125 Q38.25 362.8125 36.8438 369.7031 Q35.4375 376.5938 29.3906 380.6719 L62.7188 380.6719 ZM59.625 287.7188 L65.9531 287.7188 Q91.9688 287.7188 107.0156 276.9609 Q122.0625 266.2031 122.0625 245.9531 Q122.0625 228.375 111.2344 216.9844 Q100.4062 205.5938 83.25 205.5938 Q76.7812 205.5938 59.625 208.125 L59.625 287.7188 ZM175.0781 380.1094 Q160.1719 378.1406 142.7344 353.6719 L101.1094 294.8906 Q94.2188 296.2969 86.0625 296.2969 L147.2344 380.1094 L175.0781 380.1094 Z" stroke="none" />
    </g>
  </g>
</svg>
