<?xml version="1.0" encoding="utf-8"?>
<!-- Generator: Adobe Illustrator 21.1.0, SVG Export Plug-In . SVG Version: 6.00 Build 0)  -->
<svg version="1.1" id="Layer_1" xmlns="http://www.w3.org/2000/svg" xmlns:xlink="http://www.w3.org/1999/xlink" x="0px" y="0px"
	 viewBox="0 0 256 256" style="enable-background:new 0 0 256 256;" xml:space="preserve">
<style type="text/css">
	.st0{fill:#31312E;}
	.st1{fill:#FFFFFF;}
</style>
<rect class="st0" width="256" height="256"/>
<path class="st1" d="M230.7,235.8H24.3c-10.7,0-19.3-8.7-19.3-19.3V113.3C5,102.7,13.7,94,24.3,94h206.3c10.7,0,19.3,8.7,19.3,19.3
	v103.2C250,227.2,241.3,235.8,230.7,235.8z M24.3,106.9c-3.6,0-6.4,2.9-6.4,6.4v103.2c0,3.6,2.9,6.4,6.4,6.4h206.3
	c3.6,0,6.4-2.9,6.4-6.4V113.3c0-3.6-2.9-6.4-6.4-6.4H24.3z"/>
<path class="st1" d="M50.1,132.7H37.2c-3.6,0-6.4-2.9-6.4-6.4c0-3.6,2.9-6.4,6.4-6.4h12.9c3.6,0,6.4,2.9,6.4,6.4
	C56.6,129.8,53.7,132.7,50.1,132.7z"/>
<path class="st1" d="M217.8,132.7h-12.9c-3.6,0-6.4-2.9-6.4-6.4c0-3.6,2.9-6.4,6.4-6.4h12.9c3.6,0,6.4,2.9,6.4,6.4
	C224.2,129.8,221.3,132.7,217.8,132.7z"/>
<path class="st1" d="M63,158.5H37.2c-3.6,0-6.4-2.9-6.4-6.4c0-3.6,2.9-6.4,6.4-6.4H63c3.6,0,6.4,2.9,6.4,6.4
	C69.5,155.6,66.6,158.5,63,158.5z"/>
<path class="st1" d="M50.1,210.1H37.2c-3.6,0-6.4-2.9-6.4-6.4c0-3.6,2.9-6.4,6.4-6.4h12.9c3.6,0,6.4,2.9,6.4,6.4
	C56.6,207.2,53.7,210.1,50.1,210.1z"/>
<path class="st1" d="M153.3,210.1H75.9c-3.6,0-6.4-2.9-6.4-6.4c0-3.6,2.9-6.4,6.4-6.4h77.4c3.6,0,6.4,2.9,6.4,6.4
	C159.7,207.2,156.8,210.1,153.3,210.1z"/>
<path class="st1" d="M192,210.1h-12.9c-3.6,0-6.4-2.9-6.4-6.4c0-3.6,2.9-6.4,6.4-6.4H192c3.6,0,6.4,2.9,6.4,6.4
	C198.4,207.2,195.5,210.1,192,210.1z"/>
<path class="st1" d="M217.8,184.3h-38.7c-3.6,0-6.4-2.9-6.4-6.4c0-3.6,2.9-6.4,6.4-6.4h32.2V152c0-3.6,2.9-6.4,6.4-6.4
	c3.6,0,6.4,2.9,6.4,6.4v25.8C224.2,181.4,221.3,184.3,217.8,184.3z"/>
<path class="st1" d="M75.9,184.3H37.2c-3.6,0-6.4-2.9-6.4-6.4c0-3.6,2.9-6.4,6.4-6.4h38.7c3.6,0,6.4,2.9,6.4,6.4
	C82.4,181.4,79.5,184.3,75.9,184.3z"/>
<path class="st1" d="M82.4,126.2c0,3.6-2.9,6.4-6.4,6.4c-3.6,0-6.4-2.9-6.4-6.4c0-3.6,2.9-6.4,6.4-6.4
	C79.5,119.8,82.4,122.7,82.4,126.2z"/>
<path class="st1" d="M108.2,126.2c0,3.6-2.9,6.4-6.4,6.4s-6.4-2.9-6.4-6.4c0-3.6,2.9-6.4,6.4-6.4S108.2,122.7,108.2,126.2z"/>
<path class="st1" d="M133.9,126.2c0,3.6-2.9,6.4-6.4,6.4s-6.4-2.9-6.4-6.4c0-3.6,2.9-6.4,6.4-6.4S133.9,122.7,133.9,126.2z"/>
<path class="st1" d="M159.7,126.2c0,3.6-2.9,6.4-6.4,6.4s-6.4-2.9-6.4-6.4c0-3.6,2.9-6.4,6.4-6.4S159.7,122.7,159.7,126.2z"/>
<path class="st1" d="M185.5,126.2c0,3.6-2.9,6.4-6.4,6.4s-6.4-2.9-6.4-6.4c0-3.6,2.9-6.4,6.4-6.4S185.5,122.7,185.5,126.2z"/>
<path class="st1" d="M95.3,152c0,3.6-2.9,6.4-6.4,6.4c-3.6,0-6.4-2.9-6.4-6.4c0-3.6,2.9-6.4,6.4-6.4C92.4,145.6,95.3,148.5,95.3,152
	z"/>
<path class="st1" d="M121.1,152c0,3.6-2.9,6.4-6.4,6.4s-6.4-2.9-6.4-6.4c0-3.6,2.9-6.4,6.4-6.4S121.1,148.5,121.1,152z"/>
<path class="st1" d="M146.8,152c0,3.6-2.9,6.4-6.4,6.4c-3.6,0-6.4-2.9-6.4-6.4c0-3.6,2.9-6.4,6.4-6.4
	C144,145.6,146.8,148.5,146.8,152z"/>
<path class="st1" d="M172.6,152c0,3.6-2.9,6.4-6.4,6.4c-3.6,0-6.4-2.9-6.4-6.4c0-3.6,2.9-6.4,6.4-6.4
	C169.7,145.6,172.6,148.5,172.6,152z"/>
<path class="st1" d="M198.4,152c0,3.6-2.9,6.4-6.4,6.4c-3.6,0-6.4-2.9-6.4-6.4c0-3.6,2.9-6.4,6.4-6.4
	C195.5,145.6,198.4,148.5,198.4,152z"/>
<path class="st1" d="M108.2,177.8c0,3.6-2.9,6.4-6.4,6.4s-6.4-2.9-6.4-6.4c0-3.6,2.9-6.4,6.4-6.4S108.2,174.3,108.2,177.8z"/>
<path class="st1" d="M133.9,177.8c0,3.6-2.9,6.4-6.4,6.4s-6.4-2.9-6.4-6.4c0-3.6,2.9-6.4,6.4-6.4S133.9,174.3,133.9,177.8z"/>
<path class="st1" d="M159.7,177.8c0,3.6-2.9,6.4-6.4,6.4s-6.4-2.9-6.4-6.4c0-3.6,2.9-6.4,6.4-6.4S159.7,174.3,159.7,177.8z"/>
<polygon class="st1" points="127.4,22.7 72.8,76 181.9,76 "/>
</svg>
