<?xml version="1.0" encoding="utf-8"?>
<!-- Generator: Adobe Illustrator 21.1.0, SVG Export Plug-In . SVG Version: 6.00 Build 0)  -->
<svg version="1.1" id="Layer_1" xmlns="http://www.w3.org/2000/svg" xmlns:xlink="http://www.w3.org/1999/xlink" x="0px" y="0px"
	 viewBox="0 0 256 256" style="enable-background:new 0 0 256 256;" xml:space="preserve">
<style type="text/css">
	.st0{fill:#31312E;}
	.st1{fill:#FFFFFF;}
</style>
<rect class="st0" width="256" height="256"/>
<path class="st1" d="M230.7,164.8H24.3c-10.7,0-19.3-8.7-19.3-19.3V42.3C5,31.7,13.7,23,24.3,23h206.3c10.7,0,19.3,8.7,19.3,19.3
	v103.2C250,156.2,241.3,164.8,230.7,164.8z M24.3,35.9c-3.6,0-6.4,2.9-6.4,6.4v103.2c0,3.6,2.9,6.4,6.4,6.4h206.3
	c3.6,0,6.4-2.9,6.4-6.4V42.3c0-3.6-2.9-6.4-6.4-6.4H24.3z"/>
<path class="st1" d="M50.1,61.7H37.2c-3.6,0-6.4-2.9-6.4-6.4s2.9-6.4,6.4-6.4h12.9c3.6,0,6.4,2.9,6.4,6.4S53.7,61.7,50.1,61.7z"/>
<path class="st1" d="M217.8,61.7h-12.9c-3.6,0-6.4-2.9-6.4-6.4s2.9-6.4,6.4-6.4h12.9c3.6,0,6.4,2.9,6.4,6.4S221.3,61.7,217.8,61.7z"
	/>
<path class="st1" d="M63,87.5H37.2c-3.6,0-6.4-2.9-6.4-6.4c0-3.6,2.9-6.4,6.4-6.4H63c3.6,0,6.4,2.9,6.4,6.4
	C69.5,84.6,66.6,87.5,63,87.5z"/>
<path class="st1" d="M50.1,139.1H37.2c-3.6,0-6.4-2.9-6.4-6.4c0-3.6,2.9-6.4,6.4-6.4h12.9c3.6,0,6.4,2.9,6.4,6.4
	C56.6,136.2,53.7,139.1,50.1,139.1z"/>
<path class="st1" d="M153.3,139.1H75.9c-3.6,0-6.4-2.9-6.4-6.4c0-3.6,2.9-6.4,6.4-6.4h77.4c3.6,0,6.4,2.9,6.4,6.4
	C159.7,136.2,156.8,139.1,153.3,139.1z"/>
<path class="st1" d="M192,139.1h-12.9c-3.6,0-6.4-2.9-6.4-6.4c0-3.6,2.9-6.4,6.4-6.4H192c3.6,0,6.4,2.9,6.4,6.4
	C198.4,136.2,195.5,139.1,192,139.1z"/>
<path class="st1" d="M217.8,113.3h-38.7c-3.6,0-6.4-2.9-6.4-6.4c0-3.6,2.9-6.4,6.4-6.4h32.2V81c0-3.6,2.9-6.4,6.4-6.4
	c3.6,0,6.4,2.9,6.4,6.4v25.8C224.2,110.4,221.3,113.3,217.8,113.3z"/>
<path class="st1" d="M75.9,113.3H37.2c-3.6,0-6.4-2.9-6.4-6.4c0-3.6,2.9-6.4,6.4-6.4h38.7c3.6,0,6.4,2.9,6.4,6.4
	C82.4,110.4,79.5,113.3,75.9,113.3z"/>
<path class="st1" d="M82.4,55.2c0,3.6-2.9,6.4-6.4,6.4c-3.6,0-6.4-2.9-6.4-6.4s2.9-6.4,6.4-6.4C79.5,48.8,82.4,51.7,82.4,55.2z"/>
<path class="st1" d="M108.2,55.2c0,3.6-2.9,6.4-6.4,6.4s-6.4-2.9-6.4-6.4s2.9-6.4,6.4-6.4S108.2,51.7,108.2,55.2z"/>
<path class="st1" d="M133.9,55.2c0,3.6-2.9,6.4-6.4,6.4s-6.4-2.9-6.4-6.4s2.9-6.4,6.4-6.4S133.9,51.7,133.9,55.2z"/>
<path class="st1" d="M159.7,55.2c0,3.6-2.9,6.4-6.4,6.4s-6.4-2.9-6.4-6.4s2.9-6.4,6.4-6.4S159.7,51.7,159.7,55.2z"/>
<path class="st1" d="M185.5,55.2c0,3.6-2.9,6.4-6.4,6.4s-6.4-2.9-6.4-6.4s2.9-6.4,6.4-6.4S185.5,51.7,185.5,55.2z"/>
<path class="st1" d="M95.3,81c0,3.6-2.9,6.4-6.4,6.4c-3.6,0-6.4-2.9-6.4-6.4c0-3.6,2.9-6.4,6.4-6.4C92.4,74.6,95.3,77.5,95.3,81z"/>
<path class="st1" d="M121.1,81c0,3.6-2.9,6.4-6.4,6.4s-6.4-2.9-6.4-6.4c0-3.6,2.9-6.4,6.4-6.4S121.1,77.5,121.1,81z"/>
<path class="st1" d="M146.8,81c0,3.6-2.9,6.4-6.4,6.4c-3.6,0-6.4-2.9-6.4-6.4c0-3.6,2.9-6.4,6.4-6.4C144,74.6,146.8,77.5,146.8,81z"
	/>
<path class="st1" d="M172.6,81c0,3.6-2.9,6.4-6.4,6.4c-3.6,0-6.4-2.9-6.4-6.4c0-3.6,2.9-6.4,6.4-6.4C169.7,74.6,172.6,77.5,172.6,81
	z"/>
<path class="st1" d="M198.4,81c0,3.6-2.9,6.4-6.4,6.4c-3.6,0-6.4-2.9-6.4-6.4c0-3.6,2.9-6.4,6.4-6.4C195.5,74.6,198.4,77.5,198.4,81
	z"/>
<path class="st1" d="M108.2,106.8c0,3.6-2.9,6.4-6.4,6.4s-6.4-2.9-6.4-6.4c0-3.6,2.9-6.4,6.4-6.4S108.2,103.3,108.2,106.8z"/>
<path class="st1" d="M133.9,106.8c0,3.6-2.9,6.4-6.4,6.4s-6.4-2.9-6.4-6.4c0-3.6,2.9-6.4,6.4-6.4S133.9,103.3,133.9,106.8z"/>
<path class="st1" d="M159.7,106.8c0,3.6-2.9,6.4-6.4,6.4s-6.4-2.9-6.4-6.4c0-3.6,2.9-6.4,6.4-6.4S159.7,103.3,159.7,106.8z"/>
<polygon class="st1" points="127.4,239.9 181.9,186.7 72.8,186.7 "/>
</svg>
