<?xml version="1.0" encoding="utf-8"?>
<!-- Generator: Adobe Illustrator 22.0.1, SVG Export Plug-In . SVG Version: 6.00 Build 0)  -->
<svg version="1.1" id="Layer_1" xmlns="http://www.w3.org/2000/svg" xmlns:xlink="http://www.w3.org/1999/xlink" x="0px" y="0px"
	 viewBox="0 0 32 32" style="enable-background:new 0 0 32 32;" xml:space="preserve">
<rect x="-0.4" y="0" width="5.5" height="32"/>
<rect x="27.5" y="0" width="4.5" height="32"/>
<rect x="9.8" y="-10.2" transform="matrix(-1.836970e-16 1 -1 -1.836970e-16 21.4189 -9.8183)" width="11.6" height="32"/>
<rect x="9.8" y="10.2" transform="matrix(-1.836970e-16 1 -1 -1.836970e-16 41.7853 10.5481)" width="11.7" height="32"/>
<path d="M4.4,20.8c0-3.2,0-6.5,0-9.7c7.8,0,15.5,0,23.3,0c0,3.2,0,6.5,0,9.7C19.9,20.8,12.1,20.8,4.4,20.8z M16.1,20
	c1.7,0,3.3,0,5,0c0.1-0.6,0.2-1.2,0.3-1.8c0-0.1,0.1-0.2,0.2-0.2c0.2,0,0.4,0,0.6,0c0.3,0,0.5,0,0.8,0c0-0.1,0-0.2,0-0.3
	c0,0-0.1,0-0.1,0c-0.4-0.1-0.5-0.3-0.3-0.7c0.3-0.5,0.7-1,1-1.5c0.1-0.1,0.1-0.2,0.2-0.3c0,0,0.1,0.1,0.1,0.1
	c0.4,0.6,0.9,1.3,1.3,1.9c0.1,0.2,0.1,0.2-0.1,0.3c-0.1,0-0.3,0.1-0.4,0.1c0,0.1,0,0.2,0,0.2c0.8,0,1.6,0,2.4,0c0-0.1,0-0.2,0-0.3
	c-0.1,0-0.3,0-0.4,0c-0.3,0-0.5-0.1-0.6-0.3c-0.6-0.9-1.2-1.8-1.8-2.7c0-0.1-0.1-0.1,0-0.2c0.4-0.6,0.8-1.1,1.2-1.7
	c0.2-0.2,0.4-0.4,0.7-0.5c0.2,0,0.4-0.1,0.5-0.1c0-0.1,0-0.2,0-0.2c-0.7,0-1.4,0-2,0c0,0.1,0,0.2,0,0.2c0.1,0,0.2,0,0.2,0.1
	c0.2,0.1,0.4,0.3,0.2,0.6c-0.2,0.3-0.4,0.6-0.6,0.9c-0.1,0.2-0.2,0.3-0.3,0.5c0,0,0,0,0-0.1c-0.4-0.5-0.7-1.1-1.1-1.6
	c-0.1-0.1-0.1-0.2,0.1-0.3c0.1-0.1,0.3-0.1,0.4-0.1c0-0.1,0-0.1,0-0.2c-0.8,0-1.6,0-2.4,0c0,0.1,0,0.2,0,0.3c0.1,0,0.2,0,0.3,0
	c0.3,0,0.5,0.1,0.7,0.4c0.3,0.5,0.6,0.9,0.9,1.4c0.2,0.3,0.4,0.6,0.6,0.9c-0.5,0.7-1,1.4-1.5,2.2c-0.2,0.2-0.4,0.4-0.7,0.4
	c-0.2,0-0.4,0.1-0.5,0.1c0,0.1,0,0.2,0,0.3c0.1,0,0.2,0,0.4,0c-0.1,0.3-0.1,0.5-0.2,0.7c-0.2,0.5-0.5,0.9-1.1,0.9
	c-0.6,0-1.3,0-1.9,0c-0.2,0-0.3-0.1-0.3-0.3c0-0.8,0-1.5,0-2.3c0,0,0-0.1,0-0.1c0.4,0,0.8,0,1.2,0.1c0.3,0,0.5,0.2,0.5,0.5
	c0,0.2,0,0.3,0,0.5c0.1,0,0.1,0,0.2,0c0-0.8,0-1.5,0-2.3c-0.1,0-0.1,0-0.2,0c0,0.1,0,0.1,0,0.2c0,0.6-0.2,0.8-0.8,0.8
	c-0.3,0-0.6,0-0.9,0c0-0.7,0-1.4,0-2.1c0-0.2,0.1-0.3,0.3-0.3c0.6,0,1.1,0,1.7,0c0.6,0,1,0.3,1.1,0.9c0,0.1,0,0.2,0.1,0.2
	c0,0.2,0.1,0.3,0.1,0.5c0.1,0,0.1,0,0.2,0c-0.1-0.6-0.2-1.3-0.2-1.9c-1.3,0-2.7,0-4,0c-0.1-0.6-0.1-1.3-0.2-1.9c-1.8,0-3.5,0-5.3,0
	c-0.1,0.6-0.1,1.3-0.2,1.9c0.1,0,0.1,0,0.2,0c0,0,0-0.1,0-0.1c0-0.3,0.1-0.6,0.1-0.8c0.1-0.4,0.4-0.6,0.8-0.7c0.3,0,0.7,0,1,0
	c0.2,0,0.3,0.1,0.3,0.3c0,0.8,0,1.6,0,2.4c0,0.7,0,1.5,0,2.2c0,0.3-0.1,0.3-0.3,0.4c-0.1,0-0.3,0-0.4,0c-0.2,0-0.4,0-0.6,0
	c0,0.1,0,0.2,0,0.3c1.1,0,2.2,0,3.3,0c0-0.1,0-0.2,0-0.3c-0.2,0-0.3,0-0.5,0c-0.2,0-0.4,0-0.6-0.1c-0.1,0-0.2-0.1-0.2-0.3
	c0-0.1,0-0.1,0-0.2c0-1.5,0-2.9,0-4.4c0-0.1,0-0.2,0-0.2c0-0.1,0.1-0.2,0.2-0.2c0.4,0,0.9,0,1.3,0.1c0.3,0,0.5,0.2,0.6,0.5
	c0.1,0.4,0.2,0.7,0.2,1.1c-0.2,0-0.4,0-0.6,0c0,0.1,0,0.2,0,0.3c0.1,0,0.2,0,0.3,0c0.1,0,0.2,0,0.3,0c0.3,0,0.3,0.1,0.3,0.4
	c0,1.5,0,3.1,0,4.6c0,0.3-0.1,0.4-0.4,0.4c-0.2,0-0.3,0-0.5,0C16.1,19.8,16.1,19.9,16.1,20z M5.2,18C5.2,18,5.2,18,5.2,18
	c1.5,0,3,0,4.4,0c0.1,0,0.1,0,0.1-0.1c0.1-0.6,0.1-1.1,0.2-1.7c0-0.1,0-0.3,0-0.4c-0.1,0-0.1,0-0.2,0c0,0.3-0.1,0.5-0.1,0.8
	c-0.1,0.6-0.5,1-1.1,1.1c-0.5,0.1-1,0-1.4,0c-0.2,0-0.2-0.1-0.2-0.3c0-1.6,0-3.2,0-4.8c0-0.2,0.1-0.3,0.3-0.3c0.2,0,0.3,0,0.5,0
	c0.1,0,0.3,0,0.4,0c0-0.1,0-0.2,0-0.2c-0.9,0-1.8,0-2.8,0c0,0.1,0,0.2,0,0.3c0.2,0,0.3,0,0.5,0C6,12.4,6,12.4,6,12.8
	c0,1.5,0,3,0,4.5c0,0.3-0.1,0.4-0.4,0.4c-0.2,0-0.3,0-0.5,0C5.2,17.8,5.2,17.9,5.2,18z M11.9,16c-0.1,0-0.2,0-0.2,0
	c-0.2,0-0.3-0.1-0.4-0.3c-0.5-1.2-1-2.4-1.4-3.7c0-0.1-0.1-0.2-0.2-0.2c-0.1,0-0.1,0.1-0.2,0.2c-0.4,1.1-0.9,2.3-1.3,3.4
	C7.9,15.9,7.7,16,7.3,16c0,0,0,0,0,0c0,0.1,0,0.1,0,0.2c0.4,0,0.9,0,1.3,0c0-0.1,0-0.1,0-0.2c0,0-0.1,0-0.1,0
	c-0.3,0-0.4-0.2-0.3-0.5c0.1-0.2,0.2-0.4,0.2-0.6c0-0.1,0.1-0.1,0.2-0.1c0.5,0,1,0,1.5,0c0.1,0,0.1,0,0.1,0.1
	c0.1,0.3,0.2,0.5,0.3,0.8c0.1,0.1,0,0.2-0.1,0.2c-0.1,0-0.2,0-0.3,0c0,0.1,0,0.1,0,0.2c0.6,0,1.1,0,1.7,0
	C11.9,16.2,11.9,16.1,11.9,16z"/>
<path d="M10.5,14.7c-0.5,0-1,0-1.5,0c0.3-0.7,0.5-1.3,0.8-2C10,13.4,10.3,14,10.5,14.7z"/>
</svg>
