<?xml version="1.0" encoding="iso-8859-1"?>
<!-- Generator: Adobe Illustrator 18.1.1, SVG Export Plug-In . SVG Version: 6.00 Build 0)  -->
<svg version="1.1" id="Capa_1" xmlns="http://www.w3.org/2000/svg" xmlns:xlink="http://www.w3.org/1999/xlink" x="0px" y="0px"
	 viewBox="0 0 612 612" style="enable-background:new 0 0 612 612;" xml:space="preserve">
<g>
	<g>
		<path d="M599.084,509.297L408.947,319.157c43.585-82.095,30.856-186.477-38.205-255.544C329.719,22.592,275.174,0,217.16,0
			C159.143,0,104.598,22.592,63.574,63.616c-84.682,84.685-84.682,222.481,0,307.166c41.024,41.024,95.564,63.616,153.582,63.616
			c36.174,0,70.997-8.785,102.034-25.342l190.057,190.057c8.304,8.31,19.351,12.888,31.098,12.888
			c11.749,0,22.794-4.577,31.089-12.882l27.642-27.642C616.219,554.339,616.225,526.449,599.084,509.297z M113.32,321.038
			c-57.255-57.257-57.255-150.424-0.004-207.682c27.738-27.736,64.615-43.011,103.842-43.011c39.225,0,76.101,15.275,103.834,43.011
			c57.257,57.259,57.257,150.424,0,207.682c-27.734,27.736-64.611,43.011-103.836,43.011S141.054,348.774,113.32,321.038z"/>
		<path d="M291.138,188.077H143.18c-7.707,0-13.958,6.254-13.958,13.963v27.915c0,7.707,6.25,13.958,13.958,13.958h147.956
			c7.707,0,13.957-6.25,13.957-13.958v-27.915C305.096,194.333,298.845,188.077,291.138,188.077z"/>
	</g>
</g>
<g>
</g>
<g>
</g>
<g>
</g>
<g>
</g>
<g>
</g>
<g>
</g>
<g>
</g>
<g>
</g>
<g>
</g>
<g>
</g>
<g>
</g>
<g>
</g>
<g>
</g>
<g>
</g>
<g>
</g>
</svg>
