<?xml version="1.0" encoding="UTF-8" standalone="no"?>
<!-- Generator: Adobe Illustrator 15.0.0, SVG Export Plug-In . SVG Version: 6.00 Build 0)  -->

<svg
   xmlns:dc="http://purl.org/dc/elements/1.1/"
   xmlns:cc="http://creativecommons.org/ns#"
   xmlns:rdf="http://www.w3.org/1999/02/22-rdf-syntax-ns#"
   xmlns:svg="http://www.w3.org/2000/svg"
   xmlns="http://www.w3.org/2000/svg"
   xmlns:sodipodi="http://sodipodi.sourceforge.net/DTD/sodipodi-0.dtd"
   xmlns:inkscape="http://www.inkscape.org/namespaces/inkscape"
   version="1.1"
   id="Layer_1"
   x="0px"
   y="0px"
   width="27px"
   height="27px"
   viewBox="0 0 27 27"
   enable-background="new 0 0 27 27"
   xml:space="preserve"
   inkscape:version="0.91 r"
   sodipodi:docname="math_text3.svg"><sodipodi:namedview
     pagecolor="#ffffff"
     bordercolor="#666666"
     borderopacity="1"
     objecttolerance="10"
     gridtolerance="10"
     guidetolerance="10"
     inkscape:pageopacity="0"
     inkscape:pageshadow="2"
     inkscape:window-width="1920"
     inkscape:window-height="1028"
     id="namedview3390"
     showgrid="false"
     inkscape:zoom="5.5455503"
     inkscape:cx="3.6180636"
     inkscape:cy="18.600354"
     inkscape:window-x="0"
     inkscape:window-y="0"
     inkscape:window-maximized="1"
     inkscape:current-layer="Layer_1" /><metadata
     id="metadata3394"><rdf:RDF><cc:Work
         rdf:about=""><dc:format>image/svg+xml</dc:format><dc:type
           rdf:resource="http://purl.org/dc/dcmitype/StillImage" /><dc:title></dc:title></cc:Work></rdf:RDF></metadata><defs
     id="defs3392" /><rect
     style="fill:#2f2f2c;fill-opacity:1"
     id="rect3396"
     width="27.063755"
     height="26.968122"
     x="0.031877212"
     y="0.031877212" /><rect
     y="21.319771"
     x="13.704681"
     height="1.7581663"
     width="12.803058"
     id="rect3541"
     style="fill:#00ffff;fill-opacity:1" /><text
     xml:space="preserve"
     style="font-style:normal;font-weight:normal;font-size:17.5px;line-height:125%;font-family:sans-serif;letter-spacing:0px;word-spacing:0px;fill:#000000;fill-opacity:1;stroke:none;stroke-width:1px;stroke-linecap:butt;stroke-linejoin:miter;stroke-opacity:1"
     x="3.0602126"
     y="23.047226"
     id="text3634"
     sodipodi:linespacing="125%"><tspan
       sodipodi:role="line"
       id="tspan3636"
       x="3.0602126"
       y="23.047226" /></text>
<g
     id="g7644"
     transform="matrix(0.01226395,0,0,-0.01323128,-0.31449419,22.895303)"
     style="fill:#ffffff"><path
       d="M 788,916 958,916 855,453 C 835,365 821.33333,311 814,291 840.66667,168.33333 879.33333,107 930,107 c 60,0 91,41.33333 93,124 l 36,0 C 1057,153.66667 1042.8333,91.166667 1016.5,43.5 990.16667,-4.1666667 955.66667,-28 913,-28 877.66667,-28 851.33333,-13.666667 834,15 816.66667,43.666667 798,102.33333 778,191 708.66667,45 595.33333,-28 438,-28 330.66667,-28 245.33333,13.833333 182,97.5 118.66667,181.16667 87,301 87,457 c 0,153.33333 34.66667,272.66667 104,358 69.33333,85.33333 152.66667,128 250,128 68.66667,0 125,-24.33333 169,-73 44,-48.66667 83,-128 117,-238 l 61,284 z M 700,524 C 668.66667,631.33333 633.66667,715.16667 595,775.5 556.33333,835.83333 510,866 456,866 334,866 273,723.33333 273,438 273,167.33333 331.33333,32 448,32 549.33333,32 624.33333,151.33333 673,390 l 27,134 z"
       id="alpha"
       inkscape:connector-curvature="0"
       style="fill:#ffffff" /></g></svg>