<?xml version="1.0" encoding="UTF-8" standalone="no"?>
<!-- Generator: Adobe Illustrator 15.0.0, SVG Export Plug-In . SVG Version: 6.00 Build 0)  -->

<svg
   xmlns:ns0="http://www.iki.fi/pav/software/textext/"
   xmlns:dc="http://purl.org/dc/elements/1.1/"
   xmlns:cc="http://creativecommons.org/ns#"
   xmlns:rdf="http://www.w3.org/1999/02/22-rdf-syntax-ns#"
   xmlns:svg="http://www.w3.org/2000/svg"
   xmlns="http://www.w3.org/2000/svg"
   xmlns:xlink="http://www.w3.org/1999/xlink"
   xmlns:sodipodi="http://sodipodi.sourceforge.net/DTD/sodipodi-0.dtd"
   xmlns:inkscape="http://www.inkscape.org/namespaces/inkscape"
   version="1.1"
   id="Layer_1"
   x="0px"
   y="0px"
   width="27px"
   height="27px"
   viewBox="0 0 27 27"
   enable-background="new 0 0 27 27"
   xml:space="preserve"
   inkscape:version="0.91 r"
   sodipodi:docname="math_text2.svg"><sodipodi:namedview
     pagecolor="#ffffff"
     bordercolor="#666666"
     borderopacity="1"
     objecttolerance="10"
     gridtolerance="10"
     guidetolerance="10"
     inkscape:pageopacity="0"
     inkscape:pageshadow="2"
     inkscape:window-width="1920"
     inkscape:window-height="1028"
     id="namedview3390"
     showgrid="false"
     inkscape:zoom="15.685185"
     inkscape:cx="7.6664698"
     inkscape:cy="10.949823"
     inkscape:window-x="0"
     inkscape:window-y="0"
     inkscape:window-maximized="1"
     inkscape:current-layer="Layer_1" /><metadata
     id="metadata3394"><rdf:RDF><cc:Work
         rdf:about=""><dc:format>image/svg+xml</dc:format><dc:type
           rdf:resource="http://purl.org/dc/dcmitype/StillImage" /><dc:title></dc:title></cc:Work></rdf:RDF></metadata><defs
     id="defs3392" /><rect
     style="fill:#2f2f2c;fill-opacity:1"
     id="rect3396"
     width="27.063755"
     height="26.968122"
     x="0.031877212"
     y="0.031877212" /><rect
     y="21.319771"
     x="13.704681"
     height="1.7581663"
     width="12.803058"
     id="rect3541"
     style="fill:#00ffff;fill-opacity:1" /><g
     id="g3580"
     ns0:preamble=""
     ns0:text="$\\pi$"
     transform="matrix(2.4665366,0,0,2.8954508,-551.32876,-367.40926)"
     style="fill:#ffffff"><defs
       id="defs3582"><g
         id="g3584"><symbol
           id="textext-f06411ba-0"
           overflow="visible"
           style="overflow:visible"><path
             id="path3587"
             d=""
             style="stroke:none"
             inkscape:connector-curvature="0" /></symbol><symbol
           id="textext-f06411ba-1"
           overflow="visible"
           style="overflow:visible"><path
             id="path3590"
             d="m 2.640625,-3.71875 1.125,0 C 3.4375,-2.25 3.34375,-1.8125 3.34375,-1.140625 c 0,0.140625 0,0.40625 0.078125,0.75 0.109375,0.4375 0.21875,0.5 0.359375,0.5 0.203125,0 0.421875,-0.171875 0.421875,-0.375 0,-0.0625 0,-0.078125 -0.0625,-0.21875 -0.296875,-0.71875 -0.296875,-1.375 -0.296875,-1.65625 0,-0.515625 0.078125,-1.0625 0.1875,-1.578125 l 1.125,0 c 0.140625,0 0.5,0 0.5,-0.34375 0,-0.234375 -0.21875,-0.234375 -0.40625,-0.234375 l -3.34375,0 c -0.21875,0 -0.59375,0 -1.03125,0.46875 -0.34375,0.390625 -0.609375,0.84375 -0.609375,0.890625 0,0.015625 0,0.109375 0.125,0.109375 0.078125,0 0.09375,-0.046875 0.15625,-0.125 C 1.03125,-3.71875 1.609375,-3.71875 1.8125,-3.71875 l 0.5625,0 C 2.0625,-2.515625 1.53125,-1.3125 1.109375,-0.40625 1.03125,-0.25 1.03125,-0.234375 1.03125,-0.15625 c 0,0.1875 0.15625,0.265625 0.28125,0.265625 0.296875,0 0.375,-0.28125 0.5,-0.640625 C 1.953125,-1 1.953125,-1.015625 2.078125,-1.515625 Z m 0,0"
             style="stroke:none"
             inkscape:connector-curvature="0" /></symbol></g></defs><g
       id="textext-f06411ba-2"
       style="fill:#ffffff"><g
         id="g3593"
         style="fill:#ffffff;fill-opacity:1"><use
           id="use3595"
           y="134.765"
           x="223.43201"
           xlink:href="#textext-f06411ba-1"
           width="100%"
           height="100%"
           style="fill:#ffffff" /></g></g></g></svg>