<?xml version="1.0" encoding="utf-8"?>
<!-- Generator: Adobe Illustrator 15.0.0, SVG Export Plug-In . SVG Version: 6.00 Build 0)  -->
<!DOCTYPE svg PUBLIC "-//W3C//DTD SVG 1.1//EN" "http://www.w3.org/Graphics/SVG/1.1/DTD/svg11.dtd">
<svg version="1.1" id="Layer_1" xmlns="http://www.w3.org/2000/svg" xmlns:xlink="http://www.w3.org/1999/xlink" x="0px" y="0px"
   width="27px" height="27px" viewBox="0 0 27 27" enable-background="new 0 0 27 27" xml:space="preserve">
<g>
  <path fill="#2F2F2C" d="m126.45467,174.437l-113.5001,134.29466c-2.49984,2.87774 -3,3.35722 -3,4.79624c0,3.35722 3,3.35722 8.99999,3.35722l263.99986,0l27.50014,-76.26003l-7.99999,0c-7.99999,23.02194 -28.99998,41.72712 -56.50014,50.36034c-4.99999,1.91849 -26.99998,9.113 -73.99996,9.113l-135.49978,0l110.99995,-131.41692c2,-2.87774 2.49984,-3.35752 2.49984,-4.79624c0,-1.43902 0,-1.43902 -2,-4.31676l-103.49978,-136.21315l125.99993,0c36.49982,0 109.99995,1.91849 131.99994,58.99388l7.99999,0l-27.50014,-71.46411l-263.99986,0c-8.99999,0 -8.99999,0.47977 -8.99999,9.59248l116.5001,153.95939l0,-0.00001zm0,0"/>
</g>
</svg>
